<svg width="1920" height="1995" viewBox="0 0 1920 1995" fill="none" xmlns="http://www.w3.org/2000/svg">
<path d="M1882.46 91.0511C1880.38 92.6384 1871.69 98.1955 1868.03 100.772C1871.34 96.7243 1889.87 85.3714 1882.46 91.0511ZM1729.27 496.134C1728.71 493.216 1728.22 490.327 1727.78 487.366C1727.7 495.773 1729.03 506.944 1729.99 514.707C1730.14 515.986 1728.57 512.856 1729.01 515.869C1729.48 518.882 1730.77 518.054 1731.76 522.361C1732.38 525.075 1733.77 532.746 1735.99 541.538C1737.07 546.3 1738.73 550.814 1739.85 553.156C1746.49 567.39 1758.93 579.856 1773.45 587.956C1776.16 589.474 1779.79 590.887 1784.75 591.936C1767.87 588.352 1782.97 594.64 1790.67 594.388C1791.36 594.388 1791.68 593.825 1794.4 593.38C1797.35 592.87 1801.62 592.72 1815.58 591.57C1815.41 591.602 1815.33 591.65 1815.42 591.67C1815.74 591.725 1816.97 591.635 1817.69 591.751C1818.46 591.847 1818.95 592.126 1819.62 592.241C1821.32 592.106 1821.87 593.261 1836.51 582.443C1826.29 587.9 1825.29 587.543 1827.01 586.139C1828.9 584.603 1834.92 580.548 1843.71 574.592C1844.64 573.965 1846.32 572.659 1848.12 571.005C1849.33 570.774 1866.67 551.494 1873.96 539.743C1876.46 536.024 1879.1 529.464 1882.32 524.225C1884.52 520.641 1886.85 518.305 1890.06 512.84C1890.07 512.828 1890.07 512.817 1890.08 512.805C1893.79 506.249 1895.42 498.321 1894.29 478.961C1894.44 482.12 1895.69 485.539 1896.6 487.004C1897.53 488.555 1897.81 488.487 1897.02 487.722C1898.3 487.706 1898.57 487.242 1898.82 487.045C1899.03 486.817 1898.99 486.613 1898.38 486.077C1897.33 485.061 1893.05 482.723 1892.68 482.441C1891 480.84 1894.81 482.74 1896.96 484.085C1898.07 484.759 1898.78 485.242 1899.1 485.358C1899.39 485.46 1899.52 485.37 1898.77 484.521C1893.39 479.824 1878.5 472.68 1862.65 467.221C1869.28 469.91 1864.35 468.871 1856.84 466.838C1856.77 466.952 1856.78 467.067 1856.33 467.057C1855.89 467.052 1855 466.956 1853.89 466.83C1851.64 466.569 1848.81 466.218 1847.49 465.806C1848.24 466.9 1840.87 466.251 1828.1 465.036C1802.89 462.396 1759.64 458.925 1750.75 459.699C1748.15 459.944 1764.06 461.237 1730.58 460.89C1728.63 460.883 1726.52 460.877 1724.23 460.875C1719.71 460.873 1721.4 459.89 1719.03 460.026C1717.61 460.108 1709.11 463.324 1699.89 462.001C1696.51 461.626 1717.88 458.348 1670.82 461.652C1682.48 462.895 1655.12 464.428 1629.48 466.842C1613.39 468.3 1598.08 470.289 1592.19 470.976C1595.25 470.892 1598.28 470.831 1601.27 470.798C1586.56 471.95 1583.68 473.632 1580.08 474.163C1578.23 474.448 1576.24 474.743 1574.08 475.042C1559.65 476.777 1547.6 478.534 1535.99 481.375C1522.77 484.635 1521.78 486.536 1508.72 489.599C1507.37 489.918 1505.84 490.26 1504.13 490.63C1505.71 490.382 1507.28 490.14 1508.8 489.911C1511.53 489.487 1514.19 489.088 1516.84 488.697C1514.25 489.326 1511.65 489.963 1508.98 490.625C1499.6 492.945 1490.17 495.342 1480.8 497.799C1507.86 487.923 1474.76 499.267 1472.6 499.973C1469.12 501.032 1473.91 498.623 1468.02 500.392C1467.4 500.592 1468.59 501.26 1459.52 503.932C1440.59 509.575 1443.34 507.552 1435.35 509.915C1434.63 510.146 1437.44 510.191 1423.81 514.531C1380.66 528.617 1423.81 513.756 1425.47 513.194C1427.63 512.422 1411.58 513.211 1449.01 503.577C1436.42 506.795 1434.71 505.636 1433.31 506.003C1432.08 506.302 1410.57 513.1 1409.46 513.539C1399.06 517.379 1408.67 515.535 1406.68 516.369C1405.07 516.995 1378.82 523.922 1373.89 529.166C1360.64 530.382 1380.03 524.02 1400.59 517.005C1403.39 515.422 1380.49 522.153 1379.33 522.578C1350.12 532.358 1367.13 529.369 1361.27 533.062C1358.23 534.995 1345.8 537.478 1357.49 535.839C1331.26 545.256 1346.76 538.448 1345.01 538.842C1342.36 539.466 1333.38 543.376 1332.22 543.708C1330.5 544.195 1336.08 541.334 1329.35 543.477C1328.21 543.845 1318 549.014 1332.01 544.605C1313.53 551.131 1315.5 551.715 1308.43 551.859C1297.4 560.775 1298.36 552.9 1293.3 554.583C1279.88 559.106 1284.98 560.867 1284.34 561.29C1283.96 561.541 1283.34 561.87 1282.51 562.266C1273.8 566.326 1242.54 578.224 1234.59 582.221C1237.12 578.361 1263.21 570.113 1268.66 567.435C1286.83 558.296 1241.72 577.132 1254.16 568.641C1248.78 571.806 1243.4 575.006 1238.04 578.227C1226.82 580.868 1241.24 573.583 1213.49 586.529C1209.61 590.122 1233.21 577.606 1228.86 581.011C1226.27 582.982 1210.12 590.275 1209.98 590.823C1209.86 591.418 1224.28 584.41 1222.29 586.152C1217.87 589.758 1163.99 612.5 1204.15 593.262C1192.83 598.378 1185.61 597.981 1176.26 603.483C1170.27 607.089 1207.62 594.572 1154.17 618.911C1152.33 617.989 1175.17 608.388 1175.72 608.04C1176.46 607.497 1170.88 606.136 1170.1 606.307C1167.27 606.773 1114.08 634.813 1102.11 639.224C1107.45 638.673 1062.13 660.599 1057.73 663.947C1056.54 664.801 1061.93 663.298 1060.63 664.165C1052.48 669.482 1028.52 680.376 1018.08 686.503C1006.35 693.337 1008.44 693.428 1007.77 693.81C1002.64 696.823 1006.33 693.735 1003.22 695.611C1001.89 696.416 998.169 698.647 993.675 701.398C982.484 708.193 966.174 718.728 965.145 719.563C964.709 719.908 970.513 717.602 963.811 722.287C962.673 723.14 962.472 721.243 942.853 735.453C919.356 752.724 960.558 725.488 951.483 733.677C934.794 742.409 936.619 743.957 932.38 746.719C930.907 747.686 919.172 753.723 907.912 762.339C915.873 755.982 923.926 749.735 932.067 743.597C923.65 749.102 908.264 760.942 901.482 765.689C898.154 768.005 899.886 764.721 892.954 770.123C891.531 771.288 887.915 778.669 905.094 763.46C907.35 763.426 898.18 769.275 894.402 772.705C893.846 773.213 892.816 776.825 886.917 779.714C885.575 780.478 894.451 764.548 863.689 795.808C862.714 796.817 866.967 794.342 866.026 795.345C865.398 795.997 856.626 802.929 855.796 803.806C854.92 804.711 859.581 801.929 858.556 803.027C853.292 808.669 843.349 812.557 855.564 802.466C851.226 805.576 846.967 808.664 842.641 811.855C848.67 810.137 836.837 817.89 831.366 822.906C829.096 824.973 827.073 826.84 825.309 828.484C799.695 852.609 820.845 835.487 815.831 841.193C807.577 850.862 811.118 841.082 799.197 854.596C798.527 855.828 813.273 842.254 785.55 870.672C789.305 866.173 793.121 861.921 797.282 857.581C792.797 858.224 783.116 873.236 782.326 874.483C772.655 887.112 778.408 878.165 765.266 897.68C764.912 898.214 764.541 898.775 764.152 899.364C762.839 901.348 759.302 905.106 756.651 909.355C749.642 920.684 758.272 908.516 766.118 898.308C770.59 892.454 774.542 887.564 775.129 887.42C775.379 887.389 771.868 892.122 766.926 898.904C757.81 911.256 745.203 929.426 744.415 930.367C739.218 935.99 757.376 910.751 752.931 914.876C750.915 915.854 710.901 978.892 702.837 992.173C693.24 1006.86 686.196 1012.01 689.492 1014.13C683.7 1016.35 683.634 1021.66 682.515 1023.52C668.42 1046.99 668.4 1047.02 657.061 1067.73C654.542 1072.35 651.418 1075.52 650.665 1077.26C650.242 1078.26 652.309 1077.13 650.067 1081.92C648.69 1084.86 643.331 1094.16 637.645 1103.86C630.858 1115.42 623.588 1127.55 622.394 1128.95C620.192 1131.52 631.089 1112.46 628.189 1115.39C620.466 1129.19 613.467 1142.63 605.739 1156.66C602.546 1162.45 603.462 1159.08 602.084 1161.6C601.466 1162.71 591.225 1183.21 591.947 1182.49C593.594 1180.73 626.922 1118.36 619.265 1135.4C617.753 1138.72 610.118 1148.93 613.034 1148.24C582.457 1203.54 552.337 1259.36 522.386 1315.27C537.862 1282.22 558.312 1246.68 576.129 1212.96C578.564 1208.35 587.081 1192.89 585.075 1194.25C569.537 1222.62 551.147 1258.57 535.971 1285.79C535.485 1286.66 536.296 1282.95 534.413 1286.18C530.889 1292.22 521.75 1313.1 519.598 1316.3C519.208 1316.83 524.045 1304.75 521.464 1307.84C514.838 1315.77 517.908 1320.3 513.829 1327.95C510.647 1333.9 487.667 1372.78 483.759 1383.48C479.615 1394.8 499.971 1354.4 499.577 1357.94C486.512 1385.7 470.993 1412.5 457.756 1438.3C457.525 1438.75 460.455 1435.3 457.609 1441.07C452.647 1451.14 450.003 1453.14 447.3 1457.84C444.323 1463.04 434.906 1481.61 433.171 1483.83C432.955 1484.09 433.635 1479.71 433.891 1479.13C437.54 1470.84 440.713 1468.72 441.091 1468.05C442.572 1465.35 443.354 1462.31 444.708 1459.8C446.964 1455.61 448.665 1453.75 451.575 1448.28C453.584 1444.51 450.569 1447.59 452.526 1443.95C453.224 1442.67 463.276 1429.53 461.366 1426.89C460.852 1426.24 420.545 1501.87 401.898 1537.87C397.301 1546.74 394.082 1553.07 393.032 1555.4C396.215 1549.72 399.366 1544.1 402.635 1538.25C404.928 1534.17 407.419 1529.7 409.733 1525.57C407.447 1529.59 405.01 1534.19 402.855 1538.37C394.143 1555.25 386.697 1571.49 383.559 1571.58C368.109 1600.94 351.981 1631.51 336.51 1659.95C328.923 1674.72 319.818 1692.92 310.489 1709.41C295.387 1736.2 279.428 1761.95 261.382 1787.49C258.394 1791.69 255.344 1795.88 252.219 1800.05C241.887 1813.05 246.041 1804.7 229.011 1826.16C234.154 1821.23 239.199 1816.19 244.13 1811.05C237.915 1818.8 215.008 1844.71 198.735 1860.03C192.148 1866.42 186.933 1871.27 184.934 1873.31C184.036 1874.19 184.146 1876.98 173.022 1887.13C163.119 1896.07 160.504 1896.26 154.917 1900.63C150.232 1904.29 145.329 1908.84 143.905 1909.9C142.823 1910.7 141.823 1910.33 139.189 1912.27C130.851 1918.35 138.999 1915.14 129.107 1919.21C131.011 1917.56 132.889 1915.92 134.759 1914.28C132.615 1915.88 130.269 1917.57 128.037 1919.12C119.045 1925.36 112.031 1929.22 124.298 1919.43C126.967 1917.22 125.161 1919.75 127.2 1918.15C127.215 1918.14 127.23 1918.13 127.245 1918.12C188.835 1867.11 153.072 1895.57 126.691 1917.41C122.445 1920.86 118.377 1924.02 114.889 1926.7C106.918 1931.71 65.9416 1956.33 64.4724 1956.34C62.3955 1957.02 68.9329 1952.37 59.2945 1956.44C57.8676 1957.16 31.2439 1970.93 21.5858 1975.07C21.3158 1975.21 20.4808 1975.57 20.2049 1975.7C15.2845 1977.61 13.9102 1977.87 19.8382 1974.85C20.1068 1974.72 20.9195 1974.37 21.1823 1974.23C21.4323 1974.08 21.6982 1973.93 21.9804 1973.76C25.793 1971.58 52.059 1959.02 58.3993 1955.51C48.6629 1958.76 32.9135 1967.46 21.118 1974.1C20.8563 1974.23 20.0471 1974.59 19.7798 1974.71C10.7741 1979.51 -1.40936 1983.2 -3.59923 1983.42C-28.3999 1988.33 43.2691 1969.71 -11.9876 1981.94C-47.1142 1984.23 -14.5896 1983.97 -27.5923 1985.51C-30.9727 1985.87 -40.5339 1985.76 -49.2593 1985.71C-59.0981 1985.67 -68.2951 1985.82 -67.8233 1987.22C-79.3998 1987.58 -72.635 1986.13 -74.0636 1986.04C-75.4683 1985.96 -98.2405 1986.86 -105.6 1986.32C-106.492 1986.25 -103.689 1984.86 -104.611 1984.75C-106.424 1984.56 -128.305 1984.88 -129.198 1985C-129.754 1985.08 -124.525 1986.28 -126.672 1986.58C-129.177 1986.92 -150.234 1986.66 -151.404 1987.01C-153.031 1987.53 -127.039 1987.16 -131.367 1988.52C-143.359 1988.19 -162.89 1989.1 -170.785 1990.19C-168.85 1989.88 -157.242 1989.83 -153.198 1989.94C-155.102 1991.92 -180.037 1991.9 -171.511 1990.33C-176.938 1991.18 -173.235 1991.62 -176.283 1992.42C-177.083 1992.62 -184.779 1992.66 -186.269 1993.01C-186.457 1993.07 -178.52 1993.82 -180.109 1994.22C-182.987 1994.95 -206.328 1994.79 -208.234 1994.6C-213.608 1994.06 -194.583 1993.4 -192.996 1992.57C-192.768 1992.44 -208.952 1990.8 -209.198 1990.66C-210.143 1989.11 -192.136 1990.22 -194.195 1988.83C-198.651 1988.53 -203.105 1988.24 -207.555 1987.94C-190.388 1986.53 -158.584 1987.25 -150.39 1985.63C-175.878 1986.13 -202.529 1986.07 -202.471 1982.45C-202.452 1980.92 -191.465 1980.03 -191.892 1979.64C-193.507 1978.25 -208.763 1979.76 -209.324 1979.69C-209.788 1979.6 -210 1979.52 -210 1979.44C-210 1979.44 -210 1979.44 -210 1979.44C-209.996 1978.63 -188.259 1978.04 -187.169 1977.67C-185.338 1977.01 -195.018 1974.3 -195.001 1973.7C-194.671 1973.58 -179.177 1972.94 -184.405 1971.89C-189.691 1970.83 -203.242 1970.81 -203.719 1970.7C-206.302 1970.07 -182.609 1969.49 -181.895 1969.11C-181.518 1968.93 -194.259 1967.77 -194.622 1967.43C-194.942 1967.1 -185.266 1966.37 -181.454 1965.31C-178.614 1964.52 -186.887 1963.92 -185.434 1963.8C-184.395 1963.72 -161.992 1963.73 -160.891 1963.59C-159.248 1963.38 -164.505 1962.44 -163.737 1962.21C-162.651 1961.87 -155.427 1962.21 -156.362 1961.86C-157.063 1961.6 -185.117 1958.38 -184.929 1957.51C-184.615 1956.04 -154.91 1959.42 -182.544 1953.61C-182.736 1953.57 -189.462 1953.99 -189.649 1953.95C-193.797 1952.88 -172.246 1951.23 -198.604 1951.52C-149.563 1949.66 -192.498 1949.31 -185.246 1946.83C-182.451 1945.87 -163.428 1945.47 -163.35 1945.33C-165.19 1944.12 -171.249 1945.06 -173.31 1944.47C-174.438 1944.14 -157.441 1942.85 -161.265 1942.02C-163.241 1941.6 -181.296 1941.75 -182.041 1941.67C-189.186 1940.88 -180.423 1940.03 -181.994 1939.47C-183.034 1939.1 -193.936 1939.07 -194.213 1939C-194.677 1938.86 -179.885 1937.35 -176.8 1936.81C-174.456 1936.4 -183.253 1935.76 -181.616 1935.58C-171.764 1934.51 -150.835 1937.23 -171.007 1933.42C-172.242 1933.18 -179.872 1933.28 -180.103 1933.23C-184.825 1932.15 -170.753 1932.06 -168.249 1931.17C-163.936 1929.64 -184.136 1930.5 -167.332 1929.42C-179.934 1928.42 -186.966 1928.47 -201.713 1928.74C-160.862 1927.97 -146.467 1924 -191.801 1924.11C-177.372 1924.17 -178.97 1921.94 -174.676 1921.9C-171.993 1921.88 -151.092 1924.09 -160.675 1919.12C-161.889 1918.5 -174.575 1919.29 -170.602 1918.02C-140.132 1918.33 -169.949 1917.21 -169.987 1917.04C-169.59 1914.12 -95.1319 1916.45 -82.4232 1916C-67.6553 1915.55 -54.5686 1913.11 -51.4123 1913.06C-50.9585 1913.06 -50.5458 1913.05 -50.1696 1913.05C-41.7199 1913.03 -49.5231 1914.23 -47.2954 1914.61C-46.1053 1914.8 -38.0471 1914.27 -30.853 1913.5C-23.4369 1912.75 -18.8881 1911.57 -18.6761 1911.58C-15.8778 1911.59 -18.3537 1913.44 -18.1027 1913.46C-16.1567 1913.4 -14.9489 1913.55 -7.89304 1910.45L-9.33632 1911.11C3.5891 1904.8 19.0106 1896.67 24.9654 1893.74C24.3154 1893.13 4.69643 1902.99 16.2677 1895.5C29.6037 1886.76 32.0819 1889.79 32.5662 1889.76C50.1641 1880.27 66.6603 1870.27 80.8174 1859.12C102.663 1841.83 124.307 1823.21 143.768 1804.13C160.832 1787.38 176.108 1769.8 190.206 1750.59C188.355 1750.48 160.691 1786.68 159.296 1786.91C155.697 1789.3 180.089 1762.02 194.827 1740.55C201.189 1731.65 206.268 1724.18 208.041 1721.88C203.58 1727.86 199.055 1733.73 194.47 1739.46C199.713 1727.99 217.713 1706.09 226.178 1689.53C228.923 1684.22 222.265 1693.59 222.321 1693.35C224.982 1687.12 230.999 1678.21 228.04 1685.79C233.488 1674.65 234.717 1673.46 237.703 1668.88C238.67 1667.39 239.801 1665.55 241.285 1662.88C241.588 1662.32 238.19 1666.55 242.525 1657.68C244.612 1653.6 255.883 1631.46 256.82 1627.61C257.106 1626.23 247.819 1636.23 250.056 1639.04C236.24 1662.31 247.422 1647.42 242.486 1656.64C241.831 1657.79 241.89 1655.22 235.185 1667.48C233.771 1670.04 232.047 1673.25 229.9 1677.28C229.779 1675.34 231.522 1671.38 233.913 1666.77C238.924 1657.2 246.707 1644.47 248.073 1641.17C251.129 1633.81 240.259 1652.99 233.272 1666.41C230.805 1671.21 228.841 1675.4 228.364 1677.58C228.008 1673.01 226.549 1680.12 221.412 1688.53C215.768 1697.71 217.528 1693.29 214.491 1698.25C206.084 1711.74 211.11 1707.16 202.66 1717.23C211.561 1710.9 198.963 1726.95 189.789 1737C187.453 1739.58 185.356 1741.8 183.948 1743.27C185.573 1740.97 187.186 1738.64 188.788 1736.29C196.342 1725.21 203.68 1713.63 210.769 1701.85C210.038 1702.52 209.31 1703.19 208.578 1703.85C210.94 1700.16 213.277 1696.44 215.588 1692.7C215.441 1693.44 215.295 1694.17 215.145 1694.91C225.467 1674.65 229.569 1670.69 230.537 1669.11C231.144 1668.06 231.761 1666.98 232.366 1665.91C240.644 1651.43 248.12 1636.46 257.205 1618.63C261.058 1611.31 264.076 1605.85 267.228 1599.93C269.01 1596.57 266.292 1598.27 280.328 1574.45C284.737 1566.96 282.094 1574.76 286.523 1565.92C289.247 1553.19 291.596 1554.72 293.308 1551.46C298.261 1542 300.491 1535.85 300.937 1534.98C306.499 1524.06 314.789 1508.4 321.19 1495.9C321.651 1495 322.105 1494.11 322.551 1493.23C322.662 1492.99 318.277 1499.09 322.848 1490.99C324.557 1487.95 342.193 1463.97 352.907 1440.09C349.458 1446.06 346.167 1451.72 342.717 1457.69C346.745 1450.87 371.438 1400.83 364.047 1412.39C359.5 1419.51 352.75 1438.93 349.215 1439.55C358.454 1423.57 404.636 1332.09 408.925 1325.39C409.516 1324.46 407.207 1330.88 408.015 1329.59C408.622 1328.61 419.308 1307.7 421.067 1305.11C422.112 1303.57 417.809 1313.02 418.497 1312.42C419.04 1311.89 432.991 1286.11 432.748 1284.08C429.807 1290.69 420.077 1308.39 424.129 1298.55C424.652 1297.29 428.593 1291.38 429.228 1289.84C435.107 1275.56 414.09 1316.4 410.782 1322.72C422.848 1296.44 445.123 1257.71 459.914 1227.66C467.08 1216.16 451.86 1246.08 459.71 1232.92C476.007 1205.62 462.476 1224.83 462.824 1223.91C465.652 1216.46 482.838 1195.18 479.341 1193.31C485.293 1183.38 483.941 1186.98 491.153 1172.34C489.905 1174.1 488.654 1175.86 487.402 1177.62C493.842 1160.6 517.034 1129.68 516.094 1132.38C513.454 1139.77 502.443 1156.41 501.69 1157.92C500.565 1160.17 500.82 1168.19 484.723 1190.79C481.814 1201.99 506.823 1153.18 496.717 1176.06C504.317 1161.03 538.924 1100.76 542.751 1091.43C543.199 1090.29 538.121 1093.94 547.609 1079.47C552.118 1072.6 542.637 1089.97 544.992 1086.95C546.731 1084.72 552.422 1074.87 560.257 1061.03C584.526 1017.4 632.44 934.563 645.14 915.298C646.194 913.627 646.514 914.683 647.536 913.058C650.667 908.022 661.352 889.241 667.768 880.532C654.087 898.087 678.046 862.195 684.841 853.471C688.366 848.744 690.778 845.886 692.525 844.003C695.797 840.469 697.05 839.931 700.046 836.285C716.902 813.877 749.14 777.542 766.492 766.918C765.973 766.635 766.456 765.771 767.721 764.437C773.624 758.11 797.3 741.683 808.432 732.528C818.856 723.81 833.013 709.756 817.84 720.323C836.229 705.513 855.605 689.967 873.49 676.868C876.446 674.704 872.913 678.414 877.922 674.722C878.367 674.389 878.488 673.137 882.787 669.981C918.735 644.081 902.155 658.116 909.329 653.898C913.334 651.617 916.297 649.862 918.415 648.537C896.955 662.732 873.04 680.364 866.671 685.127C873.229 682.571 912.999 651.866 925.859 644.571C926.299 644.311 925.425 646.237 925.865 645.962C925.875 645.956 925.884 645.95 925.893 645.944C928.91 644.033 942.56 635.149 949.806 630.136C953.583 627.502 955.589 625.868 953.214 626.765C952.701 626.959 951.26 627.753 949.115 629.014C943.489 632.323 933.12 638.806 921.578 646.438C925.802 643.387 921.847 644.431 922.587 643.885C927.999 639.905 938.814 633.367 948.411 627.87C954.647 624.29 960.388 621.108 963.691 619.211C965.604 618.11 965.049 617.487 965.355 617.302C972.937 613.017 971.09 616.825 977.562 610.234C992.662 604.738 952.253 625.674 956.031 625.764C958.605 625.001 1045.79 575.143 1044.73 573.812C1045.15 573.868 1046.51 573.49 1049.17 572.486C1055.07 570.2 1079.76 557.286 1083.9 554.791C1084.59 554.352 1083.3 552.502 1084.19 552.033C1086.4 550.804 1117.76 537.344 1128.74 530.788C1122.39 533.443 1116.05 536.128 1109.72 538.844C1147.17 520.883 1141.18 523.202 1128.34 528.444C1127.71 528.734 1127.07 528.945 1126.47 529.22C1116.55 533.356 1103.96 538.95 1103.69 538.887C1102.57 538.391 1166.37 508.175 1154.96 515.852C1153.33 516.844 1123.36 529.792 1138.63 524.302C1141.28 523.32 1160.16 514.202 1161.24 513.922C1168.35 511.8 1127.43 532.238 1133.19 531.331C1142.59 525.283 1155.84 520.021 1167.29 514.469C1172.5 511.944 1173.35 510.348 1173.99 510.037C1183.64 505.439 1178.63 508.944 1181.88 507.478C1183.61 506.662 1201.95 496.009 1199.66 500.757C1262.75 471.68 1216.17 490.559 1177.31 507.953C1189.08 501.325 1213.61 491.51 1224.48 486.759C1228.38 485.041 1225.58 484.941 1232.18 482.001C1235.22 480.648 1240.95 478.311 1248.16 475.501C1273.07 465.638 1316.32 450.93 1329.91 446.643C1319.37 450.71 1322.92 450.802 1331.1 447.893C1339.35 444.98 1331.86 445.776 1333.42 445.054C1335.05 444.194 1374.15 432.144 1380.62 430.014C1351.45 439.934 1358.47 438.958 1383.4 431.22C1379.86 432.701 1376.44 434.156 1372.91 435.657C1387.36 430.45 1418.63 423.071 1427.03 420.13C1428.34 419.656 1423.23 420.037 1423.97 419.772C1431.32 417.129 1457.01 411.125 1458.11 410.494C1459.02 409.931 1447.95 412.043 1451.86 410.525C1452.67 410.209 1463.48 408.721 1473.75 405.673C1477.54 404.548 1474.99 404.192 1475.93 403.886C1481.92 401.956 1480.95 403.092 1486.3 402.062C1488.12 401.707 1490.53 401.145 1494.17 400.158C1504.97 397.255 1512.55 393.621 1528.4 390.673C1477.62 400.543 1518.97 391.009 1541.88 386.064C1544.95 385.432 1543.7 383.931 1559.01 382.046C1560.02 381.918 1561.16 381.777 1562.42 381.624C1561.19 381.936 1560.08 382.22 1559.08 382.476C1550.17 384.678 1545.87 385.891 1547.16 385.93C1548.17 386.001 1553.96 385.129 1559.37 384.233C1567.9 382.749 1581.28 380.162 1586.18 379.471C1586.84 379.386 1587.21 380.511 1592.95 379.698C1593.44 379.631 1592.63 378.92 1597.95 378.128C1608.48 376.585 1615.39 375.797 1619.85 375.315C1636.66 373.596 1618.23 376.144 1625.83 376.015C1629.93 375.876 1653.98 372.749 1660.47 372.362C1661.96 372.263 1661.34 373.13 1667.1 372.74C1677.31 372.057 1686.41 370.743 1693.16 370.401C1693.95 370.377 1694.03 371.637 1706.81 370.809C1710.4 370.584 1714.44 370.018 1709.31 369.773C1692.27 368.911 1660.33 372.73 1641.04 373.176C1623.43 373.381 1678.61 369.11 1681.46 369.269C1682.51 369.21 1671.79 370.409 1682.72 369.986C1692.04 369.624 1709.04 366.712 1723.06 367.007C1723.6 367.016 1726.74 367.472 1729.64 367.95C1732.47 368.415 1735.06 368.9 1734.8 368.957C1734.64 368.987 1732.39 369.07 1729.65 369.202C1724.66 369.438 1718.09 369.869 1719.71 370.199C1719.93 370.239 1725.97 370.139 1729.67 370.276C1730.95 370.322 1731.94 370.393 1732.31 370.497C1734.06 370.987 1738.75 375.924 1741.05 376.049C1746.97 376.36 1743.12 375.225 1746.95 375.315C1755.17 375.428 1783.49 377.526 1784.45 375.895C1779.77 375.648 1775.09 375.424 1770.4 375.222C1796.49 375.708 1785.39 374.737 1789.1 374.509C1793.08 374.303 1791.93 375.756 1800.7 376.257C1802.18 376.312 1824.29 377.192 1834.29 377.585C1837.2 377.679 1839.02 377.683 1838.89 377.526C1837.17 377.488 1835.66 377.445 1834.31 377.396C1819.61 376.916 1826.04 375.799 1825.16 375.702C1821.58 375.359 1816.93 376.144 1812.15 375.882C1778.48 374.201 1812.51 374.051 1804.58 373.276C1801.85 373.007 1796.36 373.679 1795.2 373.591C1791.44 373.301 1791.41 372.131 1788.89 372.139C1783.01 372.164 1789.81 374.046 1789.34 374.118C1784.07 374.938 1763.54 373.173 1776.39 371.675C1768.71 370.839 1767.76 373.018 1761.67 372.043C1749.54 370.147 1767.74 370.821 1772.68 370.674C1790.39 370.105 1795.56 371.028 1820.68 372.083C1825.22 372.291 1830.26 372.315 1834.66 372.34C1838.92 372.356 1842.6 372.349 1844.71 372.482C1846.07 372.579 1852.8 373.962 1860.38 374.99C1867.73 375.877 1877.83 377.436 1879.27 374.903C1881.84 375.629 1884.8 376.657 1887.79 377.947C1896.58 382.24 1907.93 389.386 1916.72 393.232C1926.2 397.427 1924.15 394.301 1925.06 394.623C1926.46 395.068 1938.19 401.467 1942.52 404.038C1947.57 406.948 1945.51 404.412 1953.62 409.98C1963.8 417.296 1968.6 423.451 1970.79 426.7C1973.02 430.084 1972.92 430.969 1973.83 432.313C1984.31 448.736 1985.18 456.607 1986.48 457.941C1987.53 459.702 1987.77 457.065 1989.03 462.059C1989.33 463.41 1990.22 467.385 1990.56 473.349C1990.88 480.953 1991.84 496.8 1988.93 515.443C1986.33 534.068 1977.78 553.206 1972.63 561.796C1972.16 562.656 1971.75 563.406 1971.43 564.033C1971.8 563.272 1972.18 562.509 1972.55 561.746C1975.43 556.211 1977.91 550.425 1979.92 544.517C1976.84 550.429 1973.91 556.546 1971.33 561.021C1969.53 564.201 1968.18 566.333 1967.13 565.799C1969.46 569.368 1957.06 584.45 1953.75 589.396C1952.48 591.347 1953.12 591.566 1951.48 594.004C1945.42 603.555 1928.19 624.615 1923.12 630.014C1912.67 641.697 1922.62 633.656 1933.39 621.993C1944.22 610.358 1955.2 595.243 1956.76 593.028C1953.73 597.541 1943.5 612.664 1934.39 624.045C1925.28 635.424 1918.44 643.06 1930.49 631.6C1934.11 628.037 1938.18 620.437 1939.73 618.341C1950.17 604.163 1942.93 616.016 1943.88 615.024C1945.57 613.292 1951.12 603.263 1952.88 600.974C1953.45 600.201 1951.13 606.175 1960.15 592.944C1957.8 600.131 1927.89 637.067 1921.03 642.47C1920.21 643.342 1922.68 641.829 1922.02 643.027C1920.95 644.222 1918.95 648.248 1900.65 660.063C1898.96 661.016 1897.02 662.111 1894.75 663.387C1895.24 663.378 1895.72 663.37 1896.2 663.365C1881.38 672.511 1862.83 689.512 1825.06 694.285C1823.37 694.45 1821.54 694.622 1819.71 694.779C1820.7 694.443 1823.44 693.839 1824.98 693.376C1827.69 692.82 1828.84 692.444 1824.92 692.755C1823.84 692.802 1821.92 692.977 1818.75 693.28C1809.51 694.095 1816.46 694.957 1815.63 695.058C1812.42 694.021 1773.79 704.079 1723.13 677.818C1677.41 654.214 1647.19 602.116 1642.2 585.028C1640.77 581.364 1638.54 575.435 1636.59 569.01C1633.52 559.462 1630.28 547.147 1630.04 545.869C1626.47 533.854 1623.13 489.287 1623.89 480.44C1623.85 474.926 1622.64 480.172 1622.79 475.204C1622.96 470.624 1623.93 475.395 1624.01 474.039C1624.28 469.681 1624.65 454.151 1627.28 435.894C1630.62 410.769 1636.95 377.794 1640.9 366.109C1636.67 378.269 1629.49 432.63 1630.73 431.478C1630.86 431.248 1633.74 418.424 1633.83 415.637C1635.49 411.382 1635.44 395.448 1637.87 386.928C1638.19 385.948 1638.76 390.205 1642.63 374.803C1644.05 369.455 1646.12 355.066 1653.33 339.755C1654.74 335.771 1657.18 328.969 1662.41 319.234C1679.81 283.749 1728.92 227.236 1732.21 222.459C1732.26 222.224 1721.88 233.036 1728.07 224.973C1736.37 214.362 1730.6 225.394 1741.38 214.137C1741.74 213.768 1743.36 212.019 1745.79 209.437C1754.32 200.096 1773.91 181.118 1774.7 180.348C1783.25 169.919 1754.64 195.702 1755.06 195.379C1755.49 193.912 1778.61 171.701 1779.8 171.089C1780.78 170.371 1763.02 189.47 1785.72 168.017C1782.84 170.145 1779.96 172.316 1777.12 174.497C1787.73 164.266 1789.92 164.733 1792.67 162.492C1801.27 155.651 1808.89 146.182 1824.56 138.146C1828.67 136.056 1823.2 141.346 1823.72 141.106C1828.74 138.664 1832.57 132.101 1840.49 129.063C1841.08 128.888 1826.48 140.937 1853.37 121.662C1851.39 122.798 1849.42 123.942 1847.43 125.102C1849.3 123.46 1857.49 117.398 1865.58 111.736C1872.68 106.743 1879.62 101.933 1881.39 100.786C1892.02 93.8981 1883.74 101.393 1894.2 94.0316C1886.18 96.9511 1918.41 74.7946 1917.61 77.5515C1920.87 72.6144 1949.97 55.5993 1963.82 47.3199C1972.41 42.0061 1990.08 30.6563 1993.1 29.1802C1996.68 27.3546 1996.35 29.2584 2002.91 26.0926C2004.78 25.2057 2023.36 13.8119 2042.8 7.41844C2046.54 6.15233 2055.28 5.5199 2048.66 8.84131C2037.36 14.4029 2016.32 22.5352 2017.29 23.8284C2018.17 25.0034 2045.25 11.0134 2053.8 8.35153C2060.36 6.01523 2065.42 4.54354 2069 3.63147C2083.86 0.0325546 2070.93 5.37538 2071.77 5.57323C2074.38 6.04874 2093.13 0.373028 2093.95 0.307055C2097.35 -0.156208 2084.25 4.73263 2084.36 5.54289C2084.35 6.56515 2103.01 3.06175 2098.97 4.59697C2093.19 6.70252 2076.23 10.2498 2075.28 10.6546C2073.62 11.3 2072.45 11.8188 2071.71 12.222C2069.87 13.186 2070.39 13.4879 2072.09 13.4428C2075.44 13.4225 2083.5 12.0996 2086.73 11.8549C2088.37 11.7283 2082.39 14.1482 2083.69 13.8623C2103.84 9.50412 2086.8 9.43739 2100.14 5.91891C2112.05 2.87964 2097.26 8.63038 2097.75 8.60131C2098.33 8.50179 2112.5 4.64848 2114.84 4.63324C2115.84 4.45122 2080.37 17.7947 2082.29 18.7842C2093.71 14.9687 2105.24 11.3284 2116.84 7.97359C2118.25 9.37751 2101.05 12.7299 2099.45 13.427C2096.1 14.7642 2105.94 12.8807 2105.73 13.5294C2105.52 13.9439 2094.69 18.3421 2104.97 15.9617C2108.6 15.1427 2115.63 11.8315 2128.94 9.85427C2084.46 23.1683 2115.74 15.9541 2117.25 16.1575C2118.72 16.4077 2097.76 23.5173 2123.57 16.4017C2125.55 19.4378 2123.25 17.5715 2116.1 20.0979C2107.3 23.3193 2128.25 18.4857 2095.48 26.9746C2097.71 27.8762 2123.85 20.5188 2125.34 20.3997C2126.57 20.202 2120.94 22.465 2123.09 22.1868C2148.52 19.0552 2131.24 21.8872 2138.8 22.0934C2139.49 22.0059 2163.05 17.8338 2145.29 21.86C2113.14 29.7047 2099.37 32.1049 2095.38 38.2245C2119.34 33.0623 2147.23 23.3215 2154.58 22.0017C2165.72 19.8155 2154.37 22.9571 2155.8 22.9785C2156.27 22.9442 2165.87 21.1524 2165.99 21.2486C2173.37 23.2136 2123.53 29.6927 2108.42 35.3596C2112.67 34.7307 2116.9 34.1393 2121.18 33.577C2115.53 35.1035 2110.1 36.6387 2104.5 38.2819C2131.28 31.9213 2105.53 38.3322 2099.84 43.2105C2098.61 44.2738 2115.42 38.1192 2096.35 45.7066C2110.96 41.8311 2106.46 43.7621 2119.43 39.3005C2119.41 40.3241 2097.71 47.5991 2084.43 52.6026C2082.48 53.3303 2080.68 54.0407 2079.21 54.6423C2081.16 54.0351 2082.95 53.5007 2084.56 53.0352C2117.95 43.7116 2097.42 45.4865 2131.83 38.5923C2138.13 35.4591 2121.06 40.106 2122.45 39.529C2127.24 37.3527 2139.19 35.6127 2152.75 29.6642C2154.97 28.714 2144.85 29.0951 2159.37 26.3365C2161.06 25.9951 2170.5 25.8045 2170.37 25.9561C2169.28 27.1354 2160.17 28.2904 2159.8 28.8344C2159.6 29.2563 2169.61 27.2962 2169.72 27.4394C2170.21 28.6591 2161.33 29.3214 2162.68 29.5223C2165.71 29.8345 2201.97 27.0215 2154.87 33.9444C2193.74 25.821 2159.71 30.9835 2144.4 35.2935C2140.46 36.3437 2139.69 37.317 2134.21 38.9445C2127.15 41.0427 2118.62 42.9676 2115.01 44.1288C2111.1 45.4267 2134.13 40.7498 2101.38 49.5682C2118.43 46.3045 2147.35 36.7736 2163.78 35.3751C2196.47 32.7247 2141.8 42.2294 2135.96 44.8719C2134.45 45.3113 2139.8 45.0905 2138.81 45.4001C2137.15 45.6997 2105.6 53.7722 2102.75 55.7074C2099.91 57.4448 2114.29 52.2825 2115.45 52.9404C2116.29 53.1584 2078.79 65.6684 2099.39 59.8416C2113.52 55.7224 2138.95 46.5454 2143.87 48.2581C2125.39 52.7924 2106.71 58.3793 2088.15 64.4259C2086.37 65.0099 2084.5 65.6575 2082.67 66.3214C2084.57 65.8517 2086.5 65.4003 2088.33 65.0148C2097.85 62.8831 2107.34 60.8914 2116.78 59.0905C2107.19 61.9319 2098.04 64.5694 2089.06 67.3113C2078.17 70.6348 2067.05 75.3021 2055.91 81.5988C2104.51 63.4422 2041.7 90.5113 2041.17 92.4324C2041.04 92.6555 2060.83 85.5306 2063.93 84.7941C2048.02 92.4489 1998.71 122.383 2029.3 108.237C2023.67 110.561 2011.91 119.724 2012.16 119.758C2014.51 119.813 2041.65 103.124 2037.77 106.912C2033.31 111.101 2025 113.509 2017.05 118.469C1976.33 144.619 1991.82 143.791 1950.04 170.411C1951 170.073 1951.98 169.735 1952.95 169.396C1942.1 176.64 1931.2 184.019 1920.18 191.446C1887.04 213.781 1856.05 237.129 1828.93 263.367C1826.06 266.934 1821.96 271.727 1817.15 277.393C1800.96 296.074 1779.44 323.661 1768.97 339.163C1765.9 343.138 1752.52 362.829 1751.64 364.434C1749.62 367.103 1758.63 351.158 1753.82 357.942C1753.53 358.361 1751.51 361.649 1749 366.167C1745.87 370.746 1740.25 390.099 1741.8 388.259C1743.04 383.835 1746.4 372.131 1747.32 371.145C1749.56 368.194 1746.64 373.625 1742.32 389.804C1738.02 405.629 1733.38 430.548 1730.28 451.308C1727.8 467.47 1727.93 480.225 1728.18 482.017C1728.6 479.454 1729.07 476.921 1729.59 474.378C1729.09 481.646 1728.98 488.872 1729.27 496.134ZM1853.49 115.369C1855.31 113.373 1858.92 110.725 1862.99 107.954C1867.45 104.917 1872.56 101.635 1876.06 99.0031C1885.04 92.2142 1898.33 77.2176 1894.2 86.008C1883.75 93.4729 1873.4 100.966 1863.22 108.3C1859.94 110.656 1856.72 112.999 1853.49 115.369ZM1669.65 299.704C1676.87 289.382 1673.98 299.022 1667.79 307.331C1667.14 308.255 1660.1 313.959 1669.65 299.704ZM1749.93 200.762C1749.69 201.039 1745.72 205.077 1743.56 207.306C1742.75 208.131 1742.19 208.71 1742.11 208.772C1739.5 210.948 1740.7 209.328 1743.01 206.79C1746.94 202.442 1754.28 195.474 1749.93 200.762ZM1875.97 673.838C1861.57 682.033 1873.93 678.299 1881.34 672.449C1881.82 672.082 1876.89 673.305 1875.97 673.838ZM1865.5 679.516C1853.92 684.524 1817.83 696.777 1845.96 689.475C1849.26 688.871 1866.63 679.374 1865.5 679.516ZM1695.42 263.639C1695.26 265.232 1687.47 275.21 1684.24 279.641C1683.63 279.057 1692.3 267.872 1695.42 263.639ZM1644.32 587.449C1644.71 587.606 1641.3 579.177 1638.4 568.509C1634.95 556.472 1631.15 539.014 1630.39 537.282C1631.29 541.491 1634.56 557.528 1637.73 568.695C1640.55 579.122 1644.01 587.307 1644.32 587.449ZM1744.99 685.325C1743.64 685.085 1726.44 677.732 1723.9 676.44C1723.7 676.377 1723.59 676.374 1723.61 676.44C1723.68 676.487 1723.75 676.535 1723.82 676.582C1733.26 683.152 1751.58 688.109 1744.99 685.325ZM1968.22 580.332C1968.45 579.569 1959.61 586.971 1975.32 565.965C1977.61 562.868 1971.4 575.107 1972.2 574.015C1973.93 571.706 1975.2 569.84 1976.15 568.294C1970.21 578.887 1963.23 589.828 1962.33 590.757C1958.2 595.082 1968.16 580.668 1968.22 580.332ZM1973.27 424.437C1969.91 420.251 1951.56 404.338 1947.74 402.188C1947.08 401.737 1950.99 402.17 1942.88 397.267C1936.48 393.655 1945.01 400.346 1932.98 393.392C1920.98 386.919 1937.72 394.171 1936.77 393.689C1935.23 392.416 1916.39 384.271 1917.44 383.861C1918.04 383.129 1937.79 393.072 1943.24 396.595C1950.08 400.682 1942.43 394.138 1953.78 402.147C1961.01 407.667 1955.67 406.379 1957.14 407.613C1957.73 408.115 1964.65 413.168 1970.05 418.895C1975.45 424.565 1979 429.897 1973.24 424.386C1973.25 424.403 1973.26 424.42 1973.27 424.437ZM1977.75 565.426C1977.35 566.248 1976.83 567.19 1976.15 568.294C1976.69 567.335 1977.23 566.375 1977.75 565.426ZM1826.79 135.877C1821.53 139.017 1835.49 127.473 1841.53 124.232C1842.01 124.689 1827.63 135.315 1826.79 135.877ZM1983.83 549.887C1993.25 525.046 1989.52 543.98 1978 564.979C1977.92 565.127 1977.84 565.276 1977.75 565.426C1977.83 565.267 1977.91 565.113 1977.98 564.963C1981.01 558.752 1980.07 557.756 1983.83 549.887ZM1633.83 415.637C1633.55 416.348 1633.23 416.779 1632.82 416.771C1633.59 414.896 1633.85 414.769 1633.83 415.637ZM1627.25 458.932C1627.28 474.97 1629.76 442.625 1629.21 442.781C1628.78 442.826 1627.16 458.3 1627.25 458.932ZM1891.47 664.136C1890.91 664.439 1894.27 661.047 1894.86 659.931C1895.27 658.892 1894.37 659.441 1881.59 669.317C1896.1 660.475 1881.42 670.479 1881.62 670.677C1882.48 670.937 1893.16 663.717 1899.96 659.028C1906.55 654.58 1911.18 650.58 1913.37 648.891C1915.47 645.604 1908.87 652.157 1899.64 658.547C1896.44 660.828 1892.98 663.32 1891.5 664.117C1891.49 664.124 1891.48 664.13 1891.47 664.136ZM1757.28 362.908C1760.79 361.963 1771.85 362.462 1779.31 362.734C1775.8 363.608 1764.75 363.043 1757.28 362.908ZM326.801 1482.7C348.756 1438.48 355.313 1434.48 333.037 1473.96C332.602 1474.73 325.766 1485.57 326.801 1482.7ZM525.69 1106.8C529.444 1103.51 522.318 1117.24 516.851 1125.88C515.624 1127.82 510.04 1134.48 514.342 1125.77C516.027 1127.07 523.905 1114.16 525.69 1106.8ZM1988 535.374C1989.63 527.673 1993.97 505.598 1993.98 495.382C1995.14 501.43 1992.17 524.792 1988 535.374ZM403.677 1339.4C406.204 1334.84 406.508 1331 405.977 1331.75C403.587 1335.08 400.171 1344.26 403.677 1339.4ZM1958.71 590.179C1957.83 590.421 1968.93 571.791 1971.06 571.403C1968.65 575.254 1959.45 589.967 1958.71 590.179ZM1771.35 363.664C1774.54 364.073 1757.95 364.378 1752.91 364.015C1753.33 363.261 1769.26 363.365 1771.35 363.664ZM442.225 1264.69C444.516 1260.61 449.996 1250.29 450.06 1248.86C450.133 1247.08 442.379 1262.37 442.225 1264.69ZM-32.6763 1906.18C-33.0007 1906.05 -28.8835 1905.37 -24.9731 1904.62C-23.028 1904.25 -21.2393 1903.85 -20.107 1903.55C-18.947 1903.26 -18.4026 1903.09 -17.8917 1903.09C-16.9142 1903.06 -16.5948 1903.19 -17.0445 1903.58C-17.5155 1903.95 -18.0302 1904.34 -19.6392 1904.78C-22.7293 1905.72 -32.51 1906.28 -32.6763 1906.18ZM381.535 1383.57C373.479 1395.94 382.245 1382.11 380.605 1381.98C375.979 1390.75 364.543 1412.58 373.68 1398.23C375.432 1395.49 379.353 1387.55 381.535 1383.57ZM388.267 1371.74C388.552 1370.13 392.092 1359.99 387.95 1368.18C386.049 1371.95 384.409 1378.81 388.267 1371.74ZM47.7601 1870.59C59.1634 1865.88 10.3078 1892.33 7.93663 1892.62C7.09102 1892.91 6.51953 1893.06 6.18216 1893.12C4.47763 1894.46 -5.43312 1899.43 -7.08752 1899.03C-4.02266 1897.64 4.04369 1893.55 5.02663 1893.19C5.45258 1893.03 5.77364 1892.92 6.00171 1892.86C9.46732 1890.4 46.2258 1871.73 47.7601 1870.59ZM120.504 1815.43C111.225 1826.45 106.979 1825.55 107.868 1824.67C118.647 1813.36 112.667 1821.91 113.104 1821.69C114.07 1821.12 121.489 1812.9 120.471 1815.46C120.482 1815.45 120.493 1815.44 120.504 1815.43ZM63.1562 1861.4C62.8054 1861.76 53.5399 1867.67 53.066 1867.85C44.9416 1871.8 70.9883 1855.08 63.1562 1861.4ZM1877.55 374.073C1863.54 371.154 1876.79 371.544 1888.16 375.92C1888.25 375.954 1888.35 376.007 1888.45 376.071C1888.67 376.274 1888.85 376.663 1888.22 376.72C1887.1 376.667 1883.94 375.697 1877.55 374.073ZM391.316 1365.16C392.502 1363.37 418.2 1316.04 415.066 1318.03C413.136 1322.17 383.948 1376.06 391.316 1365.16ZM582.505 1009.35C577.677 1017.8 581.427 1007.65 584.494 1003.61C585.637 1002.11 583.718 1007.22 582.505 1009.35ZM1939.74 613.96C1933.28 623.638 1932.33 619.697 1939.34 612.583C1939.61 612.304 1939.99 613.583 1939.74 613.96ZM544.287 1075.69C559.293 1046.27 560.263 1055.87 538.101 1092.48C538.527 1091.18 538.951 1089.88 539.373 1088.59C515.022 1131.62 537.383 1091.35 542.934 1080.61C545.055 1076.49 542.376 1079.44 544.266 1075.71C544.273 1075.7 544.28 1075.7 544.287 1075.69ZM607.976 965.667C627.732 940.13 594.311 991.348 586.245 1006.84C593.211 991.359 604.556 972.345 588.071 997.499C609.811 959.316 602.052 975.978 603.002 974.543C604.213 972.765 607.149 966.728 607.976 965.667ZM566.101 1038.66C565.297 1040.33 557.87 1051.99 555.538 1056.49C557.754 1049.66 571.343 1027.69 566.101 1038.66ZM184.349 1744.03C184.58 1745.48 183.723 1748.11 177.38 1755.69C178.833 1752.96 182.275 1747.65 184.349 1744.03ZM1865.6 113.76C1865.9 113.559 1866.21 113.35 1866.53 113.134C1872.91 108.884 1884.09 101.589 1879.9 103.177C1879.51 103.344 1869.21 110.493 1866.39 112.918C1865.84 113.377 1865.55 113.68 1865.6 113.76ZM464.779 1226.87C465.633 1225.51 484.974 1189.2 477.288 1201.21C474.95 1204.84 457.595 1237.99 464.779 1226.87ZM366.006 1415.37C367.561 1412.4 373.887 1399.81 373.772 1399.48C373.47 1398.19 365.927 1413.73 366.006 1415.37ZM1897.41 93.2924C1898.28 92.8079 1917.36 79.6998 1914.98 80.7019C1910.38 82.5878 1894.37 94.8977 1897.41 93.2924ZM1837.91 371.919C1836.87 371.865 1835.75 371.476 1834.75 371.106C1833.86 370.772 1833.1 370.457 1832.77 370.428C1831.07 370.16 1795.05 368.793 1808.87 368C1809.96 367.941 1821.7 368.534 1834.86 369.579C1849.09 370.646 1867.29 372.496 1873.75 374.062C1875.58 375.217 1867.97 373.716 1861.26 372.862C1854.4 371.927 1847.54 371.089 1844.81 370.955C1843.87 370.916 1843.1 372.176 1837.93 371.913C1837.92 371.915 1837.92 371.917 1837.91 371.919ZM152.704 1784.19C152.6 1785.06 146.106 1792.63 139.241 1799.53C132.65 1806.2 125.729 1812.35 125.494 1811.75C129.991 1807.51 134.401 1803.23 138.662 1798.94C143.485 1794.08 148.166 1789.17 152.704 1784.19ZM165.359 1770.23C171.029 1764.66 159.208 1778.94 155.168 1782.7C154.686 1782.31 164.588 1771.08 165.359 1770.23ZM405.272 1348.08C406.97 1344.29 399.781 1354.91 400.846 1352.25C401.533 1350.55 406.287 1342.62 407.235 1339.82C407.487 1339.02 401.94 1346.67 400.718 1349.14C398.997 1352.61 401.693 1349.79 399.75 1353.53C393.322 1365.91 386.858 1376.64 380.861 1388.21C380.316 1389.26 385.225 1381.49 380.555 1390.44C379.809 1391.87 374.52 1399.57 369.061 1410.43C359.926 1435.66 347.775 1451.55 333.313 1482.15C334.25 1481.07 346.638 1459.15 347.374 1457.8C360.92 1432.98 384.353 1388.02 398.099 1361.68C401.602 1354.96 399.239 1357.88 400.727 1354.97C401.908 1352.66 401.701 1356.05 405.272 1348.08ZM1862.64 116.726C1863.75 116.45 1865.39 115.573 1867.36 114.342C1871.89 111.531 1878.2 106.685 1882.91 103.517C1880.45 103.984 1873.14 109.532 1866.99 113.803C1865.43 114.888 1863.95 115.891 1862.64 116.726ZM258.382 1623.75C258.802 1622.9 259.437 1621.68 260.229 1620.21C263.156 1614.76 266.817 1608.46 266.92 1607.56C267.004 1606.59 262.521 1614.18 259.77 1619.97C258.82 1621.98 258.271 1623.42 258.382 1623.75ZM1634.71 372.872C1634.3 372.933 1624.32 373.802 1623.91 373.812C1614.86 373.556 1644.9 370.962 1634.71 372.872ZM1401.8 422.021C1394.76 424.317 1387.67 426.961 1384.97 426.627C1389.56 425.366 1402.43 421.008 1401.8 422.021ZM1100.72 540.729C1102.73 541.356 1082.27 550.399 1078.45 552.216C1079.54 550.899 1099.23 540.25 1100.72 540.729ZM188.932 1745.57C181.527 1755.49 184.829 1754.71 179.24 1760.29C178.297 1761.17 172.207 1761.59 181.767 1751.99C183.469 1750.2 178.666 1758.59 188.932 1745.57ZM534.714 1098.6C533.961 1102.01 528.542 1111.39 525.067 1117.66C525.187 1115.92 532.339 1103.1 534.714 1098.6ZM1932.89 70.8883C1938.95 68.4533 1963.82 51.5561 1957.06 54.7606C1956.05 55.1912 1936.37 68.614 1932.89 70.8883ZM1989.77 487.504C1988.37 473.024 1989.06 502.842 1987.71 514.723C1988.83 509.452 1990.09 488.204 1989.77 487.504ZM1171.42 508.57C1170.9 508.838 1159.06 514.048 1158.52 514.245C1148.39 517.566 1181.89 502.828 1171.42 508.57ZM1476.56 402.903C1472.32 404.868 1442.55 412.167 1435.7 413.245C1441.71 410.076 1481.91 400.291 1476.56 402.903ZM217.259 1701.87C212.499 1709.66 207.608 1716.8 202.698 1723.51C203.097 1721.71 216.328 1702.46 217.259 1701.87ZM1128.34 528.444C1127.71 528.734 1127.07 528.945 1126.47 529.22C1127.1 528.954 1127.73 528.697 1128.34 528.444ZM317.464 1516.19C321.381 1509.31 319.445 1510.06 319.164 1510.51C315.992 1515.64 312.971 1524.09 317.464 1516.19ZM1871.48 113.124C1874.46 112.58 1885.04 104.155 1891.67 99.9793C1889.23 100.457 1876.53 109.505 1871.48 113.124ZM627.875 937.48C634.331 929.403 614.032 965.879 608.953 973.005C607.79 973.214 626.829 938.676 627.875 937.48ZM1980.59 537.851C1979.93 538.894 1969.64 562.609 1972.35 557.877C1974.69 555.15 1981.7 537.416 1980.59 537.851ZM597.936 990.749C596.196 994.336 590.892 1001.64 591.967 998.598C593.327 994.733 598.379 989.814 597.936 990.749ZM433.305 1296.33C434.219 1294.9 443.87 1274.37 438.643 1282.2C435.019 1287.63 435.777 1289.2 435.07 1290.56C434.266 1292.07 415.866 1323.51 433.305 1296.33ZM779.371 750.645C775.384 754.469 770.659 758.565 766.056 762.585C763.314 764.982 760.676 767.294 758.136 769.62C759.111 768.407 762.13 765.435 765.674 762.16C770.914 757.307 777.375 751.761 779.371 750.645ZM1975.7 438.202C1976.13 439.24 1985.96 454.111 1986.84 473.565C1987.82 489.534 1987.21 509.61 1988.18 484.205C1988.19 483.451 1988.13 478.719 1987.87 473.505C1987.38 450.93 1971.33 430.593 1975.7 438.202ZM188.932 1745.57C189.86 1744.31 190.956 1742.87 192.254 1741.21C191.012 1742.89 189.898 1744.33 188.932 1745.57ZM263.262 1619.55C262.421 1622.58 270.182 1608.57 271.889 1604.59C271.807 1602.95 263.607 1618.64 263.262 1619.55ZM758.283 770.817C754.645 774.67 747.186 780.969 742.239 785.816C742.646 784.424 756.172 771.777 758.283 770.817ZM1065.1 562.398C1055.63 566.806 1044.37 572.943 1044.57 573.753C1044.32 573.743 1043.81 573.862 1043 574.137C1042.19 574.41 1032.49 579.993 1028.1 582.063C1001.48 593.898 1127.22 529.529 1055.51 569.014C1058.7 566.803 1061.89 564.598 1065.1 562.398ZM1517.42 394.657C1523.4 394.185 1540.39 389.395 1535.85 389.956C1532.46 390.267 1511.24 395.067 1517.42 394.657ZM1299.32 460.473C1301.05 460.013 1316.03 453.937 1316.29 453.316C1307.33 455.876 1291.44 462.478 1299.32 460.473ZM1563.78 386.948C1567.24 386.511 1571.67 384.15 1571.23 384.157C1567.28 384.255 1557.9 387.048 1563.78 386.948ZM207.289 1726.51C210.554 1722.5 218.492 1707.91 219.467 1704.28C219.992 1703.81 221.168 1702.42 223.166 1699.74C223.161 1699.75 223.156 1699.76 223.15 1699.77C224.031 1698.59 232.349 1685.28 240.622 1670.51C257.15 1640.73 275.149 1603.44 246.231 1657.15C244.845 1659.59 247.52 1656.68 241.916 1666.6C241.546 1667.25 240.693 1667.22 239.538 1669.23C239.452 1669.38 239.353 1669.55 239.242 1669.74C236.081 1675.45 221.998 1698.5 219.494 1703.48C219.348 1703.44 219.038 1703.69 218.518 1704.3C213.948 1709.75 204.824 1729.68 207.289 1726.51ZM1269.26 471.829C1272.43 470.911 1281.97 467.027 1282.75 466.025C1277.79 467.5 1261.96 473.917 1269.26 471.829ZM1975.1 442.597C1978.8 448.993 1984.17 464.103 1984.64 473.694C1985.08 477.031 1985.46 478.861 1985.57 476.523C1985.6 475.995 1985.57 474.963 1985.5 473.643C1985.32 466.32 1982.18 454.282 1978.43 447.347C1974.79 440.345 1972.12 437.203 1975.1 442.597ZM1366.62 437.203C1330.19 448.284 1358.02 440.074 1352.78 442.825C1357.35 440.945 1362 439.06 1366.62 437.203ZM96.4594 1843.4C100.989 1839.91 97.0908 1845.73 91.5488 1848.89C89.8107 1849.88 93.9297 1845.35 96.4594 1843.4ZM-126.03 1913.62C-120.955 1915.34 -145.722 1914.36 -136.075 1913.16C-135.636 1913.12 -126.389 1913.56 -126.03 1913.62ZM36.7097 1886.25C39.4271 1883.39 41.5806 1882.13 50.6481 1877.08C37.4946 1885.16 50.5066 1878.89 36.7097 1886.25ZM1044.73 573.812C1044.65 573.801 1044.58 573.797 1044.57 573.753C1044.65 573.756 1044.7 573.777 1044.73 573.812ZM1599.69 380.982C1604.73 381.273 1618.39 379.642 1614.2 379.114C1613.82 379.041 1601.6 379.955 1599.69 380.982ZM219.467 1704.28C219.002 1704.69 219.064 1704.37 219.494 1703.48C219.631 1703.51 219.604 1703.79 219.467 1704.28ZM1527.42 394.074C1527.67 393.196 1507.35 397.65 1506.65 397.961C1495.61 402.006 1518.8 395.948 1527.42 394.074ZM1936.66 603.866C1936.04 604.836 1942.02 600.029 1943.96 595.925C1945.48 592.765 1939.04 600.252 1936.66 603.866ZM4.10155 1903.66C-0.584732 1905.97 -6.96916 1909.07 -9.93059 1909.88L-8.43303 1909.2C-8.88527 1909.28 -9.22443 1909.3 -9.45241 1909.25C-9.20293 1909.16 -8.90508 1909.04 -8.55847 1908.9L-10.0686 1909.59C-5.53325 1907.55 3.94896 1903.05 4.10155 1903.66ZM-116.335 1914.85C-108.909 1913.77 -91.9071 1913.72 -81.0904 1913.84C-80.8725 1915.26 -109.354 1914.52 -116.335 1914.85ZM197.733 1739.63C198.082 1739.3 206.86 1727.13 204.916 1728.29C202.128 1730.05 194.918 1742.79 197.733 1739.63ZM1956.48 576.814C1959.98 570.086 1949.05 583.671 1945.63 591.217C1943.98 595.121 1956.01 577.962 1956.48 576.814ZM1642.37 377.786C1651.98 376.441 1627.98 377.46 1624.7 378.855C1629.2 378.471 1638.96 378.248 1642.37 377.786ZM1325.39 453.932C1354.65 446.902 1337.57 447.278 1332.65 449.428C1331.95 449.735 1324.69 454.101 1325.39 453.932ZM2000.69 36.2312C2004.34 33.7352 1989.29 40.4907 1987.98 42.3923C1987.14 43.5403 1998.31 37.7931 2000.69 36.2312ZM918.415 648.537C919.473 647.832 920.528 647.131 921.578 646.438C920.813 646.991 919.784 647.681 918.415 648.537ZM1729.7 377.573C1708.29 373.851 1710.59 377.035 1708.75 377.037C1704.75 377.1 1695.42 376.322 1687.9 376.845C1696.5 376.007 1705.12 375.256 1713.76 374.597C1706.9 374.1 1647.58 375.828 1646.34 376.913C1644.64 377.947 1663.28 376.308 1663.82 376.391C1664.61 376.457 1667.69 378.85 1669.41 378.847C1672.25 378.605 1721.7 376.734 1729.7 377.573ZM1384.79 433.894C1380.07 435.047 1378.49 434.477 1376.42 435.387C1375.72 435.698 1375.9 436.661 1373.48 437.698C1377.28 436.407 1380.99 435.16 1384.79 433.894ZM1767.83 374.159C1773.82 375.43 1746.86 374.582 1745.97 374.513C1741.35 373.667 1762.94 373.04 1767.83 374.159ZM1538.11 392.714C1539.17 392.403 1561.11 389.205 1560.01 388.741C1555.82 388.632 1525.44 394.276 1538.11 392.714ZM1370.45 438.735C1363.5 440.825 1350.26 444.16 1352.2 445.07C1352.21 445.067 1352.22 445.064 1352.23 445.06C1358.27 442.93 1364.34 440.821 1370.45 438.735ZM1967.87 551.865C1966.41 553.954 1965.22 555.584 1964.31 556.858C1961.41 560.6 1962.43 560.28 1965.08 557.317C1967.03 554.904 1969.65 551.155 1972.08 546.356C1973.18 541.268 1969.71 549.362 1967.87 551.865ZM1941.83 590.138C1940.04 593.219 1913.5 626.655 1918.16 622.421C1920.54 620.916 1935.03 601.046 1935.47 600.209C1936.55 598.933 1933.2 605.917 1940.44 595.444C1939.65 595.777 1942.73 589.1 1941.83 590.138ZM1960.05 562.368C1951.37 573.154 1952.37 577.532 1957.93 568.71C1960.08 565.256 1961.28 560.824 1960.05 562.368ZM1980.47 495.853C1980.1 501.518 1978.34 517.641 1975.8 529.63C1980.37 514.054 1981.31 498.723 1981.12 485.313C1980.47 483.77 1980.93 490.758 1980.47 495.892C1980.47 495.879 1980.47 495.866 1980.47 495.853ZM-194.751 1923.32C-184.38 1924.24 -208.279 1924.6 -209.292 1924.37C-212.294 1923.61 -199.391 1922.9 -194.751 1923.32ZM2090.75 29.9036C2093.57 29.4422 2095.84 30.0252 2101.73 27.6499C2095.36 28.5534 2088.87 29.5652 2082.5 30.5995C2078.35 34.0488 2087.56 30.4271 2090.75 29.9036ZM2116.31 30.4002C2115.45 30.697 2121.05 32.413 2109.27 33.4964C2101.29 34.0912 2142.25 21.6348 2150.26 21.8567C2142.04 24.1378 2123.71 27.9021 2116.31 30.4002ZM2190.04 30.5344C2190.63 30.5698 2176 32.1395 2174.14 32.3837C2164.72 32.6725 2188 28.7701 2190.04 30.5344ZM2141.65 37.5165C2149.04 36.4293 2133.12 40.5333 2128.27 41.4891C2127.63 41.0145 2140.57 37.635 2141.65 37.5165ZM-89.5901 1969.12C-81.2966 1971.24 -73.9505 1966.56 -86.6449 1967.56C-87.2453 1967.61 -89.9544 1969.02 -89.5901 1969.12ZM2176.09 34.9042C2169.04 35.2069 2184.57 32.7171 2188.75 33.1176C2189.28 33.555 2177.26 34.7282 2176.09 34.9042ZM-83.7393 1974.23C-72.72 1975.73 -76.6478 1970.54 -78.0064 1970.34C-83.7018 1969.55 -103.031 1971.66 -107 1972.17C-77.991 1971.3 -88.9185 1973.52 -83.7393 1974.23ZM-32.7256 1970.52C-24.0654 1969.79 -40.6929 1969.53 -49.4548 1970.11C-51.3402 1970.25 -52.9961 1970.45 -53.8558 1970.72C-52.754 1970.7 -51.1327 1970.68 -49.4476 1970.68C-43.4377 1970.69 -35.074 1970.73 -32.7256 1970.52ZM34.6232 1953.37C39.6716 1951.1 54.6982 1943.86 56.7901 1941.77C51.4353 1944.84 36.3433 1951.6 34.6232 1953.37ZM47.0092 1949.86C55.3242 1946.82 55.6923 1942.96 47.1523 1948.48C46.822 1948.69 46.6953 1949.95 47.0092 1949.86ZM91.3112 1926.3C97.0802 1924.18 101.064 1917.77 92.8978 1923C90.4688 1924.53 90.6975 1926.51 91.3112 1926.3ZM-69.9289 1979.76C-61.8786 1980.25 -51.4646 1977.91 -68.7073 1977.81C-62.6746 1977.42 -56.597 1977.02 -50.5232 1976.61C-73.2063 1975.58 -71.4328 1978.64 -77.9295 1978.56C-86.9754 1978.43 -86.267 1975.84 -84.4715 1975.03C-91.8832 1976.65 -123.294 1976.76 -141.452 1977.07C-125.499 1977.72 -99.5911 1978.82 -83.8118 1979.16C-79.3242 1979.26 -74.9099 1978.53 -71.0879 1978.58C-64.9144 1978.67 -70.3781 1979.72 -69.9608 1979.76C-69.9501 1979.76 -69.9395 1979.76 -69.9289 1979.76ZM144.383 1886.15C158.186 1876.26 148.028 1880.87 141.103 1887.44C140.822 1887.74 144.033 1886.4 144.383 1886.15ZM2194.23 43.353C2178.41 42.8345 2191.17 38.2469 2149.91 48.9491C2167.39 43.3382 2150.61 47.3927 2153.95 45.9211C2156.7 44.6891 2167.11 43.2547 2160.89 43.192C2164.97 43.0764 2175.77 41.3612 2184.76 40.7773C2189.25 40.4599 2193.26 40.4646 2195.25 40.6586C2196.24 40.7446 2196.7 40.8586 2196.52 40.8344C2196.45 40.8264 2196.2 40.7697 2195.95 40.7002C2195.67 40.6211 2195.38 40.526 2195.26 40.4928C2195.28 40.4997 2195.29 40.5065 2195.31 40.5132C2195.01 40.4317 2194.88 40.6018 2195.03 40.9713C2195.16 41.3335 2195.61 41.8813 2195.85 42.3099C2196.43 43.2048 2196.17 43.6646 2194.23 43.353ZM38.3748 1960.71C45.1333 1961.61 44.3587 1955.24 55.7404 1952.91C64.95 1943.83 33.6068 1962.94 18.4781 1968.64C18.2635 1968.75 17.6002 1969.04 17.381 1969.14C13.8906 1970.37 10.7762 1971.13 9.17986 1971.01C12.3318 1969.87 14.8095 1968.83 16.8684 1967.95C17.0773 1967.85 17.7095 1967.58 17.9139 1967.47C37.4551 1958 27.7978 1961.74 17.4418 1966.5C17.2458 1966.6 16.6396 1966.86 16.4393 1966.95C10.5581 1969.47 2.1685 1972.28 -0.752899 1973.34C-3.86705 1974.35 -0.391937 1975.21 12.5186 1971.84C-10.0236 1978.8 -14.0641 1976.91 -12.7977 1977.85C-11.7705 1978.3 -5.75037 1978.3 -9.20085 1979.19C-17.3947 1981.43 -37.594 1980.97 -36.4423 1982.36C-36.4312 1982.36 -36.4201 1982.36 -36.409 1982.36C-24.5138 1981.76 -10.4343 1982.19 7.12511 1976.47C-4.6821 1977.72 8.68643 1974.07 18.0409 1970.67C18.2733 1970.57 18.9768 1970.26 19.2043 1970.14C23.1761 1968.66 27.3228 1967.36 30.0586 1966.91C32.8332 1964.86 35.5992 1962.8 38.3748 1960.71ZM-37.0987 1977.67C-36.4676 1977.68 -29.6927 1977.49 -22.6373 1976.9C-15.6666 1976.39 -7.79303 1974.93 -8.93152 1974.77C-15.1154 1976.08 -52.1427 1977.05 -37.0987 1977.67ZM-149.602 1978.96C-140.465 1978.96 -126.323 1979.54 -121.342 1978.37C-130.506 1978.38 -144.624 1977.8 -149.602 1978.96ZM263.268 1757.13C269.126 1746.57 248.343 1777.29 255.232 1768.99C255.601 1768.6 263.008 1757.66 263.268 1757.13ZM62.4137 1947.68C73.8542 1942.79 66.9218 1942.37 59.3465 1947.52C58.9055 1947.82 61.8871 1947.9 62.4137 1947.68ZM2180.83 44.4516C2180.63 44.9635 2151.71 49.3544 2146.34 50.9283C2149.27 48.99 2181.91 42.764 2180.83 44.4516ZM-165.684 1982.38C-147.518 1985.66 -122.805 1981.84 -120.104 1981.91C-117.425 1981.99 -121.626 1983.43 -121.016 1983.47C-119.62 1983.55 -90.9194 1983.35 -89.5321 1983.24C-88.5377 1983.16 -93.7338 1981.16 -87.8095 1980.51C-99.3958 1981.72 -151.805 1981.08 -154.514 1981.29C-156.621 1981.47 -140.744 1983.58 -165.653 1982.38C-165.663 1982.38 -165.674 1982.38 -165.684 1982.38ZM-113.341 1982.34C-120.507 1981.51 -100.399 1981.36 -95.5315 1981.65C-84.7351 1982.31 -112.424 1982.44 -113.341 1982.34ZM-64.9039 1982.9C-63.5695 1983 -55.8017 1983.05 -49.2953 1982.84C-44.6851 1982.7 -40.5708 1982.43 -39.8516 1982.02C-42.5016 1981.75 -45.8796 1981.66 -49.3099 1981.68C-58.8301 1981.72 -68.7427 1982.6 -64.9039 1982.9ZM158.672 1882.36C162.799 1878.66 174.685 1868.91 174.766 1867.68C170.737 1871.6 158.802 1881.2 158.672 1882.36ZM2084.09 75.7913C2091.4 73.8745 2075.08 80.0631 2069.95 82.159C2069.46 81.6644 2083.49 75.8074 2084.09 75.7913ZM67.9913 1953.6C70.247 1952.72 105.99 1932.76 125.699 1916.15C131.344 1911.58 135.589 1907.98 137.287 1906.48C135.458 1907.78 131.064 1911.21 125.294 1915.64C105.476 1931.54 70.3007 1950.93 68.425 1952.08C67.6779 1952.59 67.5947 1953.77 67.9913 1953.6ZM-83.1118 1988.68C-89.0794 1989.92 -92.9735 1988.48 -93.745 1988.47C-101.102 1988.31 -116.406 1988.62 -113.058 1987.45C-100.04 1987.9 -71.2455 1986.22 -83.1118 1988.68ZM165.883 1883.32C182.788 1867.78 148.876 1895.94 154.001 1893.01C154.337 1892.85 164.146 1884.95 165.883 1883.32ZM61.4227 1957.5C59.2359 1959.3 40.5885 1968.9 22.6914 1977.35C22.4016 1977.5 21.5056 1977.89 21.2095 1978.03C12.7077 1982 -2.72549 1986.34 -11.6371 1986.98C-20.8207 1987.95 -26.3725 1987.96 -29.0815 1988.09C-19.1049 1985.61 -9.06848 1987.76 10.3473 1981.42C15.0099 1979.75 13.4112 1979.48 13.9161 1979.3C21.0692 1976.42 16.1209 1979.34 20.2534 1977.64C20.3707 1977.59 20.5954 1977.49 20.9158 1977.35C21.2059 1977.22 22.0842 1976.83 22.3682 1976.69C27.7112 1974.22 66.8114 1953.39 61.4227 1957.5ZM-86.516 1989.53C-90.1764 1990.26 -130.789 1990.65 -132.408 1990.46C-144.633 1989.11 -89.703 1989.34 -86.516 1989.53ZM67.7128 1955.97C62.1465 1961.5 31.6763 1975.21 51.6153 1963.99C53.5143 1962.92 62.2219 1959.46 67.7128 1955.97ZM165.356 1886.44C166.281 1885.83 184.446 1869.98 184.277 1869.1C181.611 1871.49 155.247 1894.45 165.356 1886.44ZM157.432 1896.28C157.86 1895.88 152.766 1898.58 161.391 1891.38C162.097 1890.76 164.414 1890.79 174.658 1880.93C176.735 1878.93 179.402 1875.2 179.122 1875.37C166.814 1883.9 135.758 1915.51 157.432 1896.28ZM-87.2564 1990.71C-85.0602 1991.31 -90.3401 1993.14 -95.1153 1992.24C-97.1558 1991.85 -93.3501 1990.76 -87.2564 1990.71ZM221.198 1832.6C212.499 1844.3 242.516 1809.95 243.301 1807.66C242.051 1808.52 222.252 1831.6 221.198 1832.6ZM2070.6 90.4429C2070.6 90.4391 2070.61 90.4353 2070.62 90.4315C2061.54 94.3096 2066.71 90.9482 2066.29 91.1002C2046.34 99.1929 2052.36 98.831 2049.44 100.53C2043.18 104.454 2043.02 101.606 2032.47 108.727C2050.01 97.1966 2033.67 106.991 2032.71 106.532C2028.87 104.374 2057.98 94.545 2066.53 90.0855C2067.75 89.3758 2057.95 92.7401 2061.03 90.9031C2071.46 84.3551 2104.74 77.5673 2070.6 90.4429ZM-98.7989 1992.42C-104.027 1993.52 -143.612 1992.54 -133.119 1991.64C-131.442 1991.5 -91.1084 1990.84 -98.7989 1992.42ZM1079.27 646.775C1071.51 651.942 1091.02 642.835 1094.26 640.377C1095.85 639.136 1082.69 644.484 1079.27 646.775ZM1216.98 584.583C1227 579.976 1236.19 571.83 1223.79 577.833C1222.48 578.468 1215.61 584.598 1216.98 584.583ZM675.738 1024.88C682.743 1015.64 680.205 1014.9 675.953 1022.23C674.448 1024.83 675.513 1025.18 675.738 1024.88ZM965.257 715.284C966.254 714.718 977.199 707.484 976.507 707.243C972.162 709.549 958.779 718.78 965.257 715.284ZM674.174 1028.29C677.269 1022.06 669.685 1031.36 667.046 1039.59C669.023 1035.86 673.893 1028.86 674.174 1028.29ZM93.3861 1947.96C98.3806 1943.83 114.209 1934.12 122.977 1927.25C124.804 1927.95 99.7005 1944.28 93.3861 1947.96ZM1173.65 602.515C1182.72 597.214 1162.07 605.996 1164.48 606.289C1164.77 606.225 1173.29 602.722 1173.65 602.515ZM496.182 1357.64C499.059 1350.38 486.66 1371.73 491.075 1366.38C491.278 1366.11 496.021 1358.05 496.182 1357.64ZM446.04 1452.82C448.989 1447.74 460.514 1425.41 455.29 1433.72C454.486 1435 445.565 1452.12 446.04 1452.82ZM2049.36 101.686C2052.6 101.517 2037.47 109.265 2035.22 110.337C2034.31 110.7 2045.15 101.772 2049.36 101.686ZM714.704 960.868C717.715 955.724 726.276 943.078 727.171 940.409C723.331 946.473 712.437 961.677 714.704 960.868ZM1130.66 623.184C1139.49 620.501 1153.43 613.61 1149.1 613.486C1133.69 621.12 1151.77 614.123 1130.66 623.184ZM656.333 1062.67C658.794 1058.56 658.975 1054.38 658.627 1054.81C655.271 1058.96 653.325 1066.47 656.333 1062.67ZM868.075 787.376C868.82 787.792 880.25 778.084 878.384 778.925C877.727 779.2 867.507 786.963 868.075 787.376ZM256.377 1797.7C261.617 1791.87 248.062 1811.5 242.781 1816.45C239.747 1818.41 255.866 1798.51 256.377 1797.7ZM591.093 1180.39C591.841 1181.55 602.76 1159.84 597.338 1167.78C595.992 1169.74 590.857 1179.96 591.093 1180.39ZM483.153 1387.95C489.451 1372.73 456.677 1433.38 466.651 1418.15C467.366 1417.05 482.573 1389.31 483.153 1387.95ZM430.355 1487.46C431.811 1485 434.767 1488.17 427.981 1497.82C427.09 1499.09 429.461 1492.18 428.656 1493.2C428.2 1493.77 415.873 1516.26 415.471 1517.24C414.994 1518.39 416.837 1517.68 416.375 1518.89C415.857 1520.22 408.668 1531.93 404.661 1539.31C404.339 1539.9 404.036 1540.47 403.759 1541C396.635 1554.65 396.729 1556.82 396.19 1557.86C394.448 1561.22 390.928 1566.3 387.423 1573.02C374.105 1598.56 355.099 1636.02 340.222 1661.89C336.233 1669.08 331.839 1677.18 328.053 1683.35C332.301 1675.72 336.266 1667.89 339.554 1661.54C347.272 1647.12 355.9 1629.88 364.01 1613.98C362.413 1621.93 380.716 1578.38 370.229 1604.02C373.175 1597.77 388.82 1567.28 403.539 1538.72C416.175 1514.21 428.211 1491.08 430.34 1487.49C430.345 1487.48 430.35 1487.47 430.355 1487.46ZM1257.44 568.579C1252.9 571.644 1272.12 563.748 1281.31 559.241C1283.7 558.061 1285.4 557.097 1285.84 556.569C1284.93 556.874 1283.19 557.546 1280.99 558.432C1272.71 561.74 1258 568.202 1257.44 568.579ZM1113.33 638.69C1110.57 640.379 1109.06 644.14 1093.47 650.713C1093.46 650.72 1093.44 650.727 1093.43 650.735C1088.87 652.665 1093.54 649.47 1092.63 649.679C1092.3 649.735 1078.04 655.72 1089.26 649.564C1106.4 640.234 1091.82 650.497 1101.06 645.732C1102.17 645.129 1119.05 634.867 1117.89 635.112C1117.77 635.13 1112.62 638.087 1111.69 638.415C1108.16 639.644 1109.38 638.069 1108.9 638.27C1107.3 638.903 1080.34 654.589 1075.8 655.66C1074.21 655.875 1119.2 631.439 1121.16 630.873C1122.35 630.426 1122.94 632.775 1124.21 632.398C1124.84 632.183 1142.91 622.263 1145.43 621.313C1146.15 621.03 1146.71 620.832 1147.13 620.693C1144 621.384 1160.83 613.332 1160.68 614.34C1160.52 614.763 1148.87 620.152 1148.44 620.311C1148.24 620.377 1148.07 620.423 1147.92 620.474C1150.65 620.031 1111.73 639.305 1120.73 636.332C1109.84 642.65 1121.45 633.785 1113.33 638.69ZM1060.64 668.156C1061.66 667.313 1062.67 666.477 1063.69 665.64C1044.72 676.685 1022.17 688.125 1000.79 701.157C995.656 704.295 1001.69 702.201 996.121 705.37C995.816 705.544 995.478 705.733 995.103 705.94C989.263 709.146 982.302 711.887 985.193 709.691C985.648 709.348 990.332 706.792 995.291 704.022C998.311 702.335 1001.45 700.555 1003.66 699.178C1020.72 688.6 1015.76 690.125 1016.74 689.481C1017.85 688.773 1029.24 683.176 1035.29 679.697C1050.42 670.99 1057.01 666.362 1078.64 655.949C1066.85 663.251 1074.4 661.282 1060.64 668.156ZM545.894 1273.14C546.221 1274.28 538.695 1286.98 536.309 1291.77C535.972 1290.65 543.5 1277.93 545.894 1273.14ZM1738.21 550.214C1737.08 549.21 1738.29 553.48 1740.14 557.156C1741.96 560.845 1744.27 563.887 1743.28 561.313C1742.74 560.209 1739.03 552.608 1738.21 550.214ZM1809.19 594.068C1811.04 593.741 1808.14 593.645 1805.09 593.635C1802.02 593.636 1798.86 593.664 1798.87 594.182C1798.73 594.6 1808.54 594.235 1809.19 594.068ZM831.029 827.417C830.815 827.63 829.133 829.085 827.28 830.676C824.407 833.144 821.06 836.012 820.864 836.135C817.788 838.075 822.021 833.956 826.607 829.927C832.287 824.933 838.373 820.179 831.029 827.417ZM1893.71 507.005C1893.14 509.934 1894.53 507.48 1895.36 503.939C1896.2 500.431 1896.34 495.459 1895.4 499.452C1895.35 499.646 1895.04 501.793 1894.63 503.563C1894.23 505.361 1893.74 506.857 1893.71 507.005ZM1897.84 487.485C1897.73 487.285 1897.09 486.586 1896.28 484.682C1895.47 482.832 1894.99 480.121 1895.02 478.919C1895.09 479.664 1895.16 480.104 1895.23 480.133C1895.35 480.176 1895.43 479.714 1895.48 478.892C1895.74 480.128 1896.39 482.941 1897.14 484.702C1897.88 486.519 1898.17 487.109 1897.84 487.485ZM659.143 1068.02C661.294 1067.28 649.598 1085.69 645.989 1092.59C643.802 1093.38 655.546 1074.73 659.143 1068.02ZM730.655 950.756C683.459 1028.61 691.042 1009.52 732.967 945.851C733.85 946.283 733.67 945.975 730.655 950.756ZM669.862 1051.09C670.726 1047.62 676.205 1038.68 679.807 1032.65C679.77 1034.04 672.295 1046.47 669.862 1051.09ZM1732.38 520.569C1733.83 523.811 1736.04 535.649 1737.08 541.236C1737.22 542.527 1737.19 543.12 1736.85 542.461C1736.81 542.38 1736.69 541.997 1736.52 541.39C1734.68 535.425 1731.43 519.255 1732.38 520.569ZM826.186 833.51C828.603 833.245 808.398 850.912 807.076 851.904C800.249 856.471 824.41 835.368 826.186 833.51ZM596.707 1184.43C595.401 1189.3 588.217 1201.44 583.936 1209.43C585.011 1205.31 593.075 1191.14 596.707 1184.43ZM628.579 1127.52C628.307 1128.11 622.25 1138.98 621.912 1139.49C615.973 1148.01 633.305 1116.89 628.579 1127.52ZM2086.88 95.6382C2086.61 95.7464 2079.38 98.6263 2079.09 98.7381C2072.22 100.353 2093.9 91.7845 2086.88 95.6382Z" fill="#DCEBE5"/>
</svg>
