<svg preserveAspectRatio="xMidYMid meet" viewBox="187.41258741258744 0 825.1748251748252 795.1999999999999" xmlns="http://www.w3.org/2000/svg" version="1.0" style="max-height: 500px" width="825.1748251748252" height="795.1999999999999">

<g stroke="none" fill="#000000" transform="translate(0.000000,1400.000000) scale(0.100000,-0.100000)">
<path d="M4422 13630 c-178 -23 -343 -77 -469 -156 -137 -85 -404 -375 -515&#10;-560 -89 -148 -159 -355 -190 -559 -28 -192 -11 -514 43 -773 l19 -95 -52 -61&#10;c-29 -34 -126 -138 -216 -232 -204 -214 -288 -319 -385 -482 -405 -679 -467&#10;-1401 -171 -1972 237 -455 688 -797 1274 -965 69 -20 127 -41 129 -47 13 -37&#10;141 -287 184 -358 125 -208 318 -430 488 -562 441 -344 991 -450 1570 -303&#10;547 139 1073 500 1462 1003 66 86 83 103 101 98 68 -19 226 -46 320 -55 523&#10;-51 1020 98 1343 402 363 344 475 850 303 1379 -91 276 -243 509 -513 784&#10;l-158 162 30 113 c66 253 91 444 91 697 -1 428 -94 738 -310 1034 -103 140&#10;-454 463 -624 573 -249 162 -533 245 -941 276 -320 24 -630 -5 -1053 -98 -18&#10;-5 -41 14 -124 101 -312 329 -707 557 -1103 636 -125 25 -407 35 -533 20z&#10;m468 -117 c269 -43 568 -175 817 -362 98 -74 315 -279 310 -294 -1 -5 -56 -29&#10;-122 -52 l-118 -44 -32 27 c-17 15 -66 57 -109 94 -222 191 -523 338 -788 384&#10;-116 20 -352 15 -443 -10 -171 -47 -295 -116 -416 -233 -145 -140 -252 -318&#10;-323 -540 -49 -152 -68 -279 -68 -448 1 -386 138 -785 407 -1186 164 -244 370&#10;-478 564 -639 49 -41 88 -79 87 -84 -5 -19 -141 -164 -155 -165 -8 -1 -44 23&#10;-80 53 -346 280 -635 644 -827 1041 -180 374 -251 678 -241 1040 9 343 92 615&#10;274 890 80 120 245 290 351 359 252 166 568 224 912 169z m84 -376 c121 -32&#10;295 -115 416 -198 88 -60 280 -232 270 -242 -3 -2 -434 -210 -959 -462 -715&#10;-343 -955 -454 -961 -444 -13 21 -25 174 -23 304 6 547 310 959 783 1060 108&#10;23 351 14 474 -18z m2376 -646 c357 -63 641 -209 880 -450 192 -194 321 -440&#10;377 -716 22 -112 25 -440 5 -555 -14 -77 -41 -192 -47 -198 -2 -2 -43 19 -90&#10;48 -364 214 -789 362 -1225 425 -102 14 -317 35 -371 35 -26 0 -28 3 -44 93&#10;-103 571 -181 850 -313 1117 -37 74 -68 138 -70 142 -7 14 227 61 408 82 88&#10;10 380 -3 490 -23z m-989 -130 c73 -82 245 -551 293 -796 102 -519 124 -1140&#10;56 -1540 -35 -202 -105 -368 -245 -580 -111 -167 -274 -377 -288 -368 -18 10&#10;-171 115 -180 124 -5 4 22 49 60 100 290 392 383 602 429 964 21 159 24 556 6&#10;725 -51 476 -182 933 -362 1260 -56 102 -53 118 30 141 36 10 87 17 115 15 44&#10;-3 54 -8 86 -45z m-364 -105 c90 -103 252 -495 297 -721 15 -77 66 -414 66&#10;-439 0 -10 -42 -14 -162 -19 -266 -10 -430 -48 -638 -148 -236 -114 -404 -243&#10;-667 -513 -90 -91 -166 -166 -169 -166 -10 0 -139 104 -233 189 -207 186 -440&#10;490 -582 760 -24 46 -39 85 -34 88 6 2 469 231 1030 508 561 277 1027 504&#10;1037 504 9 1 34 -19 55 -43z m-2457 -1353 c47 -91 192 -309 278 -416 159 -200&#10;323 -369 561 -581 31 -27 41 -43 35 -51 -5 -7 -54 -66 -109 -131 -243 -289&#10;-401 -558 -464 -794 -11 -41 -29 -167 -41 -280 -20 -194 -33 -300 -46 -362 -4&#10;-18 -12 -28 -24 -28 -9 0 -84 34 -166 75 -315 158 -525 361 -660 640 -163 338&#10;-176 709 -37 1109 69 199 203 433 348 606 71 84 267 280 281 280 5 0 25 -30&#10;44 -67z m3682 37 c726 -105 1376 -419 1850 -893 275 -275 455 -576 535 -892&#10;31 -124 42 -349 24 -476 -71 -491 -478 -876 -1056 -999 -247 -53 -808 -29&#10;-837 36 -22 48 84 176 159 190 47 10 79 9 263 -1 164 -9 260 1 421 41 345 87&#10;616 287 730 540 109 240 98 537 -30 833 -109 255 -315 516 -565 717 -458 369&#10;-1110 627 -1705 673 -68 6 -127 14 -131 18 -4 4 -11 62 -14 127 l-7 119 110&#10;-6 c61 -4 175 -16 253 -27z m-832 -467 c0 -405 -134 -755 -422 -1110 -33 -40&#10;-62 -73 -65 -73 -6 0 -779 574 -802 596 -12 10 0 31 71 126 328 435 607 579&#10;1161 596 l57 2 0 -137z m775 112 c363 -50 773 -190 1124 -384 72 -40 131 -74&#10;131 -76 0 -11 -944 -1922 -955 -1934 -56 -58 -365 139 -957 611 l-237 189 65&#10;77 c35 42 102 133 149 202 237 354 365 753 382 1199 l6 144 96 -7 c53 -4 141&#10;-13 196 -21z m-1335 -1391 c952 -761 1191 -936 1426 -1050 131 -64 135 -71 85&#10;-160 -28 -48 -92 -114 -110 -114 -15 0 -242 140 -410 253 -242 163 -471 337&#10;-1006 766 -425 341 -762 601 -908 700 l-47 32 62 77 c90 113 110 133 122 123&#10;6 -4 360 -287 786 -627z m3147 421 c131 -161 236 -377 274 -559 24 -114 25&#10;-290 3 -389 -21 -94 -90 -236 -153 -313 -64 -79 -161 -152 -284 -214 -122 -61&#10;-199 -85 -352 -105 -266 -35 -520 -30 -543 11 -8 15 113 258 725 1453 l155&#10;303 55 -53 c30 -30 84 -90 120 -134z m-3782 -386 l415 -311 -33 -45 c-68 -95&#10;-198 -243 -288 -326 -219 -204 -442 -325 -687 -371 -120 -23 -303 -31 -324&#10;-14 -13 10 -20 42 -29 134 -33 340 73 687 306 999 79 106 202 245 216 245 5 0&#10;196 -140 424 -311z m914 -704 c56 -41 207 -160 337 -265 129 -104 288 -224&#10;352 -267 115 -76 351 -203 378 -203 19 0 18 -15 -3 -31 -9 -8 -76 -82 -148&#10;-164 -185 -211 -325 -331 -529 -454 -157 -95 -355 -173 -540 -213 -138 -30&#10;-428 -32 -555 -4 -271 59 -477 171 -671 366 -96 96 -216 254 -264 347 -21 42&#10;-21 43 13 43 41 0 192 27 286 51 261 67 493 185 723 370 105 86 310 294 407&#10;416 64 80 83 99 97 92 9 -5 62 -43 117 -84z"/>
<path d="M1047 3285 c-386 -73 -649 -414 -707 -915 -18 -151 -8 -456 19 -591&#10;53 -267 152 -457 315 -605 231 -212 643 -256 956 -102 120 58 237 176 302 304&#10;46 89 98 243 98 290 l0 24 -184 0 -184 0 -12 -47 c-48 -195 -170 -308 -358&#10;-335 -351 -49 -569 195 -613 682 -12 136 -6 296 17 430 66 389 290 598 590&#10;552 176 -28 308 -153 360 -341 l17 -61 187 0 187 0 -9 58 c-40 271 -212 503&#10;-444 602 -137 59 -382 84 -537 55z"/>
<path d="M4877 3285 c-367 -70 -607 -358 -693 -830 -25 -141 -25 -489 0 -630&#10;70 -385 227 -629 490 -762 230 -116 569 -105 784 24 233 141 380 390 444 753&#10;20 115 17 510 -5 627 -83 440 -293 709 -627 803 -100 28 -286 35 -393 15z&#10;m255 -316 c88 -19 157 -58 228 -128 123 -124 194 -318 208 -569 21 -400 -46&#10;-672 -207 -833 -113 -113 -236 -154 -389 -131 -192 30 -329 162 -406 392 -75&#10;226 -75 654 0 880 97 290 318 441 566 389z"/>
<path d="M10648 3290 c-176 -28 -308 -89 -408 -190 -77 -77 -113 -141 -140&#10;-246 -54 -211 5 -431 155 -580 88 -87 205 -148 440 -230 397 -138 518 -241&#10;518 -439 0 -205 -138 -315 -393 -315 -148 0 -240 32 -318 110 -54 54 -100 148&#10;-114 233 l-11 67 -176 -2 -176 -3 3 -65 c17 -307 223 -541 549 -622 125 -31&#10;371 -31 488 0 234 63 397 204 472 410 33 88 42 254 20 359 -25 115 -61 178&#10;-157 273 -71 71 -103 94 -195 142 -60 31 -164 75 -230 98 -352 124 -453 183&#10;-506 294 -23 49 -29 74 -29 131 1 118 48 187 165 242 56 26 69 28 185 28 118&#10;0 128 -2 178 -28 108 -57 182 -152 198 -254 l7 -43 178 0 179 0 0 38 c0 65&#10;-29 174 -65 251 -70 146 -237 274 -422 322 -89 23 -303 33 -395 19z"/>
<path d="M2290 2140 l0 -1120 170 0 170 0 0 500 0 500 490 0 490 0 0 -500 0&#10;-500 170 0 170 0 0 1120 0 1120 -170 0 -170 0 0 -465 0 -465 -490 0 -490 0 0&#10;465 0 465 -170 0 -170 0 0 -1120z"/>
<path d="M6160 2140 l0 -1120 165 0 165 0 0 818 0 817 466 -817 467 -818 168&#10;0 169 0 0 1120 0 1120 -165 0 -165 0 0 -817 0 -818 -466 818 -467 817 -168 0&#10;-169 0 0 -1120z"/>
<path d="M8170 2140 l0 -1120 720 0 720 0 0 150 0 150 -547 2 -548 3 -3 338&#10;-2 337 500 0 500 0 0 150 0 150 -497 2 -498 3 0 325 0 325 548 3 547 2 0 150&#10;0 150 -720 0 -720 0 0 -1120z"/>
</g>
</svg>