<svg width="40" height="40" viewBox="0 0 40 40" fill="none" xmlns="http://www.w3.org/2000/svg">
<g clip-path="url(#clip0_522_1305)">
<path d="M23.19 24.3002C22.9228 24.3653 22.6538 24.4231 22.3833 24.4735C20.9157 24.7498 19.4089 24.7441 17.9433 24.4568C17.6867 24.4068 17.3233 24.3185 16.855 24.1935L15.32 26.1885C11.5317 26.0668 10.0917 23.5285 10.0917 23.5285C10.0917 17.8935 12.56 13.3252 12.56 13.3252C15.0283 11.4368 17.3767 11.4885 17.3767 11.4885L18.0483 12.3635C18.1102 12.3548 18.1725 12.3493 18.235 12.3468C19.5153 12.1771 20.8128 12.1827 22.0917 12.3635L22.8283 11.4885C22.8283 11.4885 25.1783 11.4368 27.645 13.3268C27.645 13.3268 30.115 17.8935 30.115 23.5285C30.115 23.5285 28.6567 26.0652 24.8683 26.1885L23.19 24.2985V24.3002ZM16.7933 18.3335C15.7917 18.3335 15 19.0835 15 20.0002C15 20.9168 15.8083 21.6668 16.7933 21.6668C17.7933 21.6668 18.585 20.9168 18.585 20.0002C18.6017 19.0835 17.795 18.3335 16.7933 18.3335ZM23.2067 18.3335C22.2067 18.3335 21.415 19.0835 21.415 20.0002C21.415 20.9168 22.2233 21.6668 23.2067 21.6668C24.2083 21.6668 25 20.9168 25 20.0002C25 19.0835 24.2083 18.3335 23.2067 18.3335ZM35 38.3335L26.6833 30.0002H31.6667V6.66683H8.33333V30.0002H26.6717L27.6217 33.3335H8.33333C7.44928 33.3335 6.60143 32.9823 5.97631 32.3572C5.35119 31.7321 5 30.8842 5 30.0002V6.66683C5 5.78277 5.35119 4.93493 5.97631 4.30981C6.60143 3.68469 7.44928 3.3335 8.33333 3.3335H31.6667C32.5507 3.3335 33.3986 3.68469 34.0237 4.30981C34.6488 4.93493 35 5.78277 35 6.66683V38.3335Z" fill="#030303"/>
</g>
<defs>
<clipPath id="clip0_522_1305">
<rect width="40" height="40" fill="white"/>
</clipPath>
</defs>
</svg>
