<svg width="35" height="35" viewBox="0 0 35 35" fill="none" xmlns="http://www.w3.org/2000/svg">
<path d="M26.25 23.1001C26.25 23.193 26.2131 23.2819 26.1475 23.3475C26.0818 23.4131 25.993 23.4501 25.9 23.4501H21.7C20.5639 23.4473 19.4578 23.8165 18.55 24.5001V13.3C18.55 11.561 19.9609 10.15 21.7 10.15H24.15V8.05005H21.7C20.0471 8.05005 18.4912 8.82799 17.5 10.15C16.5088 8.82799 14.9529 8.05005 13.3 8.05005H6.65V23.1001C6.65 24.4536 7.74648 25.5501 9.1 25.5501H13.3C15.0391 25.5501 16.45 26.961 16.45 28.7001H18.55C18.55 26.961 19.9609 25.5501 21.7 25.5501H25.9C27.2535 25.5501 28.35 24.4536 28.35 23.1001V19.2501H26.25V23.1001ZM13.3 23.4501H9.1C8.90723 23.4501 8.75 23.2928 8.75 23.1001V10.15H13.3C15.0391 10.15 16.45 11.561 16.45 13.3V24.5001C15.5422 23.8165 14.4361 23.4487 13.3 23.4501Z" fill="black"/>
<path d="M26.25 10.5H28.35V16.8H26.25V10.5Z" fill="black"/>
<path d="M28.35 7.35005C28.35 8.75005 26.25 8.75005 26.25 7.35005C26.25 5.95005 28.35 5.95005 28.35 7.35005Z" fill="black"/>
</svg>
