<svg width="1920" height="1995" viewBox="0 0 1920 1995" fill="none" xmlns="http://www.w3.org/2000/svg">
<path d="M171.744 91.0511C173.822 92.6384 182.52 98.1955 186.17 100.772C182.866 96.7243 164.333 85.3714 171.744 91.0511ZM324.934 496.134C325.494 493.216 325.988 490.327 326.42 487.366C326.509 495.773 325.173 506.944 324.218 514.707C324.07 515.986 325.637 512.856 325.195 515.869C324.726 518.882 323.44 518.054 322.446 522.361C321.827 525.075 320.436 532.746 318.22 541.538C317.137 546.3 315.478 550.814 314.356 553.156C307.715 567.39 295.277 579.856 280.757 587.956C278.047 589.474 274.414 590.887 269.456 591.936C286.335 588.352 271.239 594.64 263.538 594.388C262.845 594.388 262.523 593.825 259.801 593.38C256.852 592.87 252.59 592.72 238.625 591.57C238.791 591.602 238.875 591.65 238.784 591.67C238.468 591.725 237.234 591.635 236.519 591.751C235.74 591.847 235.252 592.126 234.585 592.241C232.886 592.106 232.332 593.261 217.693 582.443C227.915 587.9 228.919 587.543 227.199 586.139C225.304 584.603 219.287 580.548 210.492 574.592C209.566 573.965 207.883 572.659 206.089 571.005C204.879 570.774 187.534 551.494 180.244 539.743C177.747 536.024 175.109 529.464 171.888 524.225C169.683 520.641 167.357 518.305 164.145 512.84C164.138 512.828 164.131 512.817 164.125 512.805C160.417 506.249 158.789 498.321 159.91 478.961C159.766 482.12 158.515 485.539 157.602 487.004C156.677 488.555 156.394 488.487 157.18 487.722C155.902 487.706 155.638 487.242 155.383 487.045C155.171 486.817 155.215 486.613 155.828 486.077C156.873 485.061 161.158 482.723 161.524 482.441C163.209 480.84 159.4 482.74 157.244 484.085C156.137 484.759 155.421 485.242 155.107 485.358C154.819 485.46 154.689 485.37 155.436 484.521C160.817 479.824 175.701 472.68 191.552 467.221C184.922 469.91 189.851 468.871 197.363 466.838C197.44 466.952 197.422 467.067 197.88 467.057C198.318 467.052 199.208 466.956 200.317 466.83C202.564 466.569 205.4 466.218 206.711 465.806C205.965 466.9 213.336 466.251 226.106 465.036C251.318 462.396 294.564 458.925 303.459 459.699C306.052 459.944 290.149 461.237 323.628 460.89C325.572 460.883 327.684 460.877 329.978 460.875C334.494 460.873 332.802 459.89 335.173 460.026C336.598 460.108 345.096 463.324 354.316 462.001C357.693 461.626 336.329 458.348 383.383 461.652C371.729 462.895 399.085 464.428 424.72 466.842C440.815 468.3 456.121 470.289 462.017 470.976C458.959 470.892 455.929 470.831 452.938 470.798C467.646 471.95 470.521 473.632 474.125 474.163C475.971 474.448 477.963 474.743 480.125 475.042C494.552 476.777 506.601 478.534 518.216 481.375C531.43 484.635 532.423 486.536 545.486 489.599C546.838 489.918 548.361 490.26 550.08 490.63C548.494 490.382 546.927 490.14 545.406 489.911C542.672 489.487 540.016 489.088 537.37 488.697C539.956 489.326 542.551 489.963 545.224 490.625C554.604 492.945 564.033 495.342 573.4 497.799C546.346 487.923 579.45 499.267 581.603 499.973C585.09 501.032 580.29 498.623 586.183 500.392C586.807 500.592 585.619 501.26 594.682 503.932C613.616 509.575 610.867 507.552 618.854 509.915C619.579 510.146 616.769 510.191 630.391 514.531C673.543 528.617 630.391 513.756 628.735 513.194C626.574 512.422 642.628 513.211 605.197 503.577C617.787 506.795 619.492 505.636 620.893 506.003C622.129 506.302 643.639 513.1 644.749 513.539C655.145 517.379 645.538 515.535 647.53 516.369C649.136 516.995 675.388 523.922 680.311 529.166C693.562 530.382 674.178 524.02 653.612 517.005C650.814 515.422 673.716 522.153 674.877 522.578C704.086 532.358 687.074 529.369 692.937 533.062C695.978 534.995 708.403 537.478 696.717 535.839C722.948 545.256 707.442 538.448 709.194 538.842C711.849 539.466 720.827 543.376 721.982 543.708C723.708 544.195 718.125 541.334 724.859 543.477C725.996 543.845 736.206 549.014 722.195 544.605C740.673 551.131 738.71 551.715 745.775 551.859C756.81 560.775 755.844 552.9 760.907 554.583C774.326 559.106 769.228 560.867 769.862 561.29C770.243 561.541 770.867 561.87 771.697 562.266C780.404 566.326 811.66 578.224 819.61 582.221C817.08 578.361 791 570.113 785.541 567.435C767.376 558.296 812.482 577.132 800.045 568.641C805.425 571.806 810.806 575.006 816.161 578.227C827.388 580.868 812.965 573.583 840.712 586.529C844.6 590.122 820.999 577.606 825.345 581.011C827.93 582.982 844.081 590.275 844.225 590.823C844.34 591.418 829.921 584.41 831.916 586.152C836.332 589.758 890.216 612.5 850.06 593.262C861.371 598.378 868.598 597.981 877.942 603.483C883.934 607.089 846.581 594.572 900.039 618.911C901.872 617.989 879.032 608.388 878.489 608.04C877.745 607.497 883.328 606.136 884.108 606.307C886.937 606.773 940.125 634.813 952.1 639.224C946.754 638.673 992.074 660.599 996.473 663.947C997.667 664.801 992.276 663.298 993.578 664.165C1001.72 669.482 1025.68 680.376 1036.12 686.503C1047.85 693.337 1045.77 693.428 1046.43 693.81C1051.57 696.823 1047.88 693.735 1050.99 695.611C1052.32 696.416 1056.04 698.647 1060.53 701.398C1071.72 708.193 1088.03 718.728 1089.06 719.563C1089.5 719.908 1083.69 717.602 1090.39 722.287C1091.53 723.14 1091.73 721.243 1111.35 735.453C1134.85 752.724 1093.65 725.488 1102.72 733.677C1119.41 742.409 1117.59 743.957 1121.82 746.719C1123.3 747.686 1135.03 753.723 1146.29 762.339C1138.33 755.982 1130.28 749.735 1122.14 743.597C1130.56 749.102 1145.94 760.942 1152.72 765.689C1156.05 768.005 1154.32 764.721 1161.25 770.123C1162.67 771.288 1166.29 778.669 1149.11 763.46C1146.85 763.426 1156.03 769.275 1159.8 772.705C1160.36 773.213 1161.39 776.825 1167.29 779.714C1168.63 780.478 1159.75 764.548 1190.52 795.808C1191.49 796.817 1187.24 794.342 1188.18 795.345C1188.81 795.997 1197.58 802.929 1198.41 803.806C1199.29 804.711 1194.62 801.929 1195.65 803.027C1200.91 808.669 1210.86 812.557 1198.64 802.466C1202.98 805.576 1207.24 808.664 1211.56 811.855C1205.54 810.137 1217.37 817.89 1222.84 822.906C1225.11 824.973 1227.13 826.84 1228.9 828.484C1254.51 852.609 1233.36 835.487 1238.37 841.193C1246.63 850.862 1243.09 841.082 1255.01 854.596C1255.68 855.828 1240.93 842.254 1268.66 870.672C1264.9 866.173 1261.08 861.921 1256.92 857.581C1261.41 858.224 1271.09 873.236 1271.88 874.483C1281.55 887.112 1275.8 878.165 1288.94 897.68C1289.29 898.214 1289.66 898.775 1290.05 899.364C1291.37 901.348 1294.9 905.106 1297.55 909.355C1304.56 920.684 1295.93 908.516 1288.09 898.308C1283.61 892.454 1279.66 887.564 1279.08 887.42C1278.83 887.389 1282.34 892.122 1287.28 898.904C1296.4 911.256 1309 929.426 1309.79 930.367C1314.99 935.99 1296.83 910.751 1301.27 914.876C1303.29 915.854 1343.3 978.892 1351.37 992.173C1360.97 1006.86 1368.01 1012.01 1364.71 1014.13C1370.51 1016.35 1370.57 1021.66 1371.69 1023.52C1385.79 1046.99 1385.8 1047.02 1397.14 1067.73C1399.66 1072.35 1402.79 1075.52 1403.54 1077.26C1403.96 1078.26 1401.9 1077.13 1404.14 1081.92C1405.52 1084.86 1410.87 1094.16 1416.56 1103.86C1423.35 1115.42 1430.62 1127.55 1431.81 1128.95C1434.01 1131.52 1423.12 1112.46 1426.02 1115.39C1433.74 1129.19 1440.74 1142.63 1448.47 1156.66C1451.66 1162.45 1450.74 1159.08 1452.12 1161.6C1452.74 1162.71 1462.98 1183.21 1462.26 1182.49C1460.61 1180.73 1427.28 1118.36 1434.94 1135.4C1436.45 1138.72 1444.09 1148.93 1441.17 1148.24C1471.75 1203.54 1501.87 1259.36 1531.82 1315.27C1516.34 1282.22 1495.89 1246.68 1478.08 1212.96C1475.64 1208.35 1467.12 1192.89 1469.13 1194.25C1484.67 1222.62 1503.06 1258.57 1518.23 1285.79C1518.72 1286.66 1517.91 1282.95 1519.79 1286.18C1523.32 1292.22 1532.45 1313.1 1534.61 1316.3C1535 1316.83 1530.16 1304.75 1532.74 1307.84C1539.37 1315.77 1536.3 1320.3 1540.38 1327.95C1543.56 1333.9 1566.54 1372.78 1570.45 1383.48C1574.59 1394.8 1554.23 1354.4 1554.63 1357.94C1567.69 1385.7 1583.21 1412.5 1596.45 1438.3C1596.68 1438.75 1593.75 1435.3 1596.6 1441.07C1601.56 1451.14 1604.2 1453.14 1606.91 1457.84C1609.88 1463.04 1619.3 1481.61 1621.03 1483.83C1621.25 1484.09 1620.57 1479.71 1620.31 1479.13C1616.66 1470.84 1613.49 1468.72 1613.11 1468.05C1611.63 1465.35 1610.85 1462.31 1609.5 1459.8C1607.24 1455.61 1605.54 1453.75 1602.63 1448.28C1600.62 1444.51 1603.64 1447.59 1601.68 1443.95C1600.98 1442.67 1590.93 1429.53 1592.84 1426.89C1593.35 1426.24 1633.66 1501.87 1652.31 1537.87C1656.9 1546.74 1660.12 1553.07 1661.17 1555.4C1657.99 1549.72 1654.84 1544.1 1651.57 1538.25C1649.28 1534.17 1646.79 1529.7 1644.47 1525.57C1646.76 1529.59 1649.19 1534.19 1651.35 1538.37C1660.06 1555.25 1667.51 1571.49 1670.65 1571.58C1686.1 1600.94 1702.22 1631.51 1717.69 1659.95C1725.28 1674.72 1734.39 1692.92 1743.72 1709.41C1758.82 1736.2 1774.78 1761.95 1792.82 1787.49C1795.81 1791.69 1798.86 1795.88 1801.99 1800.05C1812.32 1813.05 1808.16 1804.7 1825.19 1826.16C1820.05 1821.23 1815.01 1816.19 1810.08 1811.05C1816.29 1818.8 1839.2 1844.71 1855.47 1860.03C1862.06 1866.42 1867.27 1871.27 1869.27 1873.31C1870.17 1874.19 1870.06 1876.98 1881.18 1887.13C1891.09 1896.07 1893.7 1896.26 1899.29 1900.63C1903.97 1904.29 1908.88 1908.84 1910.3 1909.9C1911.38 1910.7 1912.38 1910.33 1915.02 1912.27C1923.35 1918.35 1915.21 1915.14 1925.1 1919.21C1923.19 1917.56 1921.32 1915.92 1919.45 1914.28C1921.59 1915.88 1923.94 1917.57 1926.17 1919.12C1935.16 1925.36 1942.17 1929.22 1929.91 1919.43C1927.24 1917.22 1929.04 1919.75 1927 1918.15C1926.99 1918.14 1926.98 1918.13 1926.96 1918.12C1865.37 1867.11 1901.13 1895.57 1927.51 1917.41C1931.76 1920.86 1935.83 1924.02 1939.32 1926.7C1947.29 1931.71 1988.26 1956.33 1989.73 1956.34C1991.81 1957.02 1985.27 1952.37 1994.91 1956.44C1996.34 1957.16 2022.96 1970.93 2032.62 1975.07C2032.89 1975.21 2033.72 1975.57 2034 1975.7C2038.92 1977.61 2040.29 1977.87 2034.37 1974.85C2034.1 1974.72 2033.29 1974.37 2033.02 1974.23C2032.77 1974.08 2032.51 1973.93 2032.22 1973.76C2028.41 1971.58 2002.15 1959.02 1995.81 1955.51C2005.54 1958.76 2021.29 1967.46 2033.09 1974.1C2033.35 1974.23 2034.16 1974.59 2034.43 1974.71C2043.43 1979.51 2055.61 1983.2 2057.8 1983.42C2082.6 1988.33 2010.94 1969.71 2066.19 1981.94C2101.32 1984.23 2068.79 1983.97 2081.8 1985.51C2085.18 1985.87 2094.74 1985.76 2103.46 1985.71C2113.3 1985.67 2122.5 1985.82 2122.03 1987.22C2133.6 1987.58 2126.84 1986.13 2128.27 1986.04C2129.67 1985.96 2152.45 1986.86 2159.81 1986.32C2160.7 1986.25 2157.89 1984.86 2158.82 1984.75C2160.63 1984.56 2182.51 1984.88 2183.4 1985C2183.96 1985.08 2178.73 1986.28 2180.88 1986.58C2183.38 1986.92 2204.44 1986.66 2205.61 1987.01C2207.24 1987.53 2181.24 1987.16 2185.57 1988.52C2197.56 1988.19 2217.1 1989.1 2224.99 1990.19C2223.05 1989.88 2211.45 1989.83 2207.4 1989.94C2209.31 1991.92 2234.24 1991.9 2225.72 1990.33C2231.14 1991.18 2227.44 1991.62 2230.49 1992.42C2231.29 1992.62 2238.98 1992.66 2240.47 1993.01C2240.66 1993.07 2232.73 1993.82 2234.31 1994.22C2237.19 1994.95 2260.53 1994.79 2262.44 1994.6C2267.81 1994.06 2248.79 1993.4 2247.2 1992.57C2246.97 1992.44 2263.16 1990.8 2263.4 1990.66C2264.35 1989.11 2246.34 1990.22 2248.4 1988.83C2252.86 1988.53 2257.31 1988.24 2261.76 1987.94C2244.59 1986.53 2212.79 1987.25 2204.59 1985.63C2230.08 1986.13 2256.73 1986.07 2256.68 1982.45C2256.66 1980.92 2245.67 1980.03 2246.1 1979.64C2247.71 1978.25 2262.97 1979.76 2263.53 1979.69C2263.99 1979.6 2264.21 1979.52 2264.21 1979.44C2264.21 1979.44 2264.21 1979.44 2264.21 1979.44C2264.2 1978.63 2242.46 1978.04 2241.37 1977.67C2239.54 1977.01 2249.22 1974.3 2249.21 1973.7C2248.88 1973.58 2233.38 1972.94 2238.61 1971.89C2243.9 1970.83 2257.45 1970.81 2257.92 1970.7C2260.51 1970.07 2236.81 1969.49 2236.1 1969.11C2235.72 1968.93 2248.46 1967.77 2248.83 1967.43C2249.15 1967.1 2239.47 1966.37 2235.66 1965.31C2232.82 1964.52 2241.09 1963.92 2239.64 1963.8C2238.6 1963.72 2216.2 1963.73 2215.1 1963.59C2213.45 1963.38 2218.71 1962.44 2217.94 1962.21C2216.86 1961.87 2209.63 1962.21 2210.57 1961.86C2211.27 1961.6 2239.32 1958.38 2239.13 1957.51C2238.82 1956.04 2209.12 1959.42 2236.75 1953.61C2236.94 1953.57 2243.67 1953.99 2243.85 1953.95C2248 1952.88 2226.45 1951.23 2252.81 1951.52C2203.77 1949.66 2246.7 1949.31 2239.45 1946.83C2236.66 1945.87 2217.63 1945.47 2217.56 1945.33C2219.4 1944.12 2225.45 1945.06 2227.52 1944.47C2228.64 1944.14 2211.65 1942.85 2215.47 1942.02C2217.45 1941.6 2235.5 1941.75 2236.25 1941.67C2243.39 1940.88 2234.63 1940.03 2236.2 1939.47C2237.24 1939.1 2248.14 1939.07 2248.42 1939C2248.88 1938.86 2234.09 1937.35 2231 1936.81C2228.66 1936.4 2237.46 1935.76 2235.82 1935.58C2225.97 1934.51 2205.04 1937.23 2225.21 1933.42C2226.45 1933.18 2234.08 1933.28 2234.31 1933.23C2239.03 1932.15 2224.96 1932.06 2222.45 1931.17C2218.14 1929.64 2238.34 1930.5 2221.54 1929.42C2234.14 1928.42 2241.17 1928.47 2255.92 1928.74C2215.07 1927.97 2200.67 1924 2246.01 1924.11C2231.58 1924.17 2233.18 1921.94 2228.88 1921.9C2226.2 1921.88 2205.3 1924.09 2214.88 1919.12C2216.09 1918.5 2228.78 1919.29 2224.81 1918.02C2194.34 1918.33 2224.15 1917.21 2224.19 1917.04C2223.79 1914.12 2149.34 1916.45 2136.63 1916C2121.86 1915.55 2108.77 1913.11 2105.62 1913.06C2105.16 1913.06 2104.75 1913.05 2104.37 1913.05C2095.93 1913.03 2103.73 1914.23 2101.5 1914.61C2100.31 1914.8 2092.25 1914.27 2085.06 1913.5C2077.64 1912.75 2073.09 1911.57 2072.88 1911.58C2070.08 1911.59 2072.56 1913.44 2072.31 1913.46C2070.36 1913.4 2069.15 1913.55 2062.1 1910.45L2063.54 1911.11C2050.62 1904.8 2035.19 1896.67 2029.24 1893.74C2029.89 1893.13 2049.51 1902.99 2037.94 1895.5C2024.6 1886.76 2022.12 1889.79 2021.64 1889.76C2004.04 1880.27 1987.54 1870.27 1973.39 1859.12C1951.54 1841.83 1929.9 1823.21 1910.44 1804.13C1893.37 1787.38 1878.1 1769.8 1864 1750.59C1865.85 1750.48 1893.51 1786.68 1894.91 1786.91C1898.51 1789.3 1874.12 1762.02 1859.38 1740.55C1853.02 1731.65 1847.94 1724.18 1846.16 1721.88C1850.62 1727.86 1855.15 1733.73 1859.73 1739.46C1854.49 1727.99 1836.49 1706.09 1828.03 1689.53C1825.28 1684.22 1831.94 1693.59 1831.88 1693.35C1829.22 1687.12 1823.21 1678.21 1826.16 1685.79C1820.72 1674.65 1819.49 1673.46 1816.5 1668.88C1815.54 1667.39 1814.4 1665.55 1812.92 1662.88C1812.62 1662.32 1816.02 1666.55 1811.68 1657.68C1809.59 1653.6 1798.32 1631.46 1797.39 1627.61C1797.1 1626.23 1806.39 1636.23 1804.15 1639.04C1817.97 1662.31 1806.78 1647.42 1811.72 1656.64C1812.37 1657.79 1812.32 1655.22 1819.02 1667.48C1820.43 1670.04 1822.16 1673.25 1824.31 1677.28C1824.43 1675.34 1822.68 1671.38 1820.29 1666.77C1815.28 1657.2 1807.5 1644.47 1806.13 1641.17C1803.08 1633.81 1813.95 1652.99 1820.93 1666.41C1823.4 1671.21 1825.36 1675.4 1825.84 1677.58C1826.2 1673.01 1827.66 1680.12 1832.79 1688.53C1838.44 1697.71 1836.68 1693.29 1839.71 1698.25C1848.12 1711.74 1843.09 1707.16 1851.55 1717.23C1842.64 1710.9 1855.24 1726.95 1864.42 1737C1866.75 1739.58 1868.85 1741.8 1870.26 1743.27C1868.63 1740.97 1867.02 1738.64 1865.42 1736.29C1857.86 1725.21 1850.53 1713.63 1843.44 1701.85C1844.17 1702.52 1844.9 1703.19 1845.63 1703.85C1843.26 1700.16 1840.93 1696.44 1838.62 1692.7C1838.76 1693.44 1838.91 1694.17 1839.06 1694.91C1828.74 1674.65 1824.64 1670.69 1823.67 1669.11C1823.06 1668.06 1822.44 1666.98 1821.84 1665.91C1813.56 1651.43 1806.09 1636.46 1797 1618.63C1793.15 1611.31 1790.13 1605.85 1786.98 1599.93C1785.2 1596.57 1787.91 1598.27 1773.88 1574.45C1769.47 1566.96 1772.11 1574.76 1767.68 1565.92C1764.96 1553.19 1762.61 1554.72 1760.9 1551.46C1755.94 1542 1753.71 1535.85 1753.27 1534.98C1747.71 1524.06 1739.42 1508.4 1733.01 1495.9C1732.55 1495 1732.1 1494.11 1731.65 1493.23C1731.54 1492.99 1735.93 1499.09 1731.36 1490.99C1729.65 1487.95 1712.01 1463.97 1701.3 1440.09C1704.75 1446.06 1708.04 1451.72 1711.49 1457.69C1707.46 1450.87 1682.77 1400.83 1690.16 1412.39C1694.71 1419.51 1701.46 1438.93 1704.99 1439.55C1695.75 1423.57 1649.57 1332.09 1645.28 1325.39C1644.69 1324.46 1647 1330.88 1646.19 1329.59C1645.58 1328.61 1634.9 1307.7 1633.14 1305.11C1632.09 1303.57 1636.4 1313.02 1635.71 1312.42C1635.17 1311.89 1621.21 1286.11 1621.46 1284.08C1624.4 1290.69 1634.13 1308.39 1630.08 1298.55C1629.55 1297.29 1625.61 1291.38 1624.98 1289.84C1619.1 1275.56 1640.12 1316.4 1643.42 1322.72C1631.36 1296.44 1609.08 1257.71 1594.29 1227.66C1587.13 1216.16 1602.35 1246.08 1594.5 1232.92C1578.2 1205.62 1591.73 1224.83 1591.38 1223.91C1588.55 1216.46 1571.37 1195.18 1574.86 1193.31C1568.91 1183.38 1570.26 1186.98 1563.05 1172.34C1564.3 1174.1 1565.55 1175.86 1566.8 1177.62C1560.36 1160.6 1537.17 1129.68 1538.11 1132.38C1540.75 1139.77 1551.76 1156.41 1552.52 1157.92C1553.64 1160.17 1553.38 1168.19 1569.48 1190.79C1572.39 1201.99 1547.38 1153.18 1557.49 1176.06C1549.89 1161.03 1515.28 1100.76 1511.45 1091.43C1511.01 1090.29 1516.08 1093.94 1506.6 1079.47C1502.09 1072.6 1511.57 1089.97 1509.21 1086.95C1507.47 1084.72 1501.78 1074.87 1493.95 1061.03C1469.68 1017.4 1421.76 934.563 1409.07 915.298C1408.01 913.627 1407.69 914.683 1406.67 913.058C1403.54 908.022 1392.85 889.241 1386.44 880.532C1400.12 898.087 1376.16 862.195 1369.36 853.471C1365.84 848.744 1363.43 845.886 1361.68 844.003C1358.41 840.469 1357.16 839.931 1354.16 836.285C1337.3 813.877 1305.07 777.542 1287.71 766.918C1288.23 766.635 1287.75 765.771 1286.48 764.437C1280.58 758.11 1256.9 741.683 1245.77 732.528C1235.35 723.81 1221.19 709.756 1236.36 720.323C1217.98 705.513 1198.6 689.967 1180.72 676.868C1177.76 674.704 1181.29 678.414 1176.28 674.722C1175.84 674.389 1175.72 673.137 1171.42 669.981C1135.47 644.081 1152.05 658.116 1144.88 653.898C1140.87 651.617 1137.91 649.862 1135.79 648.537C1157.25 662.732 1181.17 680.364 1187.53 685.127C1180.98 682.571 1141.21 651.866 1128.35 644.571C1127.91 644.311 1128.78 646.237 1128.34 645.962C1128.33 645.956 1128.32 645.95 1128.31 645.944C1125.29 644.033 1111.65 635.149 1104.4 630.136C1100.62 627.502 1098.62 625.868 1100.99 626.765C1101.5 626.959 1102.95 627.753 1105.09 629.014C1110.72 632.323 1121.09 638.806 1132.63 646.438C1128.4 643.387 1132.36 644.431 1131.62 643.885C1126.21 639.905 1115.39 633.367 1105.79 627.87C1099.56 624.29 1093.82 621.108 1090.51 619.211C1088.6 618.11 1089.16 617.487 1088.85 617.302C1081.27 613.017 1083.12 616.825 1076.64 610.234C1061.54 604.738 1101.95 625.674 1098.17 625.764C1095.6 625.001 1008.41 575.143 1009.48 573.812C1009.06 573.868 1007.69 573.49 1005.03 572.486C999.13 570.2 974.442 557.286 970.304 554.791C969.615 554.352 970.903 552.502 970.012 552.033C967.802 550.804 936.443 537.344 925.468 530.788C931.818 533.443 938.156 536.128 944.485 538.844C907.031 520.883 913.022 523.202 925.864 528.444C926.492 528.734 927.138 528.945 927.739 529.22C937.658 533.356 950.249 538.95 950.512 538.887C951.632 538.391 887.833 508.175 899.25 515.852C900.88 516.844 930.842 529.792 915.577 524.302C912.921 523.32 894.044 514.202 892.97 513.922C885.856 511.8 926.776 532.238 921.02 531.331C911.614 525.283 898.363 520.021 886.914 514.469C881.707 511.944 880.858 510.348 880.213 510.037C870.564 505.439 875.572 508.944 872.325 507.478C870.591 506.662 852.252 496.009 854.546 500.757C791.452 471.68 838.032 490.559 876.894 507.953C865.124 501.325 840.596 491.51 829.725 486.759C825.825 485.041 828.622 484.941 822.026 482.001C818.982 480.648 813.259 478.311 806.041 475.501C781.133 465.638 737.881 450.93 724.3 446.643C734.833 450.71 731.286 450.802 723.105 447.893C714.853 444.98 722.345 445.776 720.788 445.054C719.155 444.194 680.054 432.144 673.59 430.014C702.752 439.934 695.731 438.958 670.804 431.22C674.342 432.701 677.762 434.156 681.293 435.657C666.847 430.45 635.571 423.071 627.178 420.13C625.863 419.656 630.971 420.037 630.236 419.772C622.886 417.129 597.199 411.125 596.095 410.494C595.18 409.931 606.257 412.043 602.342 410.525C601.54 410.209 590.726 408.721 580.454 405.673C576.666 404.548 579.219 404.192 578.276 403.886C572.287 401.956 573.25 403.092 567.909 402.062C566.083 401.707 563.673 401.145 560.034 400.158C549.231 397.255 541.655 393.621 525.804 390.673C576.587 400.543 535.238 391.009 512.329 386.064C509.254 385.432 510.504 383.931 495.193 382.046C494.181 381.918 493.044 381.777 491.782 381.624C493.012 381.936 494.127 382.22 495.124 382.476C504.036 384.678 508.338 385.891 507.046 385.93C506.033 386.001 500.242 385.129 494.839 384.233C486.306 382.749 472.923 380.162 468.025 379.471C467.37 379.386 466.997 380.511 461.255 379.698C460.769 379.631 461.58 378.92 456.258 378.128C445.72 376.585 438.814 375.797 434.35 375.315C417.542 373.596 435.977 376.144 428.374 376.015C424.278 375.876 400.223 372.749 393.732 372.362C392.247 372.263 392.866 373.13 387.101 372.74C376.899 372.057 367.794 370.743 361.044 370.401C360.257 370.377 360.175 371.637 347.394 370.809C343.801 370.584 339.761 370.018 344.892 369.773C361.939 368.911 393.879 372.73 413.168 373.176C430.773 373.381 375.592 369.11 372.746 369.269C371.699 369.21 382.415 370.409 371.487 369.986C362.16 369.624 345.161 366.712 331.146 367.007C330.606 367.016 327.465 367.472 324.563 367.95C321.737 368.415 319.15 368.9 319.403 368.957C319.568 368.987 321.817 369.07 324.55 369.202C329.542 369.438 336.112 369.869 334.499 370.199C334.279 370.239 328.232 370.139 324.539 370.276C323.257 370.322 322.261 370.393 321.894 370.497C320.147 370.987 315.453 375.924 313.156 376.049C307.237 376.36 311.089 375.225 307.26 375.315C299.038 375.428 270.711 377.526 269.752 375.895C274.434 375.648 279.117 375.424 283.804 375.222C257.714 375.708 268.815 374.737 265.102 374.509C261.121 374.303 262.272 375.756 253.504 376.257C252.021 376.312 229.913 377.192 219.913 377.585C217 377.679 215.181 377.683 215.317 377.526C217.034 377.488 218.545 377.445 219.899 377.396C234.599 376.916 228.17 375.799 229.041 375.702C232.629 375.359 237.273 376.144 242.052 375.882C275.73 374.201 241.693 374.051 249.621 373.276C252.35 373.007 257.846 373.679 259.005 373.591C262.767 373.301 262.794 372.131 265.314 372.139C271.196 372.164 264.395 374.046 264.861 374.118C270.134 374.938 290.667 373.173 277.816 371.675C285.499 370.839 286.444 373.018 292.534 372.043C304.661 370.147 286.465 370.821 281.527 370.674C263.815 370.105 258.647 371.028 233.526 372.083C228.987 372.291 223.949 372.315 219.541 372.34C215.287 372.356 211.607 372.349 209.494 372.482C208.135 372.579 201.408 373.962 193.829 374.99C186.479 375.877 176.377 377.436 174.937 374.903C172.365 375.629 169.409 376.657 166.412 377.947C157.624 382.24 146.275 389.386 137.484 393.232C128.001 397.427 130.056 394.301 129.146 394.623C127.748 395.068 116.011 401.467 111.682 404.038C106.633 406.948 108.692 404.412 100.586 409.98C90.4058 417.296 85.6099 423.451 83.4104 426.7C81.1824 430.084 81.2866 430.969 80.3701 432.313C69.8916 448.736 69.0281 456.607 67.7214 457.941C66.6746 459.702 66.4375 457.065 65.1777 462.059C64.8745 463.41 63.99 467.385 63.6479 473.349C63.3254 480.953 62.3635 496.8 65.2739 515.443C67.8726 534.068 76.4265 553.206 81.5713 561.796C82.0454 562.656 82.4509 563.406 82.7766 564.033C82.4016 563.272 82.0276 562.509 81.6548 561.746C78.7793 556.211 76.2991 550.425 74.2888 544.517C77.3625 550.429 80.2993 556.546 82.8789 561.021C84.6741 564.201 86.0256 566.333 87.075 565.799C84.7419 569.368 97.1431 584.45 100.458 589.396C101.721 591.347 101.089 591.566 102.721 594.004C108.786 603.555 126.018 624.615 131.083 630.014C141.535 641.697 131.588 633.656 120.816 621.993C109.986 610.358 99.0081 595.243 97.4478 593.028C100.471 597.541 110.702 612.664 119.819 624.045C128.924 635.424 135.764 643.06 123.72 631.6C120.096 628.037 116.023 620.437 114.471 618.341C104.038 604.163 111.277 616.016 110.322 615.024C108.635 613.292 103.087 603.263 101.322 600.974C100.755 600.201 103.078 606.175 94.0586 592.944C96.4014 600.131 126.319 637.067 133.171 642.47C133.995 643.342 131.524 641.829 132.188 643.027C133.26 644.222 135.26 648.248 153.553 660.063C155.247 661.016 157.188 662.111 159.456 663.387C158.969 663.378 158.483 663.37 158.001 663.365C172.829 672.511 191.378 689.512 229.144 694.285C230.838 694.45 232.669 694.622 234.5 694.779C233.501 694.443 230.767 693.839 229.228 693.376C226.514 692.82 225.361 692.444 229.285 692.755C230.37 692.802 232.289 692.977 235.453 693.28C244.693 694.095 237.744 694.957 238.576 695.058C241.789 694.021 280.419 704.079 331.078 677.818C376.793 654.214 407.01 602.116 412.004 585.028C413.434 581.364 415.669 575.435 417.614 569.01C420.687 559.462 423.922 547.147 424.164 545.869C427.731 533.854 431.074 489.287 430.319 480.44C430.354 474.926 431.564 480.172 431.417 475.204C431.243 470.624 430.279 475.395 430.196 474.039C429.927 469.681 429.551 454.151 426.927 435.894C423.59 410.769 417.258 377.794 413.303 366.109C417.534 378.269 424.713 432.63 423.471 431.478C423.346 431.248 420.461 418.424 420.373 415.637C418.719 411.382 418.77 395.448 416.332 386.928C416.019 385.948 415.445 390.205 411.573 374.803C410.152 369.455 408.089 355.066 400.874 339.755C399.461 335.771 397.024 328.969 391.798 319.234C374.391 283.749 325.288 227.236 321.991 222.459C321.944 222.224 332.321 233.036 326.132 224.973C317.84 214.362 323.6 225.394 312.823 214.137C312.465 213.768 310.843 212.019 308.413 209.437C299.885 200.096 280.299 181.118 279.51 180.348C270.953 169.919 299.568 195.702 299.144 195.379C298.716 193.912 275.594 171.701 274.405 171.089C273.422 170.371 291.188 189.47 268.487 168.017C271.363 170.145 274.241 172.316 277.084 174.497C266.473 164.266 264.282 164.733 261.53 162.492C252.94 155.651 245.315 146.182 229.644 138.146C225.531 136.056 231.008 141.346 230.481 141.106C225.465 138.664 221.63 132.101 213.719 129.063C213.129 128.888 227.73 140.937 200.837 121.662C202.813 122.798 204.787 123.942 206.771 125.102C204.905 123.46 196.711 117.398 188.629 111.736C181.528 106.743 174.589 101.933 172.818 100.786C162.183 93.8981 170.465 101.393 160.006 94.0316C168.028 96.9511 135.795 74.7946 136.595 77.5515C133.337 72.6144 104.24 55.5993 90.386 47.3199C81.7903 42.0061 64.1218 30.6563 61.1067 29.1802C57.5239 27.3546 57.8567 29.2584 51.2952 26.0926C49.4229 25.2057 30.8403 13.8119 11.4041 7.41844C7.66406 6.15233 -1.07642 5.5199 5.5481 8.84131C16.8481 14.4029 37.8877 22.5352 36.9175 23.8284C36.0381 25.0034 8.95215 11.0134 0.402344 8.35153C-6.15991 6.01523 -11.2104 4.54354 -14.7952 3.63147C-29.6533 0.0325546 -16.7224 5.37538 -17.5662 5.57323C-20.179 6.04874 -38.9292 0.373028 -39.7427 0.307055C-43.1409 -0.156208 -30.0496 4.73263 -30.1536 5.54289C-30.1436 6.56515 -48.8062 3.06175 -44.7673 4.59697C-38.9817 6.70252 -22.0278 10.2498 -21.0703 10.6546C-19.4121 11.3 -18.2451 11.8188 -17.501 12.222C-15.666 13.186 -16.1846 13.4879 -17.8855 13.4428C-21.2329 13.4225 -29.292 12.0996 -32.5208 11.8549C-34.1689 11.7283 -28.1802 14.1482 -29.4893 13.8623C-49.6331 9.50412 -32.5945 9.43739 -45.9326 5.91891C-57.843 2.87964 -43.0503 8.63038 -43.5408 8.60131C-44.1201 8.50179 -58.2908 4.64848 -60.6396 4.63324C-61.6309 4.45122 -26.1646 17.7947 -28.0891 18.7842C-39.5093 14.9687 -51.031 11.3284 -62.6379 7.97359C-64.0483 9.37751 -46.8433 12.7299 -45.2485 13.427C-41.8928 14.7642 -51.7368 12.8807 -51.5276 13.5294C-51.3171 13.9439 -40.4824 18.3421 -50.7629 15.9617C-54.3948 15.1427 -61.428 11.8315 -74.7344 9.85427C-30.2515 23.1683 -61.5391 15.9541 -63.0442 16.1575C-64.5173 16.4077 -43.5522 23.5173 -69.3672 16.4017C-71.3401 19.4378 -69.0417 17.5715 -61.8999 20.0979C-53.0947 23.3193 -74.0498 18.4857 -41.2791 26.9746C-43.502 27.8762 -69.6438 20.5188 -71.136 20.3997C-72.3665 20.202 -66.7334 22.465 -68.8828 22.1868C-94.3125 19.0552 -77.0303 21.8872 -84.5957 22.0934C-85.2861 22.0059 -108.841 17.8338 -91.0828 21.86C-58.9326 29.7047 -45.165 32.1049 -41.1714 38.2245C-65.1362 33.0623 -93.0286 23.3215 -100.378 22.0017C-111.513 19.8155 -100.169 22.9571 -101.591 22.9785C-102.063 22.9442 -111.665 21.1524 -111.789 21.2486C-119.168 23.2136 -69.3254 29.6927 -54.2178 35.3596C-58.4666 34.7307 -62.6995 34.1393 -66.97 33.577C-61.3201 35.1035 -55.8997 36.6387 -50.2998 38.2819C-77.0708 31.9213 -51.3296 38.3322 -45.6392 43.2105C-44.4031 44.2738 -61.2104 38.1192 -42.1411 45.7066C-56.7544 41.8311 -52.2566 43.7621 -65.2273 39.3005C-65.2041 40.3241 -43.5068 47.5991 -30.22 52.6026C-28.2754 53.3303 -26.4746 54.0407 -25.0034 54.6423C-26.9529 54.0351 -28.7441 53.5007 -30.3562 53.0352C-63.7461 43.7116 -43.2148 45.4865 -77.6208 38.5923C-83.9246 35.4591 -66.8594 40.106 -68.2495 39.529C-73.0334 37.3527 -84.9836 35.6127 -98.5454 29.6642C-100.76 28.714 -90.6436 29.0951 -105.167 26.3365C-106.852 25.9951 -116.294 25.8045 -116.169 25.9561C-115.072 27.1354 -105.967 28.2904 -105.599 28.8344C-105.394 29.2563 -115.406 27.2962 -115.518 27.4394C-116.006 28.6591 -107.128 29.3214 -108.479 29.5223C-111.5 29.8345 -147.763 27.0215 -100.667 33.9444C-139.54 25.821 -105.51 30.9835 -90.1965 35.2935C-86.2512 36.3437 -85.4893 37.317 -80.0017 38.9445C-72.9468 41.0427 -64.4199 42.9676 -60.8093 44.1288C-56.896 45.4267 -79.9211 40.7498 -47.1797 49.5682C-64.2251 46.3045 -93.1465 36.7736 -109.576 35.3751C-142.264 32.7247 -87.5969 42.2294 -81.7512 44.8719C-80.248 45.3113 -85.5908 45.0905 -84.6038 45.4001C-82.9426 45.6997 -51.397 53.7722 -48.5452 55.7074C-45.7048 57.4448 -60.0857 52.2825 -61.2427 52.9404C-62.0898 53.1584 -24.5869 65.6684 -45.1807 59.8416C-59.3123 55.7224 -84.7485 46.5454 -89.6636 48.2581C-71.1843 52.7924 -52.5066 58.3793 -33.9441 64.4259C-32.1621 65.0099 -30.292 65.6575 -28.469 66.3214C-30.3604 65.8517 -32.2925 65.4003 -34.1296 65.0148C-43.6445 62.8831 -53.135 60.8914 -62.573 59.0905C-52.981 61.9319 -43.8315 64.5694 -34.853 67.3113C-23.9666 70.6348 -12.844 75.3021 -1.70752 81.5988C-50.3098 63.4422 12.5081 90.5113 13.0356 92.4324C13.1614 92.6555 -6.62622 85.5306 -9.72388 84.7941C6.18604 92.4489 55.4927 122.383 24.9094 108.237C30.5322 110.561 42.291 119.724 42.043 119.758C39.696 119.813 12.552 103.124 16.4387 106.912C20.8955 111.101 29.2056 113.509 37.1516 118.469C77.8765 144.619 62.3848 143.791 104.17 170.411C103.201 170.073 102.23 169.735 101.258 169.396C112.104 176.64 123.002 184.019 134.021 191.446C167.167 213.781 198.158 237.129 225.271 263.367C228.149 266.934 232.249 271.727 237.055 277.393C253.248 296.074 274.768 323.661 285.236 339.163C288.302 343.138 301.686 362.829 302.561 364.434C304.589 367.103 295.579 351.158 300.386 357.942C300.68 358.361 302.695 361.649 305.201 366.167C308.338 370.746 313.957 390.099 312.408 388.259C311.161 383.835 307.803 372.131 306.886 371.145C304.649 368.194 307.564 373.625 311.885 389.804C316.181 405.629 320.823 430.548 323.925 451.308C326.41 467.47 326.271 480.225 326.025 482.017C325.604 479.454 325.135 476.921 324.619 474.378C325.113 481.646 325.221 488.872 324.934 496.134ZM200.712 115.369C198.892 113.373 195.289 110.725 191.219 107.954C186.759 104.917 181.642 101.635 178.147 99.0031C169.164 92.2142 155.875 77.2176 160.009 86.008C170.453 93.4729 180.81 100.966 190.983 108.3C194.262 110.656 197.486 112.999 200.712 115.369ZM384.551 299.704C377.332 289.382 380.226 299.022 386.413 307.331C387.067 308.255 394.103 313.959 384.551 299.704ZM304.277 200.762C304.516 201.039 308.486 205.077 310.65 207.306C311.453 208.131 312.019 208.71 312.094 208.772C314.708 210.948 313.501 209.328 311.192 206.79C307.263 202.442 299.928 195.474 304.277 200.762ZM178.234 673.838C192.63 682.033 180.278 678.299 172.862 672.449C172.382 672.082 177.315 673.305 178.234 673.838ZM188.707 679.516C200.285 684.524 236.371 696.777 208.246 689.475C204.947 688.871 187.578 679.374 188.707 679.516ZM358.787 263.639C358.943 265.232 366.733 275.21 369.969 279.641C370.572 279.057 361.905 267.872 358.787 263.639ZM409.88 587.449C409.497 587.606 412.908 579.177 415.802 568.509C419.257 556.472 423.051 539.014 423.814 537.282C422.913 541.491 419.648 557.528 416.477 568.695C413.655 579.122 410.195 587.307 409.88 587.449ZM309.217 685.325C310.566 685.085 327.769 677.732 330.307 676.44C330.509 676.377 330.612 676.374 330.596 676.44C330.527 676.487 330.457 676.535 330.386 676.582C320.941 683.152 302.63 688.109 309.217 685.325ZM85.9873 580.332C85.7578 579.569 94.5984 586.971 78.8855 565.965C76.5928 562.868 82.8052 575.107 82.0068 574.015C80.2783 571.706 79.0078 569.84 78.0544 568.294C83.9993 578.887 90.9712 589.828 91.8796 590.757C96.01 595.082 86.0491 580.668 85.9873 580.332ZM80.9346 424.437C84.292 420.251 102.642 404.338 106.461 402.188C107.124 401.737 103.215 402.17 111.323 397.267C117.721 393.655 109.199 400.346 121.223 393.392C133.222 386.919 116.482 394.171 117.432 393.689C118.979 392.416 137.814 384.271 136.76 383.861C136.167 383.129 116.417 393.072 110.969 396.595C104.127 400.682 111.779 394.138 100.427 402.147C93.1929 407.667 98.5374 406.379 97.0657 407.613C96.4712 408.115 89.5579 413.168 84.1509 418.895C78.7512 424.565 75.2017 429.897 80.9685 424.386C80.9573 424.403 80.9458 424.42 80.9346 424.437ZM76.4509 565.426C76.8564 566.248 77.3733 567.19 78.0544 568.294C77.5125 567.335 76.9785 566.375 76.4509 565.426ZM227.414 135.877C232.68 139.017 218.712 127.473 212.675 124.232C212.199 124.689 226.574 135.315 227.414 135.877ZM70.3765 549.887C60.9521 525.046 64.6877 543.98 76.2029 564.979C76.2854 565.127 76.3682 565.276 76.4509 565.426C76.3728 565.267 76.2988 565.113 76.229 564.963C73.1992 558.752 74.1384 557.756 70.3765 549.887ZM420.373 415.637C420.654 416.348 420.975 416.779 421.382 416.771C420.619 414.896 420.355 414.769 420.373 415.637ZM426.952 458.932C426.925 474.97 424.445 442.625 424.991 442.781C425.421 442.826 427.047 458.3 426.952 458.932ZM162.733 664.136C163.292 664.439 159.938 661.047 159.342 659.931C158.934 658.892 159.836 659.441 172.611 669.317C158.11 660.475 172.782 670.479 172.586 670.677C171.728 670.937 161.042 663.717 154.242 659.028C147.655 654.58 143.024 650.58 140.837 648.891C138.732 645.604 145.332 652.157 154.563 658.547C157.762 660.828 161.226 663.32 162.706 664.117C162.715 664.124 162.724 664.13 162.733 664.136ZM296.927 362.908C293.42 361.963 282.351 362.462 274.893 362.734C278.402 363.608 289.456 363.043 296.927 362.908ZM1727.4 1482.7C1705.45 1438.48 1698.89 1434.48 1721.17 1473.96C1721.6 1474.73 1728.44 1485.57 1727.4 1482.7ZM1528.51 1106.8C1524.76 1103.51 1531.89 1117.24 1537.35 1125.88C1538.58 1127.82 1544.17 1134.48 1539.86 1125.77C1538.18 1127.07 1530.3 1114.16 1528.51 1106.8ZM66.209 535.374C64.573 527.673 60.2344 505.598 60.2236 495.382C59.0676 501.43 62.0361 524.792 66.209 535.374ZM1650.53 1339.4C1648 1334.84 1647.7 1331 1648.23 1331.75C1650.62 1335.08 1654.03 1344.26 1650.53 1339.4ZM95.4941 590.179C96.3711 590.421 85.2722 571.791 83.1462 571.403C85.5559 575.254 94.7578 589.967 95.4941 590.179ZM282.854 363.664C279.666 364.073 296.255 364.378 301.29 364.015C300.878 363.261 284.945 363.365 282.854 363.664ZM1611.98 1264.69C1609.69 1260.61 1604.21 1250.29 1604.15 1248.86C1604.07 1247.08 1611.83 1262.37 1611.98 1264.69ZM2086.88 1906.18C2087.21 1906.05 2083.09 1905.37 2079.18 1904.62C2077.23 1904.25 2075.44 1903.85 2074.31 1903.55C2073.15 1903.26 2072.61 1903.09 2072.1 1903.09C2071.12 1903.06 2070.8 1903.19 2071.25 1903.58C2071.72 1903.95 2072.24 1904.34 2073.84 1904.78C2076.93 1905.72 2086.72 1906.28 2086.88 1906.18ZM1672.67 1383.57C1680.73 1395.94 1671.96 1382.11 1673.6 1381.98C1678.23 1390.75 1689.66 1412.58 1680.53 1398.23C1678.77 1395.49 1674.85 1387.55 1672.67 1383.57ZM1665.94 1371.74C1665.65 1370.13 1662.11 1359.99 1666.26 1368.18C1668.16 1371.95 1669.8 1378.81 1665.94 1371.74ZM2006.44 1870.59C1995.04 1865.88 2043.9 1892.33 2046.27 1892.62C2047.11 1892.91 2047.69 1893.06 2048.02 1893.12C2049.73 1894.46 2059.64 1899.43 2061.29 1899.03C2058.23 1897.64 2050.16 1893.55 2049.18 1893.19C2048.75 1893.03 2048.43 1892.92 2048.2 1892.86C2044.74 1890.4 2007.98 1871.73 2006.44 1870.59ZM1933.7 1815.43C1942.98 1826.45 1947.23 1825.55 1946.34 1824.67C1935.56 1813.36 1941.54 1821.91 1941.1 1821.69C1940.14 1821.12 1932.72 1812.9 1933.73 1815.46C1933.72 1815.45 1933.71 1815.44 1933.7 1815.43ZM1991.05 1861.4C1991.4 1861.76 2000.67 1867.67 2001.14 1867.85C2009.26 1871.8 1983.22 1855.08 1991.05 1861.4ZM176.65 374.073C190.664 371.154 177.418 371.544 166.043 375.92C165.958 375.954 165.857 376.007 165.758 376.071C165.532 376.274 165.352 376.663 165.985 376.72C167.102 376.667 170.263 375.697 176.65 374.073ZM1662.89 1365.16C1661.7 1363.37 1636 1316.04 1639.14 1318.03C1641.07 1322.17 1670.26 1376.06 1662.89 1365.16ZM1471.7 1009.35C1476.53 1017.8 1472.78 1007.65 1469.71 1003.61C1468.57 1002.11 1470.49 1007.22 1471.7 1009.35ZM114.462 613.96C120.924 623.638 121.878 619.697 114.867 612.583C114.596 612.304 114.216 613.583 114.462 613.96ZM1509.92 1075.69C1494.91 1046.27 1493.94 1055.87 1516.1 1092.48C1515.68 1091.18 1515.25 1089.88 1514.83 1088.59C1539.18 1131.62 1516.82 1091.35 1511.27 1080.61C1509.15 1076.49 1511.83 1079.44 1509.94 1075.71C1509.93 1075.7 1509.92 1075.7 1509.92 1075.69ZM1446.23 965.667C1426.47 940.13 1459.89 991.348 1467.96 1006.84C1460.99 991.359 1449.65 972.345 1466.13 997.499C1444.39 959.316 1452.15 975.978 1451.2 974.543C1449.99 972.765 1447.06 966.728 1446.23 965.667ZM1488.1 1038.66C1488.91 1040.33 1496.33 1051.99 1498.67 1056.49C1496.45 1049.66 1482.86 1027.69 1488.1 1038.66ZM1869.86 1744.03C1869.62 1745.48 1870.48 1748.11 1876.83 1755.69C1875.37 1752.96 1871.93 1747.65 1869.86 1744.03ZM188.606 113.76C188.308 113.559 187.996 113.35 187.671 113.134C181.299 108.884 170.113 101.589 174.305 103.177C174.693 103.344 184.993 110.493 187.819 112.918C188.361 113.377 188.656 113.68 188.606 113.76ZM1589.43 1226.87C1588.57 1225.51 1569.23 1189.2 1576.92 1201.21C1579.26 1204.84 1596.61 1237.99 1589.43 1226.87ZM1688.2 1415.37C1686.64 1412.4 1680.32 1399.81 1680.43 1399.48C1680.74 1398.19 1688.28 1413.73 1688.2 1415.37ZM156.794 93.2924C155.926 92.8079 136.843 79.6998 139.226 80.7019C143.829 82.5878 159.84 94.8977 156.794 93.2924ZM216.292 371.919C217.333 371.865 218.458 371.476 219.454 371.106C220.348 370.772 221.104 370.457 221.435 370.428C223.138 370.16 259.158 368.793 245.331 368C244.248 367.941 232.509 368.534 219.346 369.579C205.112 370.646 186.912 372.496 180.453 374.062C178.625 375.217 186.239 373.716 192.948 372.862C199.808 371.927 206.662 371.089 209.394 370.955C210.336 370.916 211.101 372.176 216.276 371.913C216.281 371.915 216.287 371.917 216.292 371.919ZM1901.5 1784.19C1901.61 1785.06 1908.1 1792.63 1914.96 1799.53C1921.56 1806.2 1928.48 1812.35 1928.71 1811.75C1924.21 1807.51 1919.8 1803.23 1915.54 1798.94C1910.72 1794.08 1906.04 1789.17 1901.5 1784.19ZM1888.85 1770.23C1883.18 1764.66 1895 1778.94 1899.04 1782.7C1899.52 1782.31 1889.62 1771.08 1888.85 1770.23ZM1648.93 1348.08C1647.24 1344.29 1654.42 1354.91 1653.36 1352.25C1652.67 1350.55 1647.92 1342.62 1646.97 1339.82C1646.72 1339.02 1652.27 1346.67 1653.49 1349.14C1655.21 1352.61 1652.51 1349.79 1654.46 1353.53C1660.88 1365.91 1667.35 1376.64 1673.34 1388.21C1673.89 1389.26 1668.98 1381.49 1673.65 1390.44C1674.4 1391.87 1679.69 1399.57 1685.14 1410.43C1694.28 1435.66 1706.43 1451.55 1720.89 1482.15C1719.95 1481.07 1707.57 1459.15 1706.83 1457.8C1693.29 1432.98 1669.85 1388.02 1656.11 1361.68C1652.6 1354.96 1654.97 1357.88 1653.48 1354.97C1652.3 1352.66 1652.5 1356.05 1648.93 1348.08ZM191.563 116.726C190.457 116.45 188.815 115.573 186.843 114.342C182.312 111.531 176.006 106.685 171.295 103.517C173.757 103.984 181.062 109.532 187.212 113.803C188.775 114.888 190.251 115.891 191.563 116.726ZM1795.82 1623.75C1795.4 1622.9 1794.77 1621.68 1793.98 1620.21C1791.05 1614.76 1787.39 1608.46 1787.29 1607.56C1787.2 1606.59 1791.68 1614.18 1794.44 1619.97C1795.38 1621.98 1795.93 1623.42 1795.82 1623.75ZM419.496 372.872C419.901 372.933 429.89 373.802 430.295 373.812C439.35 373.556 409.304 370.962 419.496 372.872ZM652.402 422.021C659.442 424.317 666.533 426.961 669.236 426.627C664.645 425.366 651.775 421.008 652.402 422.021ZM953.483 540.729C951.473 541.356 971.932 550.399 975.76 552.216C974.662 550.899 954.975 540.25 953.483 540.729ZM1865.27 1745.57C1872.68 1755.49 1869.38 1754.71 1874.97 1760.29C1875.91 1761.17 1882 1761.59 1872.44 1751.99C1870.74 1750.2 1875.54 1758.59 1865.27 1745.57ZM1519.49 1098.6C1520.24 1102.01 1525.66 1111.39 1529.14 1117.66C1529.02 1115.92 1521.87 1103.1 1519.49 1098.6ZM121.312 70.8883C115.256 68.4533 90.3823 51.5561 97.1423 54.7606C98.1565 55.1912 117.839 68.614 121.312 70.8883ZM64.4338 487.504C65.8357 473.024 65.1401 502.842 66.4949 514.723C65.3733 509.452 64.113 488.204 64.4338 487.504ZM882.789 508.57C883.306 508.838 895.145 514.048 895.684 514.245C905.814 517.566 872.319 502.828 882.789 508.57ZM577.645 402.903C581.885 404.868 611.651 412.167 618.509 413.245C612.494 410.076 572.291 400.291 577.645 402.903ZM1836.95 1701.87C1841.71 1709.66 1846.6 1716.8 1851.51 1723.51C1851.11 1721.71 1837.88 1702.46 1836.95 1701.87ZM925.864 528.444C926.492 528.734 927.138 528.945 927.739 529.22C927.102 528.954 926.475 528.697 925.864 528.444ZM1736.74 1516.19C1732.82 1509.31 1734.76 1510.06 1735.04 1510.51C1738.21 1515.64 1741.23 1524.09 1736.74 1516.19ZM182.724 113.124C179.74 112.58 169.169 104.155 162.535 99.9793C164.974 100.457 177.679 109.505 182.724 113.124ZM1426.33 937.48C1419.87 929.403 1440.17 965.879 1445.25 973.005C1446.41 973.214 1427.38 938.676 1426.33 937.48ZM73.6196 537.851C74.2737 538.894 84.5645 562.609 81.8545 557.877C79.5186 555.15 72.51 537.416 73.6196 537.851ZM1456.27 990.749C1458.01 994.336 1463.31 1001.64 1462.24 998.598C1460.88 994.733 1455.83 989.814 1456.27 990.749ZM1620.9 1296.33C1619.99 1294.9 1610.33 1274.37 1615.56 1282.2C1619.19 1287.63 1618.43 1289.2 1619.13 1290.56C1619.94 1292.07 1638.34 1323.51 1620.9 1296.33ZM1274.83 750.645C1278.82 754.469 1283.55 758.565 1288.15 762.585C1290.89 764.982 1293.53 767.294 1296.07 769.62C1295.09 768.407 1292.07 765.435 1288.53 762.16C1283.29 757.307 1276.83 751.761 1274.83 750.645ZM78.5088 438.202C78.0784 439.24 68.2463 454.111 67.3657 473.565C66.3896 489.534 66.9946 509.61 66.0281 484.205C66.0198 483.451 66.0706 478.719 66.3374 473.505C66.8254 450.93 82.8718 430.593 78.5088 438.202ZM1865.27 1745.57C1864.34 1744.31 1863.25 1742.87 1861.95 1741.21C1863.19 1742.89 1864.31 1744.33 1865.27 1745.57ZM1790.94 1619.55C1791.78 1622.58 1784.02 1608.57 1782.32 1604.59C1782.4 1602.95 1790.6 1618.64 1790.94 1619.55ZM1295.92 770.817C1299.56 774.67 1307.02 780.969 1311.97 785.816C1311.56 784.424 1298.03 771.777 1295.92 770.817ZM989.108 562.398C998.572 566.806 1009.83 572.943 1009.64 573.753C1009.89 573.743 1010.4 573.862 1011.2 574.137C1012.02 574.41 1021.72 579.993 1026.11 582.063C1052.73 593.898 926.981 529.529 998.691 569.014C995.508 566.803 992.315 564.598 989.108 562.398ZM536.783 394.657C530.807 394.185 513.81 389.395 518.353 389.956C521.743 390.267 542.962 395.067 536.783 394.657ZM754.883 460.473C753.159 460.013 738.176 453.937 737.913 453.316C746.879 455.876 762.76 462.478 754.883 460.473ZM490.425 386.948C486.963 386.511 482.535 384.15 482.975 384.157C486.922 384.255 496.3 387.048 490.425 386.948ZM1846.92 1726.51C1843.65 1722.5 1835.71 1707.91 1834.74 1704.28C1834.21 1703.81 1833.04 1702.42 1831.04 1699.74C1831.04 1699.75 1831.05 1699.76 1831.05 1699.77C1830.17 1698.59 1821.86 1685.28 1813.58 1670.51C1797.05 1640.73 1779.06 1603.44 1807.97 1657.15C1809.36 1659.59 1806.69 1656.68 1812.29 1666.6C1812.66 1667.25 1813.51 1667.22 1814.67 1669.23C1814.75 1669.38 1814.85 1669.55 1814.96 1669.74C1818.12 1675.45 1832.21 1698.5 1834.71 1703.48C1834.86 1703.44 1835.17 1703.69 1835.69 1704.3C1840.26 1709.75 1849.38 1729.68 1846.92 1726.51ZM784.944 471.829C781.779 470.911 772.235 467.027 771.458 466.025C776.411 467.5 792.244 473.917 784.944 471.829ZM79.1033 442.597C75.4023 448.993 70.0332 464.103 69.5691 473.694C69.1299 477.031 68.7466 478.861 68.6311 476.523C68.606 475.995 68.6328 474.963 68.7041 473.643C68.8867 466.32 72.0249 454.282 75.7771 447.347C79.4189 440.345 82.0845 437.203 79.1033 442.597ZM687.581 437.203C724.014 448.284 696.189 440.074 701.424 442.825C696.851 440.945 692.204 439.06 687.581 437.203ZM1957.75 1843.4C1953.22 1839.91 1957.11 1845.73 1962.66 1848.89C1964.39 1849.88 1960.28 1845.35 1957.75 1843.4ZM2180.24 1913.62C2175.16 1915.34 2199.93 1914.36 2190.28 1913.16C2189.84 1913.12 2180.59 1913.56 2180.24 1913.62ZM2017.5 1886.25C2014.78 1883.39 2012.62 1882.13 2003.56 1877.08C2016.71 1885.16 2003.7 1878.89 2017.5 1886.25ZM1009.48 573.812C1009.56 573.801 1009.63 573.797 1009.64 573.753C1009.55 573.756 1009.5 573.777 1009.48 573.812ZM454.519 380.982C449.474 381.273 435.815 379.642 440.002 379.114C440.387 379.041 452.609 379.955 454.519 380.982ZM1834.74 1704.28C1835.2 1704.69 1835.14 1704.37 1834.71 1703.48C1834.57 1703.51 1834.6 1703.79 1834.74 1704.28ZM526.781 394.074C526.54 393.196 546.851 397.65 547.555 397.961C558.599 402.006 535.406 395.948 526.781 394.074ZM117.547 603.866C118.167 604.836 112.189 600.029 110.24 595.925C108.723 592.765 115.163 600.252 117.547 603.866ZM2050.1 1903.66C2054.79 1905.97 2061.17 1909.07 2064.14 1909.88L2062.64 1909.2C2063.09 1909.28 2063.43 1909.3 2063.66 1909.25C2063.41 1909.16 2063.11 1909.04 2062.76 1908.9L2064.27 1909.59C2059.74 1907.55 2050.26 1903.05 2050.1 1903.66ZM2170.54 1914.85C2163.11 1913.77 2146.11 1913.72 2135.3 1913.84C2135.08 1915.26 2163.56 1914.52 2170.54 1914.85ZM1856.47 1739.63C1856.12 1739.3 1847.34 1727.13 1849.29 1728.29C1852.08 1730.05 1859.29 1742.79 1856.47 1739.63ZM97.7222 576.814C94.2217 570.086 105.156 583.671 108.58 591.217C110.223 595.121 98.198 577.962 97.7222 576.814ZM411.838 377.786C402.229 376.441 426.222 377.46 429.507 378.855C425.009 378.471 415.241 378.248 411.838 377.786ZM728.812 453.932C699.556 446.902 716.635 447.278 721.55 449.428C722.258 449.735 729.515 454.101 728.812 453.932ZM53.52 36.2312C49.8616 33.7352 64.9165 40.4907 66.2241 42.3923C67.0676 43.5403 55.8955 37.7931 53.52 36.2312ZM1135.79 648.537C1134.73 647.832 1133.68 647.131 1132.63 646.438C1133.39 646.991 1134.42 647.681 1135.79 648.537ZM324.505 377.573C345.912 373.851 343.611 377.035 345.457 377.037C349.456 377.1 358.787 376.322 366.309 376.845C357.709 376.007 349.084 375.256 340.444 374.597C347.301 374.1 406.629 375.828 407.861 376.913C409.565 377.947 390.925 376.308 390.383 376.391C389.598 376.457 386.519 378.85 384.797 378.847C381.958 378.605 332.506 376.734 324.505 377.573ZM669.413 433.894C674.133 435.047 675.713 434.477 677.78 435.387C678.485 435.698 678.303 436.661 680.728 437.698C676.922 436.407 673.218 435.16 669.413 433.894ZM286.372 374.159C280.382 375.43 307.347 374.582 308.231 374.513C312.856 373.667 291.263 373.04 286.372 374.159ZM516.098 392.714C515.039 392.403 493.092 389.205 494.195 388.741C498.382 388.632 528.761 394.276 516.098 392.714ZM683.756 438.735C690.702 440.825 703.943 444.16 702.005 445.07C701.995 445.067 701.984 445.064 701.974 445.06C695.936 442.93 689.861 440.821 683.756 438.735ZM86.3394 551.865C87.7913 553.954 88.9807 555.584 89.8992 556.858C92.7937 560.6 91.7769 560.28 89.1255 557.317C87.1777 554.904 84.5591 551.155 82.1299 546.356C81.0271 541.268 84.4966 549.362 86.3394 551.865ZM112.379 590.138C114.163 593.219 140.702 626.655 136.05 622.421C133.661 620.916 119.178 601.046 118.732 600.209C117.656 598.933 121.007 605.917 113.765 595.444C114.555 595.777 111.476 589.1 112.379 590.138ZM94.1594 562.368C102.839 573.154 101.836 577.532 96.2751 568.71C94.1245 565.256 92.9272 560.824 94.1594 562.368ZM73.7356 495.853C74.1003 501.518 75.8687 517.641 78.4075 529.63C73.8384 514.054 72.8987 498.723 73.0842 485.313C73.7356 483.77 73.2715 490.758 73.7368 495.892C73.7363 495.879 73.7361 495.866 73.7356 495.853ZM2248.96 1923.32C2238.58 1924.24 2262.48 1924.6 2263.5 1924.37C2266.5 1923.61 2253.6 1922.9 2248.96 1923.32ZM-36.5442 29.9036C-39.3694 29.4422 -41.6313 30.0252 -47.5254 27.6499C-41.1565 28.5534 -34.6641 29.5652 -28.2935 30.5995C-24.1484 34.0488 -33.3516 30.4271 -36.5442 29.9036ZM-62.104 30.4002C-61.2434 30.697 -66.8469 32.413 -55.0605 33.4964C-47.0867 34.0912 -88.0413 21.6348 -96.052 21.8567C-87.833 24.1378 -69.5051 27.9021 -62.104 30.4002ZM-135.834 30.5344C-136.427 30.5698 -121.794 32.1395 -119.931 32.3837C-110.511 32.6725 -133.79 28.7701 -135.834 30.5344ZM-87.4465 37.5165C-94.8394 36.4293 -78.916 40.5333 -74.0684 41.4891C-73.4221 41.0145 -86.3623 37.635 -87.4465 37.5165ZM2143.8 1969.12C2135.5 1971.24 2128.16 1966.56 2140.85 1967.56C2141.45 1967.61 2144.16 1969.02 2143.8 1969.12ZM-121.883 34.9042C-114.84 35.2069 -130.366 32.7171 -134.543 33.1176C-135.08 33.555 -123.059 34.7282 -121.883 34.9042ZM2137.94 1974.23C2126.93 1975.73 2130.85 1970.54 2132.21 1970.34C2137.91 1969.55 2157.24 1971.66 2161.21 1972.17C2132.2 1971.3 2143.12 1973.52 2137.94 1974.23ZM2086.93 1970.52C2078.27 1969.79 2094.9 1969.53 2103.66 1970.11C2105.55 1970.25 2107.2 1970.45 2108.06 1970.72C2106.96 1970.7 2105.34 1970.68 2103.65 1970.68C2097.64 1970.69 2089.28 1970.73 2086.93 1970.52ZM2019.58 1953.37C2014.53 1951.1 1999.51 1943.86 1997.41 1941.77C2002.77 1944.84 2017.86 1951.6 2019.58 1953.37ZM2007.2 1949.86C1998.88 1946.82 1998.51 1942.96 2007.05 1948.48C2007.38 1948.69 2007.51 1949.95 2007.2 1949.86ZM1962.89 1926.3C1957.12 1924.18 1953.14 1917.77 1961.31 1923C1963.74 1924.53 1963.51 1926.51 1962.89 1926.3ZM2124.13 1979.76C2116.08 1980.25 2105.67 1977.91 2122.91 1977.81C2116.88 1977.42 2110.8 1977.02 2104.73 1976.61C2127.41 1975.58 2125.64 1978.64 2132.13 1978.56C2141.18 1978.43 2140.47 1975.84 2138.68 1975.03C2146.09 1976.65 2177.5 1976.76 2195.66 1977.07C2179.7 1977.72 2153.8 1978.82 2138.02 1979.16C2133.53 1979.26 2129.12 1978.53 2125.29 1978.58C2119.12 1978.67 2124.58 1979.72 2124.17 1979.76C2124.16 1979.76 2124.14 1979.76 2124.13 1979.76ZM1909.82 1886.15C1896.02 1876.26 1906.18 1880.87 1913.1 1887.44C1913.38 1887.74 1910.17 1886.4 1909.82 1886.15ZM-140.029 43.353C-124.204 42.8345 -136.967 38.2469 -95.7092 48.9491C-113.186 43.3382 -96.4072 47.3927 -99.7402 45.9211C-102.493 44.6891 -112.904 43.2547 -106.682 43.192C-110.765 43.0764 -121.562 41.3612 -130.551 40.7773C-135.048 40.4599 -139.053 40.4646 -141.045 40.6586C-142.037 40.7446 -142.491 40.8586 -142.314 40.8344C-142.246 40.8264 -141.993 40.7697 -141.746 40.7002C-141.463 40.6211 -141.176 40.526 -141.052 40.4928C-141.07 40.4997 -141.088 40.5065 -141.106 40.5132C-140.805 40.4317 -140.672 40.6018 -140.822 40.9713C-140.951 41.3335 -141.4 41.8813 -141.643 42.3099C-142.228 43.2048 -141.961 43.6646 -140.029 43.353ZM2015.83 1960.71C2009.07 1961.61 2009.85 1955.24 1998.46 1952.91C1989.26 1943.83 2020.6 1962.94 2035.73 1968.64C2035.94 1968.75 2036.6 1969.04 2036.82 1969.14C2040.31 1970.37 2043.43 1971.13 2045.03 1971.01C2041.87 1969.87 2039.4 1968.83 2037.34 1967.95C2037.13 1967.85 2036.5 1967.58 2036.29 1967.47C2016.75 1958 2026.41 1961.74 2036.76 1966.5C2036.96 1966.6 2037.57 1966.86 2037.77 1966.95C2043.65 1969.47 2052.04 1972.28 2054.96 1973.34C2058.07 1974.35 2054.6 1975.21 2041.69 1971.84C2064.23 1978.8 2068.27 1976.91 2067 1977.85C2065.98 1978.3 2059.96 1978.3 2063.41 1979.19C2071.6 1981.43 2091.8 1980.97 2090.65 1982.36C2090.64 1982.36 2090.63 1982.36 2090.61 1982.36C2078.72 1981.76 2064.64 1982.19 2047.08 1976.47C2058.89 1977.72 2045.52 1974.07 2036.16 1970.67C2035.93 1970.57 2035.23 1970.26 2035 1970.14C2031.03 1968.66 2026.88 1967.36 2024.15 1966.91C2021.37 1964.86 2018.61 1962.8 2015.83 1960.71ZM2091.3 1977.67C2090.67 1977.68 2083.9 1977.49 2076.84 1976.9C2069.87 1976.39 2062 1974.93 2063.14 1974.77C2069.32 1976.08 2106.35 1977.05 2091.3 1977.67ZM2203.81 1978.96C2194.67 1978.96 2180.53 1979.54 2175.55 1978.37C2184.71 1978.38 2198.83 1977.8 2203.81 1978.96ZM1790.94 1757.13C1785.08 1746.57 1805.86 1777.29 1798.97 1768.99C1798.6 1768.6 1791.2 1757.66 1790.94 1757.13ZM1991.79 1947.68C1980.35 1942.79 1987.28 1942.37 1994.86 1947.52C1995.3 1947.82 1992.32 1947.9 1991.79 1947.68ZM-126.621 44.4516C-126.425 44.9635 -97.5078 49.3544 -92.1379 50.9283C-95.0674 48.99 -127.707 42.764 -126.621 44.4516ZM2219.89 1982.38C2201.72 1985.66 2177.01 1981.84 2174.31 1981.91C2171.63 1981.99 2175.83 1983.43 2175.22 1983.47C2173.83 1983.55 2145.12 1983.35 2143.74 1983.24C2142.74 1983.16 2147.94 1981.16 2142.01 1980.51C2153.6 1981.72 2206.01 1981.08 2208.72 1981.29C2210.83 1981.47 2194.95 1983.58 2219.86 1982.38C2219.87 1982.38 2219.88 1982.38 2219.89 1982.38ZM2167.55 1982.34C2174.71 1981.51 2154.6 1981.36 2149.74 1981.65C2138.94 1982.31 2166.63 1982.44 2167.55 1982.34ZM2119.11 1982.9C2117.77 1983 2110.01 1983.05 2103.5 1982.84C2098.89 1982.7 2094.78 1982.43 2094.06 1982.02C2096.71 1981.75 2100.08 1981.66 2103.51 1981.68C2113.04 1981.72 2122.95 1982.6 2119.11 1982.9ZM1895.53 1882.36C1891.41 1878.66 1879.52 1868.91 1879.44 1867.68C1883.47 1871.6 1895.4 1881.2 1895.53 1882.36ZM-29.8818 75.7913C-37.197 73.8745 -20.8792 80.0631 -15.7415 82.159C-15.2598 81.6644 -29.2869 75.8074 -29.8818 75.7913ZM1986.21 1953.6C1983.96 1952.72 1948.22 1932.76 1928.51 1916.15C1922.86 1911.58 1918.62 1907.98 1916.92 1906.48C1918.75 1907.78 1923.14 1911.21 1928.91 1915.64C1948.73 1931.54 1983.9 1950.93 1985.78 1952.08C1986.53 1952.59 1986.61 1953.77 1986.21 1953.6ZM2137.32 1988.68C2143.28 1989.92 2147.18 1988.48 2147.95 1988.47C2155.31 1988.31 2170.61 1988.62 2167.26 1987.45C2154.24 1987.9 2125.45 1986.22 2137.32 1988.68ZM1888.32 1883.32C1871.42 1867.78 1905.33 1895.94 1900.2 1893.01C1899.87 1892.85 1890.06 1884.95 1888.32 1883.32ZM1992.78 1957.5C1994.97 1959.3 2013.62 1968.9 2031.51 1977.35C2031.8 1977.5 2032.7 1977.89 2033 1978.03C2041.5 1982 2056.93 1986.34 2065.84 1986.98C2075.03 1987.95 2080.58 1987.96 2083.29 1988.09C2073.31 1985.61 2063.27 1987.76 2043.86 1981.42C2039.2 1979.75 2040.79 1979.48 2040.29 1979.3C2033.14 1976.42 2038.08 1979.34 2033.95 1977.64C2033.83 1977.59 2033.61 1977.49 2033.29 1977.35C2033 1977.22 2032.12 1976.83 2031.84 1976.69C2026.49 1974.22 1987.39 1953.39 1992.78 1957.5ZM2140.72 1989.53C2144.38 1990.26 2184.99 1990.65 2186.61 1990.46C2198.84 1989.11 2143.91 1989.34 2140.72 1989.53ZM1986.49 1955.97C1992.06 1961.5 2022.53 1975.21 2002.59 1963.99C2000.69 1962.92 1991.98 1959.46 1986.49 1955.97ZM1888.85 1886.44C1887.92 1885.83 1869.76 1869.98 1869.93 1869.1C1872.59 1871.49 1898.96 1894.45 1888.85 1886.44ZM1896.77 1896.28C1896.34 1895.88 1901.44 1898.58 1892.81 1891.38C1892.11 1890.76 1889.79 1890.79 1879.55 1880.93C1877.47 1878.93 1874.8 1875.2 1875.08 1875.37C1887.39 1883.9 1918.45 1915.51 1896.77 1896.28ZM2141.46 1990.71C2139.27 1991.31 2144.55 1993.14 2149.32 1992.24C2151.36 1991.85 2147.56 1990.76 2141.46 1990.71ZM1833.01 1832.6C1841.71 1844.3 1811.69 1809.95 1810.9 1807.66C1812.15 1808.52 1831.95 1831.6 1833.01 1832.6ZM-16.3904 90.4429C-16.3989 90.4391 -16.4072 90.4353 -16.4158 90.4315C-7.33472 94.3096 -12.5007 90.9482 -12.0818 91.1002C7.86816 99.1929 1.84497 98.831 4.76343 100.53C11.022 104.454 11.1829 101.606 21.7383 108.727C4.19336 97.1966 20.5349 106.991 21.4924 106.532C25.3394 104.374 -3.77759 94.545 -12.3254 90.0855C-13.5437 89.3758 -3.7439 92.7401 -6.82935 90.9031C-17.2551 84.3551 -50.5356 77.5673 -16.3904 90.4429ZM2153 1992.42C2158.23 1993.52 2197.82 1992.54 2187.32 1991.64C2185.65 1991.5 2145.31 1990.84 2153 1992.42ZM974.933 646.775C982.699 651.942 963.183 642.835 959.95 640.377C958.358 639.136 971.515 644.484 974.933 646.775ZM837.22 584.583C827.208 579.976 818.019 571.83 830.412 577.833C831.723 578.468 838.597 584.598 837.22 584.583ZM1378.47 1024.88C1371.46 1015.64 1374 1014.9 1378.25 1022.23C1379.76 1024.83 1378.69 1025.18 1378.47 1024.88ZM1088.95 715.284C1087.95 714.718 1077.01 707.484 1077.7 707.243C1082.04 709.549 1095.43 718.78 1088.95 715.284ZM1380.03 1028.29C1376.94 1022.06 1384.52 1031.36 1387.16 1039.59C1385.18 1035.86 1380.31 1028.86 1380.03 1028.29ZM1960.82 1947.96C1955.82 1943.83 1940 1934.12 1931.23 1927.25C1929.4 1927.95 1954.5 1944.28 1960.82 1947.96ZM880.558 602.515C871.483 597.214 892.134 605.996 889.721 606.289C889.435 606.225 880.915 602.722 880.558 602.515ZM1558.02 1357.64C1555.15 1350.38 1567.55 1371.73 1563.13 1366.38C1562.93 1366.11 1558.18 1358.05 1558.02 1357.64ZM1608.16 1452.82C1605.22 1447.74 1593.69 1425.41 1598.91 1433.72C1599.72 1435 1608.64 1452.12 1608.16 1452.82ZM4.84644 101.686C1.60083 101.517 16.731 109.265 18.9885 110.337C19.8979 110.7 9.05151 101.772 4.84644 101.686ZM1339.5 960.868C1336.49 955.724 1327.93 943.078 1327.03 940.409C1330.87 946.473 1341.77 961.677 1339.5 960.868ZM923.546 623.184C914.719 620.501 900.775 613.61 905.104 613.486C920.517 621.12 902.431 614.123 923.546 623.184ZM1397.87 1062.67C1395.41 1058.56 1395.23 1054.38 1395.58 1054.81C1398.93 1058.96 1400.88 1066.47 1397.87 1062.67ZM1186.13 787.376C1185.39 787.792 1173.96 778.084 1175.82 778.925C1176.48 779.2 1186.7 786.963 1186.13 787.376ZM1797.83 1797.7C1792.59 1791.87 1806.14 1811.5 1811.42 1816.45C1814.46 1818.41 1798.34 1798.51 1797.83 1797.7ZM1463.11 1180.39C1462.36 1181.55 1451.45 1159.84 1456.87 1167.78C1458.21 1169.74 1463.35 1179.96 1463.11 1180.39ZM1571.05 1387.95C1564.75 1372.73 1597.53 1433.38 1587.55 1418.15C1586.84 1417.05 1571.63 1389.31 1571.05 1387.95ZM1623.85 1487.46C1622.39 1485 1619.44 1488.17 1626.22 1497.82C1627.11 1499.09 1624.74 1492.18 1625.55 1493.2C1626 1493.77 1638.33 1516.26 1638.73 1517.24C1639.21 1518.39 1637.37 1517.68 1637.83 1518.89C1638.35 1520.22 1645.54 1531.93 1649.54 1539.31C1649.87 1539.9 1650.17 1540.47 1650.45 1541C1657.57 1554.65 1657.48 1556.82 1658.02 1557.86C1659.76 1561.22 1663.28 1566.3 1666.78 1573.02C1680.1 1598.56 1699.11 1636.02 1713.98 1661.89C1717.97 1669.08 1722.37 1677.18 1726.15 1683.35C1721.9 1675.72 1717.94 1667.89 1714.65 1661.54C1706.93 1647.12 1698.31 1629.88 1690.19 1613.98C1691.79 1621.93 1673.49 1578.38 1683.98 1604.02C1681.03 1597.77 1665.38 1567.28 1650.67 1538.72C1638.03 1514.21 1625.99 1491.08 1623.86 1487.49C1623.86 1487.48 1623.86 1487.47 1623.85 1487.46ZM796.765 568.579C801.302 571.644 782.087 563.748 772.894 559.241C770.507 558.061 768.805 557.097 768.365 556.569C769.271 556.874 771.012 557.546 773.214 558.432C781.491 561.74 796.209 568.202 796.765 568.579ZM940.873 638.69C943.637 640.379 945.142 644.14 960.736 650.713C960.75 650.72 960.764 650.727 960.777 650.735C965.333 652.665 960.664 649.47 961.573 649.679C961.91 649.735 976.164 655.72 964.95 649.564C947.802 640.234 962.385 650.497 953.149 645.732C952.033 645.129 935.154 634.867 936.313 635.112C936.437 635.13 941.584 638.087 942.519 638.415C946.045 639.644 944.827 638.069 945.31 638.27C946.907 638.903 973.87 654.589 978.409 655.66C979.997 655.875 935.002 631.439 933.04 630.873C931.851 630.426 931.267 632.775 929.996 632.398C929.363 632.183 911.291 622.263 908.779 621.313C908.054 621.03 907.49 620.832 907.075 620.693C910.205 621.384 893.371 613.332 893.526 614.34C893.683 614.763 905.333 620.152 905.768 620.311C905.96 620.377 906.132 620.423 906.289 620.474C903.556 620.031 942.473 639.305 933.472 636.332C944.363 642.65 932.759 633.785 940.873 638.69ZM993.564 668.156C992.544 667.313 991.535 666.477 990.52 665.64C1009.49 676.685 1032.04 688.125 1053.41 701.157C1058.55 704.295 1052.51 702.201 1058.08 705.37C1058.39 705.544 1058.73 705.733 1059.1 705.94C1064.94 709.146 1071.9 711.887 1069.01 709.691C1068.56 709.348 1063.87 706.792 1058.91 704.022C1055.89 702.335 1052.76 700.555 1050.55 699.178C1033.48 688.6 1038.44 690.125 1037.46 689.481C1036.35 688.773 1024.96 683.176 1018.92 679.697C1003.78 670.99 997.196 666.362 975.563 655.949C987.354 663.251 979.809 661.282 993.564 668.156ZM1508.31 1273.14C1507.98 1274.28 1515.51 1286.98 1517.9 1291.77C1518.23 1290.65 1510.7 1277.93 1508.31 1273.14ZM315.997 550.214C317.124 549.21 315.919 553.48 314.065 557.156C312.245 560.845 309.936 563.887 310.93 561.313C311.463 560.209 315.175 552.608 315.997 550.214ZM245.016 594.068C243.16 593.741 246.069 593.645 249.115 593.635C252.187 593.636 255.35 593.664 255.339 594.182C255.47 594.6 245.666 594.235 245.016 594.068ZM1223.18 827.417C1223.39 827.63 1225.07 829.085 1226.93 830.676C1229.8 833.144 1233.14 836.012 1233.34 836.135C1236.42 838.075 1232.18 833.956 1227.6 829.927C1221.92 824.933 1215.83 820.179 1223.18 827.417ZM160.494 507.005C161.063 509.934 159.67 507.48 158.845 503.939C158.003 500.431 157.863 495.459 158.806 499.452C158.854 499.646 159.16 501.793 159.572 503.563C159.973 505.361 160.469 506.857 160.494 507.005ZM156.37 487.485C156.471 487.285 157.113 486.586 157.922 484.682C158.738 482.832 159.216 480.121 159.186 478.919C159.116 479.664 159.047 480.104 158.975 480.133C158.856 480.176 158.771 479.714 158.723 478.892C158.468 480.128 157.818 482.941 157.067 484.702C156.324 486.519 156.039 487.109 156.37 487.485ZM1395.06 1068.02C1392.91 1067.28 1404.61 1085.69 1408.22 1092.59C1410.4 1093.38 1398.66 1074.73 1395.06 1068.02ZM1323.55 950.756C1370.75 1028.61 1363.16 1009.52 1321.24 945.851C1320.36 946.283 1320.54 945.975 1323.55 950.756ZM1384.34 1051.09C1383.48 1047.62 1378 1038.68 1374.4 1032.65C1374.43 1034.04 1381.91 1046.47 1384.34 1051.09ZM321.821 520.569C320.374 523.811 318.169 535.649 317.128 541.236C316.985 542.527 317.014 543.12 317.352 542.461C317.392 542.38 317.514 541.997 317.684 541.39C319.527 535.425 322.777 519.255 321.821 520.569ZM1228.02 833.51C1225.6 833.245 1245.81 850.912 1247.13 851.904C1253.96 856.471 1229.8 835.368 1228.02 833.51ZM1457.5 1184.43C1458.8 1189.3 1465.99 1201.44 1470.27 1209.43C1469.19 1205.31 1461.13 1191.14 1457.5 1184.43ZM1425.63 1127.52C1425.9 1128.11 1431.96 1138.98 1432.29 1139.49C1438.23 1148.01 1420.9 1116.89 1425.63 1127.52ZM-32.6763 95.6382C-32.406 95.7464 -25.1792 98.6263 -24.8855 98.7381C-18.019 100.353 -39.6978 91.7845 -32.6763 95.6382Z" fill="#DCEBE5"/>
</svg>
