<svg width="55" height="64" viewBox="0 0 55 64" fill="none" xmlns="http://www.w3.org/2000/svg">
<path d="M-7695 -1836V-1835H2498V-1836V-1837H-7695V-1836ZM2578 -1756H2577V5909H2578H2579V-1756H2578ZM2498 5989V5988H-7695V5989V5990H2498V5989ZM-7775 5909H-7774V-1756H-7775H-7776V5909H-7775ZM-7695 5989V5988C-7738.63 5988 -7774 5952.63 -7774 5909H-7775H-7776C-7776 5953.73 -7739.74 5990 -7695 5990V5989ZM2578 5909H2577C2577 5952.63 2541.63 5988 2498 5988V5989V5990C2542.74 5990 2579 5953.74 2579 5909H2578ZM2498 -1836V-1835C2541.63 -1835 2577 -1799.63 2577 -1756H2578H2579C2579 -1800.74 2542.74 -1837 2498 -1837V-1836ZM-7695 -1836V-1837C-7739.74 -1837 -7776 -1800.74 -7776 -1756H-7775H-7774C-7774 -1799.63 -7738.63 -1835 -7695 -1835V-1836Z" fill="white" fill-opacity="0.1"/>
<g clip-path="url(#clip0_8_429)">
<path d="M19.2554 36.3482C19.3046 36.3113 19.3513 36.2695 19.3956 36.2301L19.4596 36.1735C19.5013 36.1321 19.5399 36.0877 19.5752 36.0406C19.5949 36.0185 19.617 35.9964 19.6342 35.9742C19.6515 35.9521 19.6859 35.8881 19.7129 35.8463C19.74 35.8045 19.7548 35.7799 19.772 35.7479C19.7896 35.7111 19.8053 35.6733 19.8188 35.6347C19.8401 35.5907 19.859 35.5456 19.8753 35.4994C19.8859 35.4647 19.894 35.4294 19.8999 35.3937C19.9122 35.3444 19.927 35.2977 19.9344 35.2509C19.9368 35.2067 19.9368 35.1623 19.9344 35.1181C19.9368 35.0738 19.9368 35.0295 19.9344 34.9852C19.9369 34.9402 19.9369 34.895 19.9344 34.85C19.9368 34.8065 19.9368 34.763 19.9344 34.7196C19.9255 34.6714 19.914 34.6238 19.8999 34.5769C19.894 34.5411 19.8859 34.5058 19.8753 34.4711C19.8767 34.4671 19.8767 34.4628 19.8753 34.4588C19.859 34.4118 19.8401 34.3658 19.8188 34.321C19.8057 34.2831 19.7901 34.2461 19.772 34.2103C19.7548 34.1758 19.7302 34.1414 19.7105 34.107C19.6908 34.0725 19.6613 34.0233 19.6342 33.984L19.5727 33.9126C19.5377 33.8669 19.4999 33.8234 19.4596 33.7822C19.4399 33.7625 19.4153 33.7453 19.3932 33.7256C19.3495 33.6845 19.3035 33.6459 19.2554 33.61L-6.98975 14.9865L22.2617 28.4018C22.3134 28.4239 22.365 28.4412 22.4167 28.4584L22.5151 28.4929C22.5618 28.5051 22.6086 28.51 22.6578 28.5199C22.707 28.5297 22.7365 28.5371 22.7759 28.542C22.8152 28.5445 22.8547 28.5445 22.894 28.542C22.9432 28.542 22.9924 28.542 23.0416 28.542H23.1425C23.199 28.542 23.2531 28.5297 23.3073 28.5199C23.3393 28.5199 23.3687 28.5002 23.4007 28.4904C23.4523 28.4782 23.5032 28.4635 23.5533 28.4461C23.5919 28.4301 23.6297 28.412 23.6664 28.392C23.7094 28.374 23.7513 28.3535 23.7919 28.3305C23.8313 28.3084 23.8657 28.2813 23.9026 28.2567L24.0133 28.1804C24.0502 28.1484 24.0822 28.1165 24.1167 28.082C24.1511 28.0476 24.1732 28.0328 24.1978 28.0057C24.1978 28.0057 24.2224 27.9787 24.1978 28.0057L24.284 27.8926C24.3086 27.8606 24.3381 27.8261 24.3602 27.7917L24.4094 27.7031C24.4365 27.6539 24.4636 27.6072 24.4857 27.558C24.5078 27.5088 24.5004 27.5137 24.5103 27.4915C24.5324 27.43 24.557 27.3685 24.5742 27.307C24.5742 27.2849 24.5742 27.2627 24.5865 27.2406C24.6016 27.1748 24.6131 27.1083 24.621 27.0413L27.6274 -5L30.6312 27.0291C30.6406 27.1178 30.6562 27.2057 30.6779 27.2923C30.6779 27.2923 30.6779 27.3095 30.6779 27.3169C30.6983 27.3943 30.7246 27.4699 30.7567 27.5432L30.7715 27.5801C30.8034 27.6521 30.8412 27.7211 30.8846 27.7868L30.8994 27.8089C30.9409 27.8736 30.9869 27.9352 31.0371 27.9934L31.0519 28.0107V28.023L31.1356 28.0992C31.17 28.1336 31.202 28.1657 31.2389 28.1976C31.2758 28.2296 31.3127 28.2493 31.3496 28.2739C31.3865 28.2985 31.4209 28.3255 31.4578 28.3477C31.4992 28.3706 31.5419 28.3912 31.5857 28.4092C31.6222 28.4297 31.6601 28.4478 31.699 28.4633C31.7482 28.4806 31.7982 28.4955 31.849 28.5076C31.881 28.5076 31.9105 28.5297 31.945 28.5371C31.9991 28.5371 32.0557 28.5519 32.1098 28.5593H32.2106C32.2598 28.5593 32.3091 28.5593 32.3583 28.5593C32.3976 28.5618 32.437 28.5618 32.4763 28.5593C32.5182 28.5593 32.5575 28.5445 32.5969 28.5371C32.6363 28.5297 32.6929 28.5224 32.7396 28.5101L32.8355 28.4756C32.8872 28.4584 32.9413 28.4412 32.9905 28.419L62.2395 15.0037L35.9969 33.6272L35.9501 33.6641C35.9033 33.701 35.8566 33.7404 35.8124 33.7822L35.7558 33.8413C35.7189 33.8806 35.6819 33.9249 35.6475 33.9692L35.6008 34.0282C35.5551 34.0934 35.514 34.1616 35.4777 34.2325V34.2472C35.444 34.3164 35.4152 34.3879 35.3916 34.4612C35.3907 34.4694 35.3907 34.4776 35.3916 34.4858C35.3916 34.5006 35.3916 34.5154 35.3916 34.5277C35.3769 34.5843 35.3621 34.6408 35.3523 34.6999C35.3511 34.722 35.3511 34.7442 35.3523 34.7663C35.3411 34.8478 35.3354 34.93 35.335 35.0123C35.3359 35.0897 35.3416 35.1669 35.3523 35.2436C35.3523 35.2657 35.3523 35.2878 35.3523 35.3124C35.3523 35.337 35.3769 35.4256 35.3916 35.4822C35.3916 35.4969 35.3916 35.5093 35.3916 35.524C35.3907 35.533 35.3907 35.5421 35.3916 35.5511C35.4152 35.6244 35.444 35.6959 35.4777 35.7651C35.5134 35.8368 35.5554 35.9051 35.6032 35.9693C35.6157 35.9899 35.6297 36.0097 35.645 36.0283C35.6819 36.0726 35.7189 36.1169 35.7582 36.1587L35.8124 36.2153C35.8566 36.2571 35.9033 36.2965 35.9501 36.3334L35.9969 36.3703L62.242 54.9963L32.9905 41.5785C32.9403 41.556 32.8885 41.5371 32.8355 41.5219C32.8044 41.5082 32.7723 41.4968 32.7396 41.4875C32.6918 41.4751 32.6433 41.4652 32.5944 41.458C32.5551 41.458 32.5182 41.4407 32.4788 41.4383C32.4394 41.4358 32.3976 41.4383 32.3583 41.4383C32.3189 41.4383 32.2598 41.4383 32.2106 41.4383C32.1768 41.4401 32.1431 41.4442 32.1098 41.4506C32.0544 41.4543 31.9994 41.4617 31.945 41.4727C31.9105 41.4727 31.881 41.4924 31.849 41.5022C31.817 41.5121 31.7482 41.5293 31.699 41.549C31.6497 41.5687 31.6226 41.5834 31.5857 41.6007L31.4578 41.6622C31.4209 41.6843 31.384 41.7114 31.3496 41.736C31.3151 41.7606 31.2733 41.7851 31.2389 41.8147C31.2044 41.8442 31.17 41.8787 31.1356 41.9107C31.1011 41.9426 31.079 41.9598 31.0519 41.9893L31.0371 42.0066C30.9869 42.0639 30.9409 42.1248 30.8994 42.1886L30.8846 42.2108C30.8426 42.2781 30.8048 42.3479 30.7715 42.4199L30.7567 42.4568C30.7257 42.5297 30.6994 42.6044 30.6779 42.6807C30.6779 42.6807 30.6779 42.6979 30.6779 42.7077C30.6558 42.7933 30.641 42.8805 30.6337 42.9685L27.6274 75L24.621 42.9587C24.621 42.8947 24.6013 42.8332 24.589 42.7717C24.5827 42.7458 24.5777 42.7195 24.5742 42.693C24.557 42.6364 24.5349 42.5798 24.5152 42.5232C24.4955 42.4666 24.498 42.4691 24.4857 42.442C24.4734 42.415 24.439 42.3535 24.4144 42.3067C24.3897 42.26 24.3799 42.2403 24.3602 42.2083C24.3406 42.1763 24.3086 42.1419 24.284 42.1099C24.2564 42.0707 24.2269 42.0329 24.1954 41.9967V41.9845C24.1708 41.9574 24.1413 41.9352 24.1142 41.9082C24.0872 41.8811 24.0453 41.8417 24.0084 41.8122C23.974 41.7838 23.9378 41.7575 23.9002 41.7335C23.8633 41.7089 23.8288 41.6819 23.7895 41.6597C23.7501 41.6376 23.7058 41.6179 23.664 41.5982L23.5508 41.5466C23.5008 41.5284 23.4499 41.5127 23.3983 41.4998C23.3663 41.4998 23.3368 41.4776 23.3048 41.4703C23.2504 41.4591 23.1954 41.4517 23.14 41.4481C23.1056 41.4481 23.0735 41.4358 23.0391 41.4333C23.0047 41.4309 22.9407 41.4333 22.8915 41.4333C22.8423 41.4333 22.8128 41.4333 22.7734 41.4333C22.7337 41.4375 22.6943 41.4441 22.6553 41.453C22.6086 41.453 22.5594 41.4678 22.5126 41.4826C22.479 41.4915 22.446 41.503 22.4142 41.517C22.3625 41.5342 22.3109 41.549 22.2592 41.5711L-6.98975 54.9865L19.2554 36.3482Z" fill="#FFCC00" stroke="#030303" stroke-width="0.470146" stroke-miterlimit="10"/>
<path d="M29.0422 43.3694C29.0057 43.3196 28.9663 43.2719 28.9241 43.2267C28.9069 43.2071 28.8897 43.1849 28.87 43.1652C28.8503 43.1456 28.7814 43.0865 28.7372 43.0496C28.6929 43.0127 28.6929 43.0078 28.6683 42.9906C28.6275 42.9615 28.5847 42.9352 28.5403 42.9118C28.5084 42.8922 28.4763 42.8675 28.4419 42.8503C28.4075 42.8331 28.3681 42.8208 28.3312 42.8036L28.1935 42.747L28.0852 42.7225C28.0384 42.7225 27.9917 42.6978 27.945 42.6904C27.8983 42.6831 27.8564 42.6904 27.8121 42.6781C27.7679 42.6658 27.7236 42.6781 27.6768 42.6781C27.6301 42.6781 27.5882 42.6781 27.544 42.6781C27.4997 42.6781 27.4554 42.6781 27.4111 42.6904C27.3668 42.7027 27.3177 42.7126 27.2709 42.7225L27.1626 42.747H27.1503L27.015 42.8036C26.9781 42.8208 26.9387 42.8331 26.9043 42.8503C26.8698 42.8675 26.8354 42.8922 26.801 42.9143C26.7586 42.9374 26.7175 42.9628 26.678 42.9906C26.6509 43.0103 26.6288 43.0324 26.6042 43.0521C26.5796 43.0718 26.5156 43.1234 26.4762 43.1628L26.4196 43.2292C26.3778 43.2759 26.3385 43.3202 26.3016 43.3694L7.67559 69.6146L21.0934 40.3631V40.3508C21.1155 40.3016 21.1303 40.25 21.15 40.1959C21.1696 40.1417 21.1746 40.1319 21.182 40.0999C21.1894 40.0679 21.2016 40.0039 21.2115 39.9572C21.2213 39.9104 21.2287 39.8784 21.2336 39.8391C21.2386 39.7997 21.2336 39.7604 21.2336 39.721C21.2336 39.6816 21.2336 39.6226 21.2336 39.5734C21.2336 39.5242 21.2336 39.5045 21.2189 39.4725C21.2151 39.4163 21.2077 39.3605 21.1967 39.3052C21.1967 39.2733 21.177 39.2413 21.1672 39.2093C21.1574 39.1773 21.1402 39.1084 21.1205 39.0592C21.1008 39.01 21.086 38.983 21.0688 38.9461C21.0515 38.9092 21.0294 38.86 21.0073 38.8181C20.9851 38.7763 20.9581 38.7468 20.9335 38.7099C20.9089 38.673 20.8843 38.6361 20.8548 38.5992C20.8252 38.5623 20.7908 38.5303 20.7588 38.4958C20.7268 38.4614 20.7096 38.4393 20.6826 38.4122H20.6702C20.6358 38.3802 20.5965 38.3556 20.5595 38.3261C20.5226 38.2966 20.4931 38.272 20.4586 38.2498C20.4242 38.2277 20.3972 38.2178 20.3676 38.2006C20.3214 38.1713 20.2728 38.1458 20.2225 38.1243L20.1585 38.0998C20.0975 38.0748 20.0351 38.0534 19.9715 38.0358L19.9076 38.0235C19.8421 38.0073 19.7754 37.9957 19.7083 37.989L-12.3306 34.9827L19.6985 31.9764C19.7865 31.969 19.8737 31.9542 19.9592 31.9321H19.9863C20.0626 31.91 20.1364 31.8829 20.2102 31.8534L20.2471 31.8362C20.3193 31.8042 20.3891 31.7671 20.4562 31.7254L20.4783 31.7107C20.5421 31.669 20.6029 31.6229 20.6604 31.5729L20.6776 31.5582H20.6923C20.7194 31.5311 20.7416 31.5015 20.7686 31.4745C20.7957 31.4474 20.8351 31.4081 20.8646 31.3712C20.8941 31.3343 20.9187 31.2974 20.9433 31.2605C20.9679 31.2236 20.995 31.1892 21.0171 31.1522C21.0392 31.1153 21.0589 31.0661 21.0786 31.0243C21.0983 30.9825 21.1155 30.9505 21.1303 30.9112C21.145 30.8718 21.1623 30.8103 21.1771 30.7611C21.1918 30.7119 21.1992 30.6971 21.2065 30.6651C21.2175 30.6099 21.225 30.554 21.2287 30.4978C21.2287 30.4658 21.241 30.4314 21.2435 30.397C21.2459 30.3625 21.2435 30.2985 21.2435 30.2493C21.2435 30.2001 21.2435 30.1706 21.2435 30.1312C21.2435 30.0919 21.2262 30.0525 21.2213 30.0132C21.2164 29.9738 21.2065 29.9172 21.1918 29.8704C21.177 29.8237 21.1697 29.8065 21.1598 29.7745C21.15 29.7425 21.1254 29.6688 21.1032 29.6171L7.6879 0.365598L26.3114 26.6107C26.3114 26.6255 26.336 26.6403 26.3483 26.655C26.385 26.704 26.4244 26.7508 26.4664 26.7952L26.523 26.8494C26.5648 26.8888 26.6091 26.9257 26.6534 26.9601L26.7124 27.0044C26.7772 27.0513 26.8454 27.0933 26.9166 27.1298H26.9289C26.9983 27.164 27.0698 27.1936 27.143 27.2184L27.17 27.2307H27.2118C27.2675 27.2481 27.3242 27.2621 27.3816 27.2725L27.4505 27.2849C27.5271 27.2955 27.6044 27.3012 27.6817 27.302C27.7599 27.3012 27.838 27.2955 27.9154 27.2849L27.9819 27.2725C28.0401 27.2624 28.0976 27.2484 28.1541 27.2307H28.1959L28.2205 27.2184C28.2947 27.194 28.367 27.1644 28.437 27.1298C28.5079 27.0927 28.5761 27.0508 28.6412 27.0044L28.7002 26.9601C28.7445 26.9257 28.7888 26.8888 28.8306 26.8494L28.8872 26.7952C28.9292 26.7508 28.9686 26.704 29.0053 26.655L29.0422 26.6107L47.6608 0.316406L34.2455 29.5679C34.2233 29.6195 34.2061 29.6712 34.1889 29.7229C34.1717 29.7745 34.1643 29.7893 34.1545 29.8213C34.1446 29.8532 34.1372 29.9172 34.1274 29.964C34.1175 30.0107 34.1101 30.0427 34.1052 30.082C34.1003 30.1214 34.1052 30.1632 34.1052 30.2026C34.1028 30.2509 34.1028 30.2994 34.1052 30.3478C34.1052 30.3822 34.1052 30.4166 34.1175 30.4486C34.1298 30.4806 34.1176 30.5593 34.1397 30.6134C34.1397 30.6454 34.1593 30.6774 34.1692 30.7094C34.179 30.7414 34.1963 30.8102 34.2135 30.8594C34.2307 30.9086 34.2504 30.9358 34.2676 30.9727C34.2856 31.0157 34.3062 31.0576 34.3291 31.0981C34.3513 31.1375 34.3784 31.1719 34.403 31.2088L34.4792 31.3195C34.5112 31.3564 34.5456 31.3884 34.5776 31.4228C34.6096 31.4573 34.6268 31.4794 34.6538 31.504H34.6686L34.6859 31.5188C34.7433 31.5688 34.8042 31.6148 34.8679 31.6565L34.8901 31.6713C34.9571 31.713 35.0269 31.75 35.0991 31.782L35.1336 31.7992C35.2074 31.8294 35.283 31.8549 35.3599 31.8755H35.3846C35.4709 31.8976 35.5589 31.9124 35.6478 31.9198L67.6768 34.9261L35.6379 37.9324C35.575 37.9393 35.5126 37.95 35.451 37.9645C35.4245 37.9679 35.3982 37.9729 35.3722 37.9792C35.3146 37.9956 35.2579 38.0153 35.2025 38.0383C35.1754 38.0383 35.1484 38.0555 35.1213 38.0678C35.075 38.0891 35.0298 38.1129 34.986 38.1391L34.8876 38.1932C34.8532 38.2154 34.8211 38.2425 34.7867 38.2695C34.7523 38.2966 34.7104 38.3237 34.6735 38.3556C34.6366 38.3876 34.6735 38.3556 34.6735 38.3556C34.6735 38.3556 34.6219 38.4097 34.5973 38.4368C34.5727 38.4639 34.5309 38.5033 34.4989 38.5402L34.4226 38.6509C34.398 38.6878 34.3709 38.7222 34.3488 38.7616C34.3258 38.8021 34.3053 38.844 34.2873 38.887C34.2668 38.9235 34.2487 38.9613 34.2332 39.0002C34.2159 39.0494 34.2012 39.1011 34.1889 39.1503C34.1766 39.1995 34.1668 39.2142 34.1594 39.2462C34.1603 39.2502 34.1603 39.2545 34.1594 39.2585C34.1594 39.3126 34.1446 39.3667 34.1372 39.4233C34.1299 39.4799 34.1372 39.4898 34.1249 39.5242C34.1225 39.5726 34.1225 39.621 34.1249 39.6693C34.1225 39.7095 34.1225 39.7497 34.1249 39.7899C34.1249 39.8292 34.1397 39.8686 34.1471 39.908C34.1545 39.9473 34.1618 40.0039 34.1741 40.0507C34.1864 40.0974 34.1987 40.1146 34.2086 40.1491C34.2184 40.1835 34.243 40.2524 34.2652 40.3041L47.6805 69.5531L29.0422 43.3694Z" fill="#FFCC00" stroke="#030303" stroke-width="0.470146" stroke-miterlimit="10"/>
<g clip-path="url(#clip1_8_429)">
<path d="M17.6108 24.9683L24.6496 20.3424L44.6435 50.7655C44.9479 51.2276 45.1582 51.7453 45.2624 52.2887C45.3667 52.8322 45.3627 53.3909 45.2509 53.9329C45.1391 54.4749 44.9215 54.9895 44.6107 55.4473C44.2998 55.9052 43.9018 56.2973 43.4394 56.6012C42.9772 56.9049 42.4597 57.1147 41.9165 57.2184C41.3733 57.3222 40.8149 57.3179 40.2734 57.2059C39.7318 57.0939 39.2176 56.8763 38.7601 56.5655C38.3026 56.2548 37.9108 55.8569 37.6071 55.3948L17.6108 24.9683Z" fill="#5BF1CD" stroke="#030303" stroke-width="0.470146" stroke-linecap="round" stroke-linejoin="round"/>
<path d="M17.2664 4.55802L22.4224 12.4034L18.9413 19.3259L11.206 19.7748L6.04997 11.9294C5.96535 11.7991 5.84563 11.6955 5.70465 11.6302C5.56367 11.565 5.40717 11.5409 5.25309 11.5607C5.099 11.5805 4.95367 11.6433 4.83375 11.742C4.71383 11.8408 4.62408 11.9714 4.57512 12.1188C3.93058 14.1117 3.78339 16.232 4.14628 18.2949C4.50918 20.3577 5.37121 22.3004 6.65718 23.9536C8.54923 26.3738 11.2432 28.0389 14.254 28.6492C17.2647 29.2594 20.3944 28.7748 23.0795 27.2823C24.6163 26.4193 25.959 25.2493 27.0243 23.8451C28.0896 22.4409 28.8545 20.8324 29.2716 19.1199C29.6887 17.4074 29.7491 15.6275 29.4489 13.8907C29.1486 12.1539 28.4941 10.4974 27.5263 9.0243C26.4744 7.41968 25.0759 6.07163 23.4337 5.07936C21.7915 4.08708 19.9475 3.47589 18.0378 3.29093C17.8838 3.27644 17.7288 3.30553 17.5906 3.3749C17.4523 3.44428 17.3364 3.55116 17.2559 3.68328C17.1755 3.81541 17.1339 3.96744 17.1357 4.12211C17.1376 4.27679 17.1828 4.42786 17.2664 4.55802Z" fill="#5BF1CD" stroke="#030303" stroke-width="0.470146" stroke-miterlimit="10"/>
</g>
</g>
<defs>
<clipPath id="clip0_8_429">
<rect width="1440" height="4067" fill="white" transform="translate(-1335 -964)"/>
</clipPath>
<clipPath id="clip1_8_429">
<rect width="26.1096" height="59.1075" fill="white" transform="translate(0.180176 14.5483) rotate(-33.3128)"/>
</clipPath>
</defs>
</svg>
