<svg width="164" height="39" viewBox="0 0 164 39" fill="none" xmlns="http://www.w3.org/2000/svg">
<path d="M49.3989 0.957031H51.4661V1.44343H50.7061V3.87542H50.1589V1.44343H49.3989V0.957031ZM51.7093 0.957031H52.7632L52.9152 3.51062H52.976L53.1381 0.957031H54.192V3.87542H53.6448V1.26103H53.584L53.4016 3.87542H52.4896L52.3173 1.26103H52.2565V3.87542H51.7093V0.957031Z" fill="#030303"/>
<path d="M44.2583 0.957031H45.1095V7.25993H48.8183V8.05033H44.2583V0.957031Z" fill="#030303"/>
<path d="M38.8643 0.957031H39.7155V7.25993H43.4242V8.05033H38.8643V0.957031Z" fill="#030303"/>
<path d="M33.4399 0.957031H37.9391V1.74743H36.1151V7.25993H37.9391V8.05033H33.4399V7.25993H35.2639V1.74743H33.4399V0.957031Z" fill="#030303"/>
<path d="M28.9073 5.13194V8.05033H28.0562V0.957031H30.5895C30.9543 0.957031 31.2718 1.01108 31.542 1.11916C31.8122 1.2205 32.0352 1.35899 32.2108 1.53463C32.3932 1.71027 32.5283 1.91632 32.6161 2.15276C32.7107 2.38245 32.758 2.62565 32.758 2.88235V3.18635C32.758 3.44306 32.7107 3.68964 32.6161 3.92608C32.5283 4.16253 32.3932 4.37195 32.2108 4.55435C32.0284 4.72999 31.8021 4.87186 31.5319 4.97994C31.2616 5.08128 30.9475 5.13194 30.5895 5.13194H28.9073ZM28.9073 4.34155H30.4881C31.4339 4.34155 31.9068 3.93622 31.9068 3.12555V2.94315C31.9068 2.58511 31.7886 2.298 31.5521 2.08183C31.3224 1.85889 30.9678 1.74743 30.4881 1.74743H28.9073V4.34155Z" fill="#030303"/>
<path d="M26.2898 7.68553H26.4114V0.957031H27.2626V8.05033H25.5602L23.5133 1.32183H23.3917V8.05033H22.5405V0.957031H24.2429L26.2898 7.68553Z" fill="#030303"/>
<path d="M17.3594 0.957031H21.6559V1.74743H18.2106V4.09835H21.5951V4.88875H18.2106V7.25993H21.7167V8.05033H17.3594V0.957031Z" fill="#030303"/>
<path d="M11.9653 0.957031H16.2618V1.74743H12.8165V4.09835H16.201V4.88875H12.8165V7.25993H16.3226V8.05033H11.9653V0.957031Z" fill="#030303"/>
<path d="M10.9391 8.05033H10.0879V5.67914C10.0879 5.5035 10.0474 5.36839 9.96632 5.27381C9.88525 5.17923 9.74339 5.13194 9.54072 5.13194H7.33167V8.05033H6.48047V0.957031H9.01379C9.37859 0.957031 9.6961 1.01108 9.96632 1.11916C10.2365 1.2205 10.4595 1.35899 10.6351 1.53463C10.8175 1.71027 10.9526 1.91632 11.0404 2.15276C11.135 2.38245 11.1823 2.62565 11.1823 2.88235V3.18635C11.1823 3.44982 11.108 3.71328 10.9594 3.97675C10.8175 4.24022 10.5946 4.44288 10.2906 4.58475V4.70635C10.4932 4.74012 10.652 4.82119 10.7668 4.94954C10.8817 5.0779 10.9391 5.2603 10.9391 5.49674V8.05033ZM7.33167 4.34155H8.91246C9.3921 4.34155 9.74676 4.24021 9.97645 4.03755C10.2129 3.82813 10.3311 3.52413 10.3311 3.12555V2.94315C10.3311 2.58511 10.2129 2.298 9.97645 2.08183C9.74676 1.85889 9.3921 1.74743 8.91246 1.74743H7.33167V4.34155Z" fill="#030303"/>
<path d="M2.64674 4.64532H5.80833V8.0501H5.01793V7.19891H4.89633C4.78149 7.49615 4.57882 7.73597 4.28834 7.91837C3.99785 8.10077 3.66007 8.19197 3.27501 8.19197C2.51163 8.19197 1.91039 7.94539 1.47128 7.45224C1.03893 6.95909 0.822754 6.23962 0.822754 5.29385V3.71306C0.822754 2.79431 1.04231 2.0816 1.48142 1.57494C1.92053 1.06827 2.5319 0.814941 3.31554 0.814941C3.72087 0.814941 4.07892 0.882497 4.38967 1.01761C4.70042 1.14596 4.96051 1.32836 5.16993 1.5648C5.37935 1.79449 5.53811 2.06809 5.6462 2.3856C5.75428 2.69635 5.80833 3.03075 5.80833 3.3888V3.51039H4.95713V3.3888C4.95713 3.15911 4.92336 2.93618 4.8558 2.72C4.795 2.50382 4.69705 2.31467 4.56194 2.15253C4.43358 1.98365 4.26469 1.85191 4.05527 1.75734C3.85261 1.656 3.60603 1.60534 3.31554 1.60534C2.76834 1.60534 2.35626 1.80463 2.07928 2.2032C1.80906 2.60178 1.67395 3.12533 1.67395 3.77386V5.23305C1.67395 5.92887 1.80906 6.46593 2.07928 6.84424C2.35626 7.2158 2.7751 7.40157 3.33581 7.40157C3.84247 7.40157 4.23767 7.23944 4.5214 6.91518C4.81189 6.59091 4.95713 6.13829 4.95713 5.55732V5.43572H2.64674V4.64532Z" fill="#030303"/>
<path d="M146.652 13.8896H154.528C157.496 13.8896 159.665 14.5974 161.035 16.0129C162.405 17.4283 163.09 19.6885 163.09 22.7935V28.9577C163.09 32.0626 162.405 34.3228 161.035 35.7383C159.665 37.1537 157.496 37.8615 154.528 37.8615H146.652V35.1561H148.707V16.5608H146.652V13.8896ZM154.117 35.1903C155.168 35.1903 156.069 35.0876 156.823 34.8821C157.599 34.6767 158.238 34.3342 158.741 33.8548C159.243 33.3525 159.608 32.6904 159.836 31.8685C160.088 31.0466 160.213 30.0079 160.213 28.7522V22.9989C160.213 21.7433 160.088 20.7045 159.836 19.8826C159.608 19.0607 159.243 18.4101 158.741 17.9306C158.238 17.4283 157.599 17.0745 156.823 16.869C156.069 16.6635 155.168 16.5608 154.117 16.5608H151.583V35.1903H154.117Z" fill="#030303"/>
<path d="M128.902 13.8896H131.779V35.1903H144.313V37.8615H128.902V13.8896Z" fill="#030303"/>
<path d="M110.571 13.8896H125.776V16.5608H119.612V35.1903H125.776V37.8615H110.571V35.1903H116.735V16.5608H110.571V13.8896Z" fill="#030303"/>
<path d="M94.6017 13.8896V29.7796C94.6017 31.7201 95.0469 33.1927 95.9373 34.1972C96.8505 35.1789 98.1861 35.6698 99.944 35.6698C101.702 35.6698 103.026 35.1789 103.916 34.1972C104.83 33.1927 105.286 31.7201 105.286 29.7796V13.8896H108.163V29.7796C108.163 32.5649 107.432 34.6881 105.971 36.1492C104.51 37.6104 102.501 38.3409 99.944 38.3409C97.387 38.3409 95.378 37.6104 93.9168 36.1492C92.4557 34.6881 91.7251 32.5649 91.7251 29.7796V13.8896H94.6017Z" fill="#030303"/>
<path d="M79.4205 26.3549H90.1051V37.8614H87.434V34.9848H87.023C86.6349 35.9893 85.95 36.7998 84.9683 37.4162C83.9866 38.0327 82.8451 38.3409 81.5438 38.3409C78.9639 38.3409 76.932 37.5076 75.4481 35.8409C73.9869 34.1743 73.2563 31.7429 73.2563 28.5467V23.2044C73.2563 20.0994 73.9983 17.6908 75.4823 15.9786C76.9663 14.2663 79.0324 13.4102 81.6807 13.4102C83.0506 13.4102 84.2606 13.6385 85.3108 14.0951C86.361 14.5288 87.2399 15.1453 87.9477 15.9443C88.6554 16.7206 89.1919 17.6452 89.5572 18.7182C89.9225 19.7684 90.1051 20.8985 90.1051 22.1085V22.5195H87.2285V22.1085C87.2285 21.3323 87.1143 20.5789 86.886 19.8483C86.6806 19.1177 86.3495 18.4785 85.8929 17.9306C85.4592 17.3598 84.8884 16.9146 84.1807 16.595C83.4957 16.2525 82.6624 16.0813 81.6807 16.0813C79.8315 16.0813 78.4388 16.7548 77.5028 18.1018C76.5896 19.4488 76.133 21.2181 76.133 23.4098V28.3412C76.133 30.6927 76.5896 32.5077 77.5028 33.7862C78.4388 35.0419 79.8543 35.6697 81.7492 35.6697C83.4615 35.6697 84.7971 35.1218 85.7559 34.0259C86.7377 32.9301 87.2285 31.4004 87.2285 29.437V29.0261H79.4205V26.3549Z" fill="#030303"/>
<path d="M35.7026 13.8896H38.7847L45.0517 36.6286H45.4626L51.7295 13.8896H54.8116L48.031 37.8615H42.4832L35.7026 13.8896Z" fill="#030303"/>
<path d="M19.7681 13.8896H34.2881V16.5608H22.6447V24.5057H34.0827V27.1769H22.6447V35.1903H34.4936V37.8615H19.7681V13.8896Z" fill="#030303"/>
<path d="M0.819824 13.8896H8.69628C11.6642 13.8896 13.8331 14.5974 15.2029 16.0129C16.5727 17.4283 17.2577 19.6885 17.2577 22.7935V28.9577C17.2577 32.0626 16.5727 34.3228 15.2029 35.7383C13.8331 37.1537 11.6642 37.8615 8.69628 37.8615H0.819824V35.1561H2.87455V16.5608H0.819824V13.8896ZM8.28534 35.1903C9.33553 35.1903 10.2373 35.0876 10.9907 34.8821C11.767 34.6767 12.4062 34.3342 12.9085 33.8548C13.4107 33.3525 13.776 32.6904 14.0043 31.8685C14.2555 31.0466 14.381 30.0079 14.381 28.7522V22.9989C14.381 21.7433 14.2555 20.7045 14.0043 19.8826C13.776 19.0607 13.4107 18.4101 12.9085 17.9306C12.4062 17.4283 11.767 17.0745 10.9907 16.869C10.2373 16.6635 9.33553 16.5608 8.28534 16.5608H5.75117V35.1903H8.28534Z" fill="#030303"/>
</svg>
