<svg version="1.2" xmlns="http://www.w3.org/2000/svg" viewBox="0 0 400 400" width="400" height="400">
	<title>GG Logo</title>
	<style>
		.s0 { fill: #2ec62c } 
	</style>
	<path id="GG" class="s0" aria-label="GG"  d="m119.9 288.8q-24 0-41.1-11.5-17-11.5-26.1-31.4-8.9-20.2-8.9-45.9 0-25.6 9.1-45.8 9.1-20.2 26.2-31.7 17.3-11.7 41.3-11.7 20.4 0 34.3 7.4 14.1 7.4 22.3 20.2 8.4 12.7 11.5 28.5l-21.6 1.5q-3.1-16.6-13.9-26.9-10.8-10.6-32.6-10.6-19.5 0-31.7 9.6-12 9.6-17.8 25.5-5.5 15.6-5.5 34 0 19.5 5.8 35.1 5.7 15.3 18 24.5 12.2 9.1 31.2 9.1 15.1 0 26.1-6.7 11.1-7 17.1-18.5 6-11.5 6.2-25h-49v-19.7h68.2v86.2h-15.4l-1.4-39.4 2.9 3.4q-2.9 11.5-11.1 20.6-8.1 8.9-19.6 14.2-11.3 5-24.5 5zm168 0q-24 0-41.1-11.5-17-11.5-26.1-31.4-8.9-20.2-8.9-45.9 0-25.6 9.1-45.8 9.1-20.2 26.2-31.7 17.3-11.7 41.3-11.7 20.4 0 34.3 7.4 14.1 7.4 22.3 20.2 8.4 12.7 11.5 28.5l-21.6 1.5q-3.1-16.6-13.9-26.9-10.8-10.6-32.6-10.6-19.5 0-31.7 9.6-12 9.6-17.8 25.5-5.5 15.6-5.5 34 0 19.5 5.8 35.1 5.7 15.3 18 24.5 12.2 9.1 31.2 9.1 15.1 0 26.1-6.7 11.1-7 17.1-18.5 6-11.5 6.2-25h-49v-19.7h68.2v86.2h-15.4l-1.4-39.4 2.9 3.4q-2.9 11.5-11.1 20.6-8.1 8.9-19.6 14.2-11.3 5-24.5 5z"/>
</svg>