<svg width="1920" height="763" viewBox="0 0 1920 763" fill="none" xmlns="http://www.w3.org/2000/svg">
<path d="M130.14 118.285C131.384 118.758 135.58 121.225 138.404 122.925C138.894 123.216 139.344 123.48 139.721 123.693C139.306 123.649 138.781 123.5 138.195 123.285C133.659 121.501 125.492 116.493 130.14 118.285ZM390.314 390.652C389.696 387.201 389.043 383.739 388.362 380.317C389.049 390.179 390.124 403.478 390.028 412.759C390.015 414.279 388.832 410.38 388.891 413.966C388.934 417.542 390.387 416.818 390.618 422.059C391.049 427.891 389.365 455.075 388.254 464.868C388.053 467.186 387.829 469.539 387.583 471.88C383.193 504.761 378.641 540.676 344.858 578.035C341.142 581.831 337.32 584.977 333.61 587.606C337.814 584.494 341.539 581.125 344.637 577.82C353.235 568.184 354.201 565.352 353.491 566.091C352.592 566.831 349.088 571.303 343.589 576.805C333.085 587.479 320.958 593.346 315.594 595.911C313.995 596.643 313.407 597.77 307.363 600.581C301.441 603.29 289.906 607.387 271.557 609.462C269.651 609.69 267.696 609.865 265.695 609.98C244.286 610.36 244.612 607.589 240.76 606.53C237.677 604.978 228.479 603.881 206.836 595.258C219.21 601.964 223.502 603.542 219.632 602.691C216.004 601.849 206.158 597.988 197.604 593.674C183.654 586.211 179.677 581.375 174.629 576.974C169.216 572.58 148.231 547.807 140.251 537.694C137.359 534.166 131.965 529.65 128.287 525.02C126.91 523.286 125.919 521.659 124.686 519.755C123.216 517.592 121.581 515.181 119.345 512.028C103.801 491.057 94.102 462.119 90.4459 442.214C87.0687 425.578 87.5116 411.702 88.6423 399.237C90.5806 421.523 91.6522 382.316 92.6902 381.596C93.8744 377.725 92.9051 384.668 92.3419 391.267C91.7724 397.854 91.5381 403.959 92.574 396.197C94.3733 378.83 97.8038 363.805 101.432 349.559C102.789 344.331 104.485 339.319 106.395 334.607C102.223 345.134 103.791 337.46 108.006 327.153C112.234 316.767 119.322 305.74 122.044 303.028C119.32 302.999 140.047 278.343 157.749 262.39C177.004 243.92 195.182 234.697 200.079 230.95C202.408 229.649 185.393 236.485 223.566 216.629C227.666 214.641 226.575 216.286 228.651 215.149C229.407 214.738 232.075 212.115 236.069 209.66C238.722 208.042 241.942 206.496 245.485 205.655C248.694 205.165 230.369 214.413 272.362 196.581C256.682 199.429 313.141 179.093 336.881 173.513C340.126 172.663 342.814 172.003 344.563 171.608C341.899 171.971 339.271 172.343 336.649 172.726C336.318 172.774 335.985 172.822 335.65 172.871C335.985 172.799 336.311 172.73 336.63 172.661C350.119 169.769 352.784 168.141 356.135 167.326C366.564 164.719 384.764 162.087 397.48 161.732C400.941 161.567 404.221 161.435 407.191 161.302C423.172 160.828 423.243 158.714 442.228 160.65C437.73 159.871 433.254 159.2 428.763 158.628C441.868 159.152 455.063 160.465 468.714 163.005C437.096 160.843 475.249 163.833 478.185 164.977C482.368 165.847 476.131 165.451 483.157 167.013C483.368 167.059 483.45 166.99 483.722 166.93C484.485 166.866 486.859 166.65 495.904 169.677C521.212 179.576 515.496 179.682 524.352 184.359C524.949 184.798 523.495 182.475 536.518 190.743C573.71 216.311 536.685 191.323 534.325 190.262C533.264 189.658 535.67 192.427 534.157 192.375C532.237 192.391 528.788 189.251 507.185 177.841C521.829 185.43 521.334 187.804 522.918 188.64C524.691 189.436 543.956 202.21 544.595 202.803C553.444 208.549 546.634 202.178 548.411 203.221C548.854 203.482 551.088 205.246 554.028 207.527C562.77 214.11 573.739 224.235 578.507 225.585C585.054 236.602 573.507 223.235 553.378 208.399C552.991 208.124 552.604 207.849 552.217 207.576C551.582 207.29 552.023 207.802 553.096 208.777C557.968 212.786 569.334 223.233 569.914 223.873C592.323 245.248 581.621 231.572 587.584 235.057C590.648 236.902 597.623 246.756 591.642 237.175C610.059 256.192 597.979 245.467 599.054 246.855C600.612 248.929 607.228 255.15 607.882 256.017C608.896 257.329 604.437 253.615 608.61 258.636C609.28 259.435 617.347 266.315 608.779 255.836C620.716 269.363 620.493 267.465 622.698 273.547C632.171 278.715 628.541 281.069 628.722 283.904C628.752 284.487 628.943 285.088 629.449 285.742C637.265 295.843 637.526 290.751 638.099 291.147C642.029 293.957 663.488 321.423 669.29 327.678C665.189 326.702 651.701 306.598 647.774 302.742C634.878 289.981 663.17 323.047 652.277 315.057C656.456 318.681 660.648 322.339 664.803 325.965C669.604 334.977 659.898 324.647 677.582 344.848C681.75 347.099 665.274 330.408 669.333 333.122C671.733 334.726 681.784 346.612 682.307 346.569C682.906 346.474 673.477 336.032 675.504 337.23C679.956 339.875 711.192 380.372 685.711 350.939C692.647 359.304 693.543 365.802 700.342 372.368C704.732 376.595 686.707 347.284 718.577 387.284C718.018 389.162 705.206 371.837 704.747 371.47C704.106 370.975 703.764 376.321 704.054 376.956C705.124 379.226 739.818 418.103 745.418 427.446C745.031 425.892 747.722 428.66 751.58 433.065C759.324 441.982 771.916 457.187 774.245 459.051C775.182 459.824 773.134 455.616 774.098 456.48C780.075 462.024 792.826 478.916 799.604 485.278C807.186 492.519 807.01 490.685 807.428 491.101C810.792 494.194 807.562 492.331 809.657 494.184C811.356 495.702 818.41 501.838 825.399 507.343C831.399 512.114 836.938 516.197 837.545 516.554C837.929 516.775 834.741 512.829 840.165 516.532C841.146 517.111 839.476 518.17 855.979 528.613C876.018 540.922 843.499 517.972 852.532 522.068C863.655 532.378 864.63 530.132 867.939 532.494C869.087 533.302 877.016 540.583 887.181 546.267C879.788 542.373 872.528 538.35 865.397 534.168C872.016 538.86 885.904 546.616 891.692 550.242C894.487 552.011 891.331 552.07 897.701 555.521C899.082 556.212 906.135 555.884 888.861 548.165C888.217 546.239 895.576 551.429 899.445 553.076C900.028 553.323 903.28 552.518 907.341 556.269C908.23 557.046 896.527 556.703 915.986 564.729C918.948 565.925 922.702 567.323 927.342 568.886C928.47 569.268 925.152 566.711 926.264 567.066C927.012 567.318 935.302 571.711 936.307 572.047C937.32 572.392 933.615 569.611 934.833 569.996C941.061 571.961 947.288 578.869 935.26 572.868C939.108 575.201 942.998 577.52 946.902 579.817C943.663 575.327 953.642 582.107 959.41 584.587C996.454 600.325 972.492 587.835 979.188 589.783C989.997 592.813 980.332 593.782 996.151 598.903C997.629 599.323 979.835 590.01 1015.6 605.769C1010.22 603.699 1004.84 601.595 999.484 599.463C1001.55 603.188 1018.85 607.145 1020.12 607.581C1034.51 612.826 1024.53 610.051 1046.2 616.797C1047.88 617.312 1051.05 618.994 1054.55 620.177C1055.09 620.36 1055.64 620.531 1056.18 620.684C1063.45 622.698 1060.62 621.446 1054.91 619.203C1047.16 616.178 1034.05 611.078 1033.67 610.263C1033.5 609.909 1044.49 614.061 1055.34 618.007C1065.57 621.753 1075.48 625.177 1076.12 625.51C1081.77 628.617 1057.36 619.57 1061.58 622.443C1063.64 624.387 1120.86 640.89 1132.79 642.63C1146.35 645.932 1152.33 650.39 1153.05 646.485C1155.67 650.02 1158.7 649.532 1160.79 649.294C1161.37 649.225 1161.87 649.177 1162.28 649.245C1184.56 652.915 1184.68 652.898 1204.16 654.865C1208.46 655.281 1211.98 656.862 1213.52 656.827C1214.42 656.801 1212.9 655.359 1217.29 655.431C1223.36 655.664 1259.61 660.146 1262.28 660.928C1264.94 661.85 1246.88 660.051 1250.02 661.449C1263.12 662.634 1275.71 663.201 1288.87 664.013C1294.33 664.346 1291.48 665.012 1293.85 665.144C1294.6 665.198 1305.5 665.279 1310.48 665.104C1312.12 665.052 1313.12 664.983 1312.93 664.903C1312.73 664.821 1311.86 664.732 1310.49 664.634C1299.35 664.067 1254.47 661.376 1268.25 660.996C1271.23 660.938 1281.58 663.443 1280.05 661.071C1290.24 661.776 1300.42 662.36 1310.56 662.803C1352.13 664.626 1393.52 663.955 1434.66 660.355C1405.43 664.951 1372.05 664.972 1340.99 664.964C1336.73 664.997 1322.31 664.533 1324.04 665.701C1350.55 666.625 1383.35 665.29 1408.62 664.245C1409.43 664.215 1406.53 665.445 1409.57 665.402C1415.26 665.371 1433.52 662.121 1436.63 662.196C1437.18 662.256 1426.84 664.593 1430.1 665.155C1438.5 666.596 1440.09 661.488 1447.09 660.78C1448.19 660.667 1450.61 660.504 1453.82 660.274C1466.32 659.484 1490.77 657.021 1497.62 654.507C1506.82 651.374 1471.08 657.945 1473.51 656.094C1497.67 651.31 1522.17 647.952 1544.63 642.239C1545.02 642.137 1541.34 641.99 1546.31 640.613C1554.95 638.187 1557.6 638.954 1561.89 638.039C1564.91 637.394 1572.79 635.157 1578.54 633.555C1581.6 632.708 1584.06 632.056 1584.86 632.005C1585.16 631.989 1582.32 634.357 1581.83 634.543C1580.84 634.928 1579.94 635.234 1579.11 635.476C1574.15 636.915 1571.86 636.127 1571.31 636.266C1568.89 636.883 1566.72 638.233 1564.51 638.797C1560.88 639.719 1558.72 639.619 1553.93 640.808C1550.62 641.618 1554.12 642.032 1550.93 642.791C1549.74 643.096 1536.46 643.34 1535.95 646.474C1535.88 646.899 1556.08 642.833 1579.33 636.245C1608.78 628.086 1643.43 615.408 1648.94 612.837C1640.07 615.801 1631.16 618.664 1622.26 621.398C1640.42 616.021 1660.86 605.531 1663.63 608.195C1672.89 604.614 1682.15 600.906 1691.23 597.119C1710.46 589.071 1725.92 582.099 1741.26 572.06C1755.34 563.02 1769.85 552.647 1783.05 542.236C1795.49 532.537 1803.74 524.072 1814.6 511.205C1817.69 507.552 1820.77 503.794 1823.78 500.015C1831.42 490.655 1829.32 497.38 1840.57 480.889C1836.99 484.649 1833.35 488.364 1829.66 492.018C1836.14 484.941 1859.41 452.394 1864.26 442.647C1864.63 441.974 1864.93 441.416 1865.14 440.994C1865.53 440.142 1864.49 438.103 1869.63 428.281C1874.14 419.507 1876.18 418.73 1878.84 414.086C1881.06 410.175 1882.88 405.427 1883.52 404.253C1884.02 403.35 1885.04 403.388 1886.24 401.204C1889.96 394.294 1884.94 398.995 1890.89 393.133C1890.22 394.915 1889.54 396.692 1888.86 398.467C1893.2 390.044 1899.55 378.578 1894.6 391.737C1893.73 393.993 1893.75 391.731 1893.02 393.378C1862.77 456.539 1889.47 407.488 1897.68 383.955C1899.62 381.187 1904.1 370.719 1907.64 361.19C1910.9 352.532 1913.33 344.826 1913.62 344.353C1914.48 342.956 1913.65 348.91 1916.94 341.84C1918.41 340.464 1928.12 296.135 1926.14 312.491C1925.95 316.015 1920.03 336.865 1918.22 341.97C1923.11 333.872 1926.06 316.47 1927.06 305.847C1927.48 301.845 1927.71 298.964 1927.9 298.075C1930.77 284.936 1925.58 323.968 1931.42 294.185C1935.15 271.426 1930.08 292.525 1930.55 283.685C1930.78 280.133 1933.31 266.091 1933.16 258.624C1933.15 255.727 1932.82 253.866 1932.05 254.032C1931.99 245.41 1933.28 250.479 1933.42 249.417C1933.65 248.312 1932.58 231.594 1932.48 226.432C1932.49 225.788 1934.07 227.669 1934.13 227.001C1934.22 226.069 1933.3 218.137 1932.33 213.547L1932.88 216.113C1932.27 213.897 1931.79 212.322 1931.7 212.129C1931.52 211.732 1931.35 215.968 1930.64 214.432C1929.9 212.535 1925.67 197.132 1924.98 196.573C1924.2 195.406 1930.09 214.168 1927.81 211.438C1925.81 202.362 1920.28 189.039 1917.31 185.34C1918.07 186.145 1920.93 193.407 1921.74 196.294C1920.56 195.953 1918.54 191.62 1917.2 188.453C1915.86 185.244 1915.26 183.079 1917 184.993C1914.93 182.465 1915.39 184.593 1913.96 183.439C1913.78 183.296 1913.25 182.334 1912.75 181.577C1912.24 180.796 1911.85 180.351 1911.64 180.349C1911.59 180.345 1911.62 180.765 1911.71 181.439C1911.79 182.097 1911.85 182.864 1911.52 182.653C1911.19 182.472 1910.55 181.574 1910.21 181.214C1910.06 181.047 1909.98 181.03 1910.35 181.535C1910.77 182.046 1911.47 183.107 1914.24 185.351L1919.19 188.75C1921.66 190.234 1924.24 190.979 1924.86 191.087C1925.59 191.224 1924.88 191.025 1924.71 190.959C1924.23 190.771 1924.06 190.635 1924.37 190.574C1924.65 190.508 1925.26 190.499 1925.33 190.393C1925.44 190.288 1924.88 190.068 1923.74 189.537C1922.62 189.021 1921.1 188.171 1920.01 187.354L1915.25 184.081C1912.57 181.625 1912.56 180.991 1912.49 180.655C1912.5 180.635 1912.65 180.716 1913.09 181.063C1913.54 181.396 1914.23 181.999 1915.94 183.203L1920.58 186.389C1922.54 187.292 1925.42 187.877 1925.83 187.642C1926.37 187.464 1924.84 186.956 1924.83 186.91C1924.62 186.318 1926.45 186.415 1926.19 186.256C1926.06 186.163 1923.34 185.259 1921.88 184.185L1917.53 181.199C1916.25 180.104 1915.82 179.523 1915.62 179.162C1915.44 178.811 1915.51 178.642 1915.81 178.643C1916.27 179.032 1916.95 179.64 1918.1 180.478L1922.35 183.392C1924.8 184.633 1927.69 184.884 1926.19 184.34C1926.85 184.321 1926.81 184.24 1926.11 183.923C1925.43 183.616 1924.14 183.007 1923.02 182.254L1918.92 179.443C1916.47 177.316 1916.36 176.709 1916.35 176.672C1916.41 176.651 1916.86 177.219 1917.36 178.011C1918.38 179.622 1919.67 182.131 1920.82 184.618C1923.16 189.665 1925.14 194.721 1926.54 196.847C1924.27 190.455 1921.77 184.311 1919.83 180.12C1918.88 178.041 1918.07 176.467 1917.85 175.841C1917.68 175.194 1917.98 175.632 1920.59 177.338L1924.38 179.94C1926.56 180.556 1927.42 179.878 1927.67 178.91C1927.97 178.172 1927.29 177.335 1926.52 176.323L1923.2 174.049C1922.24 172.972 1922.16 172.524 1922.16 172.298C1922.18 172.078 1922.32 172.048 1922.39 171.978C1922.57 171.829 1922.66 171.711 1922.84 171.765C1923.04 171.83 1923.26 172.07 1924.18 172.819L1927.31 174.971C1928.02 175.431 1929.04 175.899 1928.6 175.946C1928.25 176.024 1926.71 175.921 1926.59 175.877C1926.26 175.734 1926.08 175.62 1926.1 175.539C1926.1 175.539 1926.1 175.539 1926.1 175.539C1926.1 175.305 1927.83 175.366 1928.55 175.321C1928.91 175.296 1928.98 175.236 1928.75 175.063C1928.53 174.895 1928.06 174.598 1927.71 174.294L1924.67 172.204C1923.85 171.462 1923.67 171.137 1923.62 171.007C1923.58 170.88 1923.72 170.951 1923.87 171.064C1924.18 171.308 1924.55 171.707 1924.67 171.733C1925.16 171.885 1925.4 170.648 1925.73 169.67C1925.89 169.182 1926.1 168.781 1926.37 168.544C1926.63 168.302 1926.92 168.194 1927.03 168.082C1927.04 168.05 1926.94 167.849 1927.17 167.966C1927.38 168.065 1927.87 168.497 1928.42 169.047C1929.52 170.154 1930.71 171.433 1930.39 169.799C1930.23 168.945 1929.8 167.869 1929.41 167.069C1929.05 166.273 1928.6 165.79 1929.34 166.318L1931.53 167.823C1931.52 167.748 1931.51 167.693 1931.36 167.609C1931.22 167.528 1931 167.446 1930.98 167.415C1930.86 167.244 1931.11 167.17 1931.39 167.124C1931.68 167.084 1931.84 167.019 1932.02 166.986L1929.94 165.557C1929.28 164.701 1930.76 165.973 1931.65 167.196C1932.64 168.459 1933.45 169.691 1933.61 169.749C1933.76 169.82 1933.06 167.808 1932.4 166.185C1931.69 164.468 1931.37 163.644 1931.53 163.557C1931.61 163.41 1932.12 163.454 1933.33 164.508C1934.49 165.48 1936.05 167.239 1937.16 168.163C1938.83 169.516 1936.54 164.187 1937.13 165.016C1937.75 165.001 1944.83 180.817 1945.09 181.841C1945.75 182.999 1945.15 178.724 1945.59 179.216C1946.24 179.879 1947.91 185.509 1947.98 184.685C1948.38 183.887 1942.49 161.958 1942.8 162.022C1944.5 161.053 1951.82 184.86 1947.19 161.688C1947.19 161.484 1943.9 156.997 1943.8 156.933C1943.25 155.269 1945.79 157.59 1946.94 158.558C1947.53 159.026 1947.82 159.067 1947.28 157.93C1946.66 156.853 1945.56 154.229 1941.61 150.844C1941.6 150.836 1941.57 150.815 1941.56 150.808C1941.14 150.567 1940.69 150.331 1940.22 150.105C1940.69 150.312 1941.15 150.533 1941.58 150.765C1941.6 150.772 1941.63 150.795 1941.64 150.804C1949.29 157.565 1951 162.914 1952.52 164.688C1953.82 166.659 1953.85 166.027 1953.43 164.391C1952.71 161.151 1949.21 154.014 1951.98 156.173C1954.57 157.812 1961.78 173.297 1961.74 173.322C1962.32 171.336 1959.37 166.713 1959.13 164.771C1959.17 163.65 1966.04 177.336 1965.55 173.866C1965.56 172.04 1958.69 156.902 1958.05 156.194C1955.23 149.665 1960.31 156.769 1960.03 155.157C1959.95 154.612 1958.62 151.95 1956.87 149.27C1955.18 146.594 1952.71 143.825 1952.53 143.626C1952.42 143.362 1956.07 146.684 1958.72 150.097C1961.48 153.533 1963.89 157.237 1964.79 158.482C1966.24 160.397 1962.82 152.241 1963.7 153.599C1969.71 162.135 1973.7 181.331 1970.29 162.19C1970.11 161.014 1966.7 154.121 1966.55 153.863C1965.32 148.982 1971.94 161.932 1973.45 163.761C1976.62 167.126 1967.78 148.998 1975.44 163.906C1973.78 158.705 1972.08 154.417 1969.74 149.914C1966.96 145.256 1965.79 141.058 1956.07 132.614C1955.57 132.188 1953.93 131.117 1953.38 130.764C1950.92 129.338 1948.1 128.066 1945.27 127.133C1948.01 128.036 1950.85 129.287 1953.39 130.743C1953.95 131.096 1955.58 132.168 1956.09 132.595C1964.25 139.418 1966.16 143.547 1968.87 147.368C1971.29 151.129 1972.98 154.14 1974.44 156.691C1977.29 161.76 1978.99 164.749 1979.87 165.531C1980.71 166.285 1980.7 164.786 1979.29 160.49C1977.45 155.942 1976.36 149.866 1966.41 136.482C1973.22 145.51 1974.33 147.883 1976.09 149.732C1977.59 151.415 1978.45 151.857 1979.45 153.959C1981.12 156.804 1986.12 176.855 1987.6 166.235C1987.92 164.959 1982.06 153.014 1984.85 156.338C1995.8 185.423 1986.2 156.854 1986.02 156.546C1987.94 156.292 1996.58 178.408 2001.16 198.704C2001.29 199.27 2001.68 200.954 2001.76 201.527C2004.78 220.042 2004.61 237.405 2004.8 242.901C2005.06 250.175 2005.55 256.981 2005.92 262.354C2006.28 267.585 2006.54 271.478 2006.42 272.998C2005.54 283.111 2005.09 274.613 2004.45 276.832C2004.09 279.118 2002.45 307.733 2001.85 309.019C2000.4 314.31 1999.98 308.603 1999.81 309.153C1999.26 310.91 1998.45 314.927 1997.42 319.982C1994.86 333.598 1989.29 355.796 1986.6 362.947C1987.67 363.001 1993.77 342.306 1991.42 355.661C1988.5 371.18 1984.19 370.571 1983.93 370.916C1982.01 376.592 1980.02 382.133 1977.95 387.641C1965.55 420.391 1951.17 451.987 1933.18 482.957C1918.84 507.438 1902.88 530.235 1885.52 552.082C1888.05 552.977 1913.56 515.696 1914.06 514.768C1917.69 511.863 1894.93 545.366 1878.16 564.454C1872.35 571.287 1867.22 576.734 1865.29 578.524C1870.03 573.964 1874.48 569.422 1878.75 564.95C1879.43 564.241 1880.14 563.497 1880.81 562.782C1880.38 563.594 1879.84 564.483 1879.26 565.373C1872.53 576.257 1851.18 595.135 1838.14 606.294C1833.76 610.297 1843.22 603.859 1843.13 603.975C1841.29 606.007 1838.82 608.16 1836.86 609.622C1833.84 611.879 1831.91 612.651 1835.14 609.092C1823.46 619.821 1824.46 617.251 1814.79 624.268C1814.28 624.624 1819.04 622.428 1811.61 628.303C1808.71 630.646 1794.49 640.552 1788.38 645.03C1787.24 645.886 1786.41 646.556 1786.04 646.957C1785.68 647.349 1787.25 647.101 1789.3 646.449C1792.69 645.371 1797.37 643.126 1796.98 640.874C1819.31 627.503 1802.96 634.942 1811.22 629.24C1812.44 628.286 1810.81 632.196 1830.49 616.183C1828.75 621.985 1803.72 637.012 1799.66 640.047C1791.69 646.673 1827.59 623.751 1832.02 616.53C1830.92 620.114 1833.47 616.693 1838.74 611.974C1839.82 611.007 1841.01 609.986 1842.34 608.924C1851.02 601.857 1847.8 605.551 1852.55 601.414C1865.43 589.503 1858.98 593.076 1869.89 584.118C1860.39 588.733 1873.28 577.224 1882.65 568.218C1886.26 564.818 1889.62 561.639 1891.61 559.748C1889.11 562.965 1886.57 566.165 1884 569.343C1876.34 578.774 1867.7 588.877 1857.53 598.623C1858.49 598.096 1859.45 597.558 1860.41 597.018C1856.83 600.391 1853.13 603.667 1849.5 606.717C1849.91 606.027 1850.32 605.33 1850.72 604.632C1846.58 608.749 1843.18 611.748 1840.41 614.06C1831.45 621.463 1828.03 622.53 1826.92 623.368C1815.74 631.609 1803.54 640.219 1790.65 648.538C1782.15 654.051 1772.39 659.79 1763.44 664.364C1760.21 665.887 1762.69 667.145 1738.7 676.456C1731.14 679.291 1737.58 675.077 1729.35 678.824C1728.35 679.686 1727.46 680.409 1726.63 681.034C1720.23 685.888 1719.18 683.871 1716.48 684.982C1707.71 688.583 1702.67 691.506 1701.85 691.848C1691.05 696.291 1674.98 702.228 1662.91 706.681C1662.69 706.776 1669.36 705.543 1661.38 708.064C1658.55 708.968 1632.29 713.349 1610.45 721.493C1616.35 720.039 1622.2 718.532 1628.04 716.978C1625.15 717.72 1615.21 721.014 1605.36 724.202C1591.78 728.635 1578.45 732.814 1585.53 731.688C1590.45 730.895 1599.4 727.212 1605.7 725.322C1609 724.336 1611.59 723.858 1612.54 724.612C1610.99 724.998 1608.76 725.604 1606.01 726.371C1580.44 734.597 1505.65 750.888 1499.06 750.508C1498.07 750.571 1503.96 748.674 1502.58 748.772C1501.52 748.913 1480.67 752.243 1477.86 752.185C1476.18 752.2 1485.32 750.37 1484.52 750.13C1484.07 750.043 1472.93 751.358 1464.8 752.492C1460.42 753.115 1456.9 753.72 1456.43 754.19C1458.47 753.812 1461.71 753.384 1464.86 753.029C1471.52 752.282 1477.78 751.863 1471.47 753.354C1470.65 753.545 1467.39 753.616 1464.95 753.738C1463.84 753.793 1462.9 753.862 1462.45 753.964C1457.52 755.061 1459.83 755.097 1465.05 754.636C1474.15 753.875 1492.11 751.196 1496.12 750.541C1487.23 752.447 1476.53 754.067 1465.14 755.403C1443.97 757.92 1420.28 759.363 1400.89 761.014C1388.78 760.694 1418.67 758.492 1404.99 758.465C1376.66 758.224 1397.53 760.221 1396.67 760.398C1389.65 761.82 1365.6 757.197 1365.68 761.183C1355.42 760.736 1358.74 760.225 1344.3 760.792C1346.2 761.074 1348.09 761.35 1350 761.621C1338.19 763.452 1316.74 760.339 1307.34 758.224C1303.96 757.479 1302.11 756.904 1302.78 756.81C1304.02 756.638 1305.61 756.578 1307.39 756.593C1315.43 756.677 1327.41 758.151 1328.64 758.123C1330.9 758.043 1337.01 754.249 1361.41 757.618C1371.33 754.867 1322.82 755.9 1344.89 754.011C1338.43 754.153 1323.28 753.768 1307.52 752.955C1286.92 751.942 1265.4 750.186 1260.41 750.515C1259.37 750.589 1264.01 753.709 1249.16 751.196C1242.11 749.989 1259.22 751.26 1256.02 750.386C1249.77 748.792 1194.27 744.579 1147.11 737.31C1119.11 733.245 1093.23 727.407 1083.49 724.785C1081.78 724.338 1082.62 723.681 1080.95 723.241C1075.77 721.965 1056.87 717.695 1048.18 714.313C1065.42 721.55 1032.97 711.156 1022.89 707.128C1022.48 706.97 1022.09 706.823 1021.75 706.69C1008.52 701.544 1009.93 700.419 1004.34 697.963C982.862 688.544 948.047 677.929 932.716 667.444C932.273 670.915 904.583 653.125 891.227 646.433C886.736 644.235 881.204 641.913 877.404 640.601C872.702 638.969 870.612 638.946 876.336 642.702C876.848 643.036 877.424 643.401 878.069 643.798C877.463 643.486 876.858 643.175 876.254 642.864C858.636 633.812 840.091 624.162 823.915 614.355C821.164 612.684 825.444 614.207 820.724 611.358C820.3 611.105 819.19 611.554 815.144 609.078C781.965 588.002 799.125 596.774 793.391 592.177C790.235 589.513 787.905 587.594 786.141 586.222C804.587 599.799 827.119 613.281 833.12 616.771C828.991 612.307 790.433 589.971 780.629 581.149C780.283 580.859 782.238 580.883 781.878 580.6C781.87 580.594 781.863 580.588 781.855 580.582C780.582 579.58 776.942 576.841 772.898 573.772C764.809 567.704 754.848 559.764 757.569 563.312C758.32 564.287 763.903 569.173 771.692 575.298C775.187 578.05 779.166 581.094 783.41 584.224C779.574 581.664 781.537 584.772 780.854 584.328C778.222 582.599 774.566 579.815 770.653 576.612C762.24 569.793 752.379 560.498 748.034 556.361C746.565 554.982 746.11 555.692 745.865 555.472C740.1 549.895 744.139 550.421 736.533 546.539C728.145 534.496 756.594 564.76 755.959 561.109C753.189 559.45 691.768 495.076 691.353 496.705C691.35 496.318 690.826 495.236 689.497 493.142C688.893 492.184 687.742 490.657 686.223 488.747C680.617 481.71 670.519 470.005 668.211 467.763C667.703 467.288 666.131 468.951 665.574 468.316C664.14 466.708 647.178 443.462 639.371 436.083C642.791 440.731 646.234 445.402 649.668 450.052C627.433 423.164 630.38 427.767 637.228 437.149C637.594 437.602 637.887 438.093 638.233 438.527C643.57 445.79 650.578 455.016 650.553 455.265C650.386 456.183 612.527 410.844 621.387 418.279C622.606 419.306 639.257 440.988 631.814 429.591C630.507 427.591 619.039 414.347 618.583 413.534C615.513 408.074 640.982 436.682 639.222 432.08C632.152 425.85 625.179 416.146 618.118 408.188C614.904 404.566 613.273 404.38 612.875 403.931C606.976 397.254 611.079 400.347 609.16 398.072C608.133 396.853 594.993 384.978 599.807 385.297C560.973 342.829 587.653 374.559 610.377 401.8C602.252 393.953 588.749 376.713 582.23 369.419C579.915 366.827 580.317 369.12 576.354 364.774C573.376 361.513 566.697 353.477 558.972 344.293C545.195 327.805 527.883 308.003 521.786 301.65C528.104 307.577 527.276 304.87 522.534 300.129C517.803 295.471 520.522 300.635 519.481 299.843C518.623 299.098 505.591 285.621 499.203 281.043C496.599 279.062 494.573 277.577 493.603 276.932C495.766 278.424 497.673 279.742 499.329 280.874C507.461 286.599 506.898 285.128 500.312 279.557C498.338 277.992 495.995 276.193 493.37 274.269C495.889 275.644 498.452 277.085 501.047 278.57C501.075 278.584 501.103 278.599 501.13 278.613C501.105 278.596 501.079 278.579 501.053 278.562C490.631 271.053 473.224 257.596 469.31 257.128C468.618 256.916 470.538 258.96 470.145 258.842C468.136 258.128 464.405 256.403 461.25 255.461C456.789 254.146 452.314 253.205 451.896 253.313C451.226 253.467 458.182 255.748 455.458 255.655C454.941 255.632 448.253 252.821 440.838 252.417C438.11 252.266 439.645 253.441 438.956 253.43C433.199 253.44 436.774 251.864 426.088 251.66C418.773 251.646 413.21 253.103 403.702 253.472C402.975 253.503 402.25 253.528 401.52 253.546C402.257 253.534 402.984 253.526 403.705 253.521C428.525 254.062 416.992 254.157 403.806 255.006C399.84 255.312 396.538 255.736 393.779 256.301C391.611 256.848 394.531 257.753 380.961 259.988C407.818 250.9 373.282 259.469 363.339 262.973C363.318 262.979 363.298 262.982 363.277 262.983C362.826 263.009 362.182 262.033 358.141 263.232C357.787 263.342 358.539 263.96 354.637 265.222C317.685 277.672 341.143 269.214 333.839 270.726C330.698 271.36 313.249 278.739 308.613 280.596C307.534 281.01 307.721 280.018 303.564 281.656C296.216 284.564 290.145 288.071 285.567 290.146C285.062 290.395 284.356 289.127 276.076 293.449C275.97 293.506 275.864 293.563 275.758 293.621C273.461 294.87 271.356 296.389 274.793 295.145C275.255 294.979 275.732 294.8 276.225 294.61C287.766 290.082 308.936 279.615 323.002 276.029C336.163 272.484 295.915 287.208 294.267 288.297C293.528 288.601 300.83 284.9 293.109 287.917C288.917 289.574 282.965 293.115 277.112 296.485C273.64 298.463 270.127 300.395 266.791 301.897C266.072 302.192 258.063 304.225 258.356 303.961C258.533 303.698 269.41 297.591 267.57 297.925C267.332 297.948 260.26 301.617 259.195 301.741C257.851 301.874 252.442 299.088 250.906 299.822C247.017 301.694 250.017 301.292 247.597 302.617C242.067 305.324 225.774 315.293 226.905 317.047C229.175 315.275 231.61 313.523 234.197 311.789C221.008 322.119 227.514 318.341 225.855 320.026C224.498 321.724 223.81 320.423 220.814 323.071C220.564 323.309 220.302 323.564 220.027 323.839C218.573 325.057 199.87 346.039 201.21 345.905C209.994 334.061 208.052 339.404 208.449 338.937C210.319 337.036 211.884 333.749 214.464 331.031C217.994 327.32 220.286 325.077 221.632 323.858C223.248 322.523 222.933 323.317 222.277 324.478C220.696 326.787 218.106 330.199 220.274 328.215C221.062 327.492 222.004 326.251 222.879 325.058C223.402 324.212 223.908 323.395 224.158 323.186C225.745 321.87 226.599 322.722 227.579 321.711C229.97 319.324 225.885 320.647 226.028 320.416C227.347 317.56 238.831 310.707 233.387 317.062C237.624 314.703 236.884 312.532 240.768 310.988C248.62 307.988 237.979 314.302 235.814 316.402C230.594 321.13 227.928 323.385 224.565 326.68C221.52 329.778 217.909 333.467 213.322 338.633C208.758 343.741 204.8 350.124 203.19 352.28C201.731 353.766 190.451 363.731 196.013 366.51C194.349 368.761 191.551 370.853 189.842 372.891C188.371 375.957 187.161 378.913 186.617 381.478C185.288 387.89 187.828 386.285 187.764 386.9C187.658 387.847 185.993 395.218 185.934 397.609C185.835 400.437 186.797 399.237 186.546 403.499C186.213 413.657 184.526 412.629 184.274 413.681C183.431 418.721 184.053 419.444 184.639 419.758C185.257 420.002 186.027 419.555 186.237 420.271C186.304 420.49 186.4 421.255 186.536 422.026C188.492 435.569 195.553 452.682 200.285 456.975C198.348 455.035 196.574 453.096 194.931 451.103C196.048 455.769 201.048 458.754 199.21 460.262C199.767 460.034 200.335 460.063 200.916 460.287C204.967 462.574 210.535 472.62 212.956 475.495C214.075 476.828 214.506 476.318 215.892 477.997C221.334 484.701 232.815 499.028 235.629 501.373C241.671 506.624 238.304 502.042 232.4 494.094C226.517 486.193 218.361 474.992 217.174 473.392C219.663 476.549 228.222 486.826 234.377 493.133C240.532 499.439 244.17 502.12 239.095 495.351C237.479 493.168 232.745 490.345 231.582 489.074C223.729 480.45 230.835 486.492 230.35 485.69C229.534 484.373 223.408 479.291 222.203 477.506C221.8 476.904 225.749 479.617 218.475 470.506C223.169 474.523 242.687 499.338 244.408 499.917C244.798 500.231 244.414 498.883 245.149 499.054C245.5 499.122 246.19 499.64 247.12 500.59C247.557 501.038 248.097 501.618 248.287 501.945C248.365 502.099 248.371 502.194 247.972 502.025C247.517 501.846 246.893 501.443 244.282 500.256C245.17 500.827 246.084 501.419 247.01 502.019C246.9 501.669 246.789 501.317 246.677 500.965C256.421 505.793 260.906 505.372 258.289 505.308C259.897 505.088 261.441 504.852 262.9 504.6C261.839 505.41 255.37 507.603 263.57 506.11C267.931 505.185 264.442 504.403 264.845 504.293C265.47 504.108 268.458 503.532 271.178 502.721C272.495 502.339 273.695 501.86 273.799 501.794C273.94 501.782 272.652 502.081 269.613 505.119C273.616 503.068 283.161 476.125 283.932 460.467C284.45 455.743 284.726 451.811 284.868 449.346C285.332 443.528 284.475 426.582 284.361 425.264C284.467 417.574 283.433 389.581 282.466 383.992C281.994 380.511 281.205 383.948 280.919 380.837C280.644 377.937 282.09 380.811 282.039 379.946C281.968 378.695 281.68 376.046 281.192 372.433C279.224 355.28 270.392 315.37 268.446 304.413C270.337 312.434 280.328 352.347 280.705 351.39C280.801 351.206 279.924 341.26 279.119 339.303C279.465 335.769 274.32 324.849 273.515 318.503C273.414 317.785 275.683 320.212 273.469 309.008C272.699 305.149 269.112 295.425 267.883 285.18C267.003 282.391 265.583 277.167 263.756 270.846C261.942 264.586 259.727 257.273 257.306 250.744C254.785 243.998 252.762 239.588 248.929 232.949C241.212 219.316 233.06 208.903 231.112 207.422C230.997 207.384 236.631 216.17 231.906 210.907C225.798 204.199 232.478 208.328 227.535 200.903C227.26 200.495 226.947 200.049 226.588 199.557C225.692 198.005 205.276 173.402 204.367 172.981C196.808 166.93 214.047 188.35 213.566 188.327C212.585 187.792 197.605 170.576 197.063 169.965C196.575 169.207 210.56 181.393 195.247 165.498C196.713 167.544 198.173 169.616 199.625 171.71C192.347 164.322 192.911 162.608 191.31 160.716C188.641 157.614 185.241 155.028 181.781 151.852C178.773 149.094 175.662 145.835 172.629 141.248C170.888 138.625 175.3 141.247 175.097 140.912C173.066 137.614 167.614 136.893 164.743 131.799C164.47 131.484 175.488 137.983 157.753 124.694C158.862 125.745 159.967 126.814 161.055 127.891C159.055 126.751 148.843 119.872 142.263 116.264C139.78 114.853 137.889 113.836 137.217 113.44C130.05 109.369 137.123 111.163 129.666 107.802C133.393 111.46 111.407 103.045 113.064 102.166C112.222 102.439 110.671 102.303 108.62 101.952C101.325 100.5 88.313 97.696 79.6499 97.5231C77.5252 97.4414 74.6441 97.479 71.5413 97.6121C64.8129 97.8834 57.2247 98.6512 55.6261 98.6517C52.7557 98.6526 53.5503 97.0341 48.325 97.0082C46.8933 96.9873 31.1793 99.1689 18.5221 99.5578C18.0766 99.57 17.5342 99.5211 16.9814 99.4245C14.1467 99.0451 10.9035 97.71 14.8066 96.5018C15.3135 96.347 15.8539 96.1999 16.4326 96.0585C24.1733 93.9957 38.4861 94.441 38.1362 93.0298C37.8476 91.6794 23.8632 93.3915 16.2289 94.809C14.116 95.1749 12.3878 95.4748 11.2768 95.6261C-1.52795 97.4208 -2.65707 97.4419 -2.7359 96.715C-2.62078 96.0116 0.165405 94.7263 -0.150826 94.5331C-1.04014 94.0691 -4.43974 94.5689 -7.13544 95.2837C-9.8724 95.9877 -12.0241 96.9257 -12.2302 96.9531C-14.0068 97.0995 -8.07513 93.5892 -7.9946 92.8327C-8.35749 91.649 -18.1023 93.777 -16.2182 92.6197C-13.8129 90.6191 -3.6166 89.1441 -2.69733 88.9736C6.44451 85.846 -7.14478 86.3735 -10.3851 86.4082C-11.4732 86.3714 -7.78452 84.5817 -8.61151 84.735C-21.0776 87.3697 -10.1951 88.6181 -17.2971 91.3457C-23.3283 94.1961 -16.4679 88.7607 -16.6264 88.8568C-16.8109 88.8862 -18.8792 89.7774 -20.9755 90.8537C-23.8045 92.3427 -26.6256 93.7924 -27.5483 94.0166C-27.8482 94.0844 -25.3203 92.1404 -21.7553 89.4829C-17.1598 85.2953 -7.3033 80.6957 -8.0618 80.0217C-13.8259 81.8462 -18.6845 84.0103 -23.2466 86.8613C-25.6198 88.3083 -27.8978 89.716 -30.2163 91.1636C-31.1146 90.4963 -27.2893 88.2615 -23.5581 86.3136C-21.4465 85.2317 -19.3651 84.4744 -18.9654 84.2052C-17.0738 82.8978 -23.1534 84.8032 -23.1775 84.2531C-23.2975 83.8322 -16.8701 79.2923 -23.4096 81.9139C-23.9613 82.1511 -24.6129 82.5478 -25.3998 83.0762C-28.4144 85.0424 -33.0111 88.2061 -40.5239 91.58C-33.031 86.6428 -28.5303 83.692 -26.0619 81.9122C-22.6483 79.4263 -24.2574 79.7661 -26.7431 80.7147C-29.3654 81.8173 -32.6291 83.3859 -33.114 83.4049C-34.3442 83.3826 -19.359 72.9922 -38.3668 84.3165C-40.962 81.8064 -38.5226 83.1082 -33.36 79.4145C-28.5123 75.9601 -36.9532 79.8578 -29.5896 75.7109C-27.5951 74.6153 -24.3493 72.8957 -18.7411 71.0051C-19.7189 70.4845 -25.1756 72.1269 -30.1235 74.7724C-35.4602 77.5861 -40.5716 80.593 -41.1224 80.8445C-42.0916 81.2763 -38.0948 77.9982 -39.8056 78.687C-59.8035 86.929 -46.46 80.6514 -52.7878 82.113C-53.4059 82.2025 -70.9238 92.4298 -58.0371 83.9249C-47.4757 77.0609 -39.23 72.7108 -33.2419 69.2905C-25.8462 65.1452 -21.5076 63.2832 -19.8457 59.7817C-25.0427 60.965 -30.3741 63.0574 -35.2169 65.8186C-49.515 73.8871 -61.6787 83.6607 -65.6955 86.3435C-73.8174 91.7463 -65.8946 85.3522 -67.0688 85.7883C-67.4596 85.9083 -74.4364 90.6486 -74.5766 90.6746C-81.1256 90.7439 -50.0302 73.6728 -35.2667 65.7312C-33.6859 64.8384 -32.267 64.073 -31.0956 63.4236C-32.6245 63.9183 -34.1456 64.4602 -35.6553 65.0479C-37.7243 65.8467 -39.667 66.582 -41.7233 67.3924C-39.8367 66.289 -38.0614 65.2593 -36.1576 64.165C-33.5495 62.6659 -30.8583 61.304 -28.1076 60.0901C-32.2221 61.6769 -34.8311 62.9815 -36.403 63.7336C-39.1947 65.0763 -38.6088 64.5982 -36.6846 63.2386C-33.6292 60.9946 -26.8605 57.2853 -24.3339 54.8266C-23.1957 53.6247 -38.8262 60.9133 -21.1563 52.2291C-33.242 56.1348 -31.6653 55.2093 -38.8234 59.4787C-39.7085 60.0556 -40.7319 60.7349 -41.9285 61.5431C-42.0036 61.2716 -40.957 60.3441 -39.111 58.9732C-32.1561 53.1841 -12.7309 46.2184 -4.52387 44.484C-35.7335 50.7457 -28.0288 52.7876 -39.583 58.1436C-42.3433 59.7066 -46.2371 61.6997 -52.4257 64.7813C-56.8474 69.1542 -43.6582 61.0332 -44.5995 61.9022C-48.0376 64.9377 -58.0261 69.0685 -67.1935 78.6491C-68.6673 80.2201 -60.3972 76.7583 -71.4082 83.8005C-72.5948 84.5374 -80.3009 88.129 -80.2784 88.0208C-79.9783 86.4811 -72.8391 82.16 -72.8036 81.6286C-72.7642 81.0701 -80.3564 86.483 -80.4168 86.4178C-81.4303 85.4706 -74.2868 81.6346 -75.4727 81.9406C-78.0306 82.5001 -107.671 99.3952 -70.6435 75.2744C-100.161 96.9601 -73.8383 78.6802 -62.1711 71.0045C-59.1579 68.9821 -58.8151 67.8321 -54.6028 64.9883C-49.7087 61.6883 -43.7322 58.5589 -40.44 56.6369C-40.0101 56.3863 -39.6206 56.1584 -39.2783 55.9529C-38.2239 55.3261 -39.343 55.7017 -40.6914 56.1951C-42.5742 56.8366 -44.9487 57.6392 -41.2039 55.2941C-38.8768 53.8917 -34.3914 51.2857 -26.3171 48.4678C-30.8202 49.5728 -36.207 51.6495 -41.5873 54.6201C-54.4053 61.5916 -69.0028 71.456 -78.8815 76.9254C-106.166 92.3002 -62.661 62.0317 -58.0394 59.7174C-56.845 58.9208 -61.5177 60.4645 -60.7301 59.9164C-60.0354 59.4242 -51.7048 54.5906 -44.0809 50.2366C-36.7051 45.9606 -29.3439 43.1772 -28.0612 42.3047C-25.0834 40.094 -40.275 47.2164 -41.5982 47.2566C-42.1567 47.1174 -32.426 41.7535 -25.1633 39.1591C-18.0075 36.5242 -13.4981 34.9436 -24.4855 37.8867C-30.3954 39.5913 -38.4599 43.0813 -45.6294 47.5146C-54.6122 53.0862 -63.1137 58.5721 -66.1759 58.5104C-59.5739 54.3799 -52.9044 50.3711 -46.2244 46.4686C-33.1139 38.7382 -18.5263 34.6962 -6.33164 32.2101C-17.6481 33.3765 -30.9827 35.6713 -44.1546 41.377C-25.4654 31.5849 -8.76492 29.7639 5.19312 27.1207C11.4628 26.0167 17.6091 25.0195 23.8588 23.9162C12.7763 24.4107 6.89508 24.892 4.81825 24.8215C3.66041 24.7768 3.75145 24.574 4.72719 24.2629C10.4218 22.1882 40.6929 19.4534 41.1485 19.3654C41.4173 19.0131 20.7281 18.134 17.2161 18.2046C35.3364 14.1227 91.3544 12.9107 58.3478 10.2507C61.4595 10.5327 66.8721 10.1002 71.4224 9.69287C75.6538 9.3079 79.148 8.93359 79.0509 8.86363C78.5062 8.43543 75.3866 8.14592 71.4202 8.0198C61.5479 7.63768 46.6171 8.63552 50.2269 7.51719C55.5794 5.86975 63.0239 7.16085 71.4192 7.33236C72.3053 7.3503 73.178 7.3564 74.0862 7.34636C108.707 7.50715 115.508 6.14636 132.824 8.10643C140.505 9.27537 151.091 11.6749 166.583 18.8245C165.685 18.1336 164.77 17.4445 163.852 16.7628C173.71 21.0055 182.995 25.8495 191.678 30.9694C214.756 44.5703 235.181 61.1164 253.157 79.0141C266.986 92.8329 278.848 106.657 290.205 120.706C294.602 124.938 300.821 131.663 307.601 139.676C317.068 150.737 329.13 166.807 337.598 181.146C342.765 189.512 348.133 200.274 351.031 207.571C353.959 213.805 361.14 239.618 361.413 242.045C361.422 242.088 361.429 242.125 361.435 242.156C361.554 242.836 361.444 242.705 361.2 242.107C360.192 239.538 356.314 227.981 357.994 235.398C358.094 235.847 358.904 238.627 359.986 242.466C363.619 254.941 369.322 278.531 369.71 276.046C368.779 271.371 364.376 256.94 363.977 254.453C362.556 240.583 382.565 322.384 386.19 358.831C387.284 367.097 387.918 372.763 388.212 373.99C388.324 370.946 388.411 367.891 388.476 364.848C389.282 373.413 389.9 382.025 390.314 390.652ZM152.792 127.529C149.744 126.677 144.528 122.732 140.022 120.133C138.93 119.496 137.906 118.941 136.971 118.505C130.174 115.183 117.968 115.598 124.393 112.848C129.491 114.811 134.697 117.22 140.057 120.072C144.348 122.352 148.597 124.843 152.792 127.529ZM257.16 261.473C255.334 253.952 259.953 258.518 260.854 265.312C260.947 266.112 259.565 272.071 257.16 261.473ZM217.055 192.443C217.319 192.697 221.937 198.692 222.056 198.933C225.348 204.949 211.45 186.928 217.055 192.443ZM255.042 506.802C257.083 507.376 257.201 506.652 256.983 506.069C256.714 505.46 255.702 504.787 254.029 504.73C253.828 504.732 254.78 506.732 255.042 506.802ZM257.457 507.543C257.845 508.217 258.343 508.435 258.612 508.354C258.893 508.276 258.945 507.915 258.873 507.51C258.806 507.103 258.651 506.649 258.642 506.315C258.612 505.983 258.818 505.765 258.934 505.885C258.959 505.906 258.997 506.365 258.578 506.767C258.199 507.177 257.418 507.479 257.457 507.543ZM248.949 238.794C250.165 239.102 252.564 244.755 253.456 247.548C252.674 247.643 250.459 241.188 248.949 238.794ZM285.87 450.965C286.831 451.576 287.58 422.136 286.323 420.004C287.07 424.834 285.509 450.771 285.87 450.965ZM272.156 505.446C272.274 505.392 272.885 504.577 273.479 503.461C274.067 502.37 274.572 501.063 274.264 500.99C272.166 503.169 271.012 506.019 272.156 505.446ZM211.435 461.757C210.981 461.396 212.788 468.966 205.15 456.984C204.698 456.191 204.228 455.283 203.756 454.248C203.234 453.092 205.132 454.845 206.475 455.95C207.432 456.878 208.124 457.53 207.944 457.225C207.594 456.643 207.257 456.099 206.934 455.592C206.498 454.822 206.126 454.218 205.776 453.717C206.237 454.275 206.703 454.828 207.188 455.394C212.468 461.776 217.21 467.6 217.563 468.373C219.419 472.496 211.666 461.969 211.435 461.757ZM188.825 412.055C188.131 411.024 189.376 402.203 190.091 399.906C190.208 399.529 191.549 401.465 192.172 397.072C192.734 393.464 190.011 398.599 191.676 391.504C193.495 384.194 192.605 394.283 192.858 393.613C193.037 392.902 194.91 381.15 195.85 381.685C196.415 382.212 193.16 394.444 192.936 397.185C192.531 400.807 194.402 396.753 193.254 402.527C192.61 406.05 190.752 403.811 190.545 404.547C190.457 404.861 190.362 408.119 190.25 410.365C190.128 412.62 189.867 414.106 188.833 412.038C188.83 412.044 188.828 412.049 188.825 412.055ZM204.782 452.503C205.089 452.811 205.42 453.207 205.776 453.717C205.439 453.309 205.102 452.901 204.782 452.503ZM170.735 140.235C173.345 143.335 163.786 136.252 160.765 132.969C161.151 132.29 170.349 139.664 170.735 140.235ZM200.484 449.118C197.168 441.885 200.148 446.677 204.782 452.503C203.101 450.786 201.773 451.566 200.484 449.118ZM279.119 339.303C279.065 339.887 278.884 340.285 278.489 340.404C278.661 338.863 278.872 338.688 279.119 339.303ZM283.318 369.921C283.578 370.932 283.782 371.632 283.939 372.077C284.264 372.998 284.395 372.829 284.394 372.018C284.42 369.288 282.713 359.11 282.093 359.292C281.792 359.418 283.239 369.525 283.318 369.921ZM248.149 503.898C248.474 504.12 245.602 503.855 244.612 504.037C244.13 504.137 244.208 504.414 245.467 504.97C246.684 505.499 249.226 506.397 252.496 506.898C245.758 503.647 253.335 506.36 253.162 505.882C253.256 505.307 249.251 503.913 243.79 501.242C247.417 503.179 247.269 503.44 247.292 503.382C247.193 503.304 246.712 502.852 246.497 502.548C245.685 502.578 246.045 503.197 246.549 503.677C246.777 503.898 247.012 504.043 246.799 503.832C246.55 503.621 245.973 503.032 243.544 501.733C245.74 502.718 247.483 503.449 248.132 503.891C248.138 503.893 248.143 503.896 248.149 503.898ZM248.304 317.108C246.894 319.157 241.004 322.75 237.765 325.285C238.607 323.307 244.136 319.654 248.304 317.108ZM1653.82 711.076C1612.37 726.127 1605.55 723.749 1644.4 712.709C1645.17 712.499 1656.2 709.815 1653.82 711.076ZM1278.81 759.47C1274.81 757.475 1288.4 757.97 1297.32 759.055C1299.34 759.306 1306.78 761.385 1298.19 761.397C1298.54 759.279 1285.37 757.878 1278.81 759.47ZM197.291 445.672C195.092 444.14 193.11 437.043 192.091 432.314C193.76 435.073 196.013 442.618 197.291 445.672ZM1511.97 746.474C1507.31 747.147 1504.42 749.171 1505.25 749.166C1508.94 749.163 1517.4 746.41 1511.97 746.474ZM215.605 471.363C215.428 472.304 204.63 459.704 205.289 457.689C207.391 460.609 215.711 470.809 215.605 471.363ZM240.741 321.605C238.879 322.451 246.885 316.046 250.087 314.603C250.133 315.375 241.748 321.048 240.741 321.605ZM1437.31 756.749C1433.14 757.01 1422.73 757.799 1421.63 758.492C1420.25 759.396 1435.51 757.908 1437.31 756.749ZM2010.99 292.672C2011.41 292.149 2010.87 309.699 2008.85 317.015C2005.28 331.012 2011.08 293.465 2010.99 292.672ZM1555.5 736.875C1568.78 735.264 1554.09 737.264 1554.99 738.619C1563.77 736.739 1585.35 731.256 1570.15 733.565C1567.19 734.011 1559.59 736.045 1555.5 736.875ZM1543.42 739.038C1542.14 739.833 1533.06 743.327 1541.16 741.521C1544.91 740.675 1550.56 737.646 1543.42 739.038ZM1984.97 395.429C1983.2 398.812 1984.05 396.075 1985.99 390.665C1990.42 379.003 1999 352.762 1999.31 351.562C1999.67 350.749 1999.94 350.207 2000.12 349.916C2000.32 347.743 2002.95 336.993 2004.26 335.997C2003.45 339.202 2001.27 348.033 2000.85 349.008C2000.69 349.433 2000.55 349.744 2000.44 349.956C2000.55 353.384 1991.41 380.662 1986.87 390.998C1985.88 393.412 1985.17 395.042 1984.97 395.429ZM1944.99 478.151C1950.02 464.904 1954.02 464.294 1953.6 465.411C1947.68 479.548 1950.12 469.563 1949.81 469.926C1949.16 470.773 1944.93 480.861 1945.01 478.112C1945.01 478.125 1945 478.138 1944.99 478.151ZM1977.47 412.642C1977.67 412.112 1982.12 401.432 1982.32 401C1986.95 392.622 1974.34 422.874 1977.47 412.642ZM196.619 366.283C199.144 362.661 197.85 367.169 196.463 369.037C196.378 369.157 194.65 369.297 196.619 366.283ZM1537.08 740.717C1535.2 741.225 1487.28 748.567 1490.42 749.73C1494.48 749.378 1548.99 740.085 1537.08 740.717ZM1181 748.148C1189.31 749.185 1180.03 749.86 1175.66 748.619C1174.05 748.161 1178.91 747.887 1181 748.148ZM228.021 489.13C233.68 494.245 230.191 495.262 226.746 489.457C226.609 489.226 227.797 488.924 228.021 489.13ZM1247.29 755.883C1218.5 754.502 1225.78 749.708 1262.9 754.339C1261.72 754.512 1260.53 754.684 1259.35 754.855C1302.45 758.404 1262.25 755.574 1251.69 755.018C1247.67 754.833 1250.96 756.037 1247.32 755.892C1247.31 755.889 1247.3 755.886 1247.29 755.883ZM1137.12 741.735C1121.6 736.746 1132 738.506 1146.54 740.991C1157.65 742.893 1171.17 745.085 1177.76 745.684C1162.91 745.47 1143.76 742.423 1169.56 747.757C1155.79 746.025 1149.04 744.809 1146.05 744.124C1140.71 742.884 1146.97 743.172 1146.01 742.935C1144.21 742.509 1138.29 742.109 1137.12 741.735ZM1210.1 751.329C1211.71 751.39 1223.63 753.397 1227.98 753.646C1221.78 754.509 1199.43 751.023 1210.1 751.329ZM1891.24 558.958C1891.04 557.466 1892.09 554.981 1898.47 547.362C1897.04 550.126 1893.49 555.43 1891.24 558.958ZM150.021 118.868C148.161 117.637 145.498 115.892 143.237 114.582C140.262 112.852 138.053 111.855 139.266 113.241C139.358 113.335 140.922 114.196 142.844 115.262C145.905 116.941 149.804 119.19 150.021 118.868ZM1398.03 757.154C1396.61 757.252 1360.06 758.287 1372.71 759.098C1376.53 759.499 1409.83 757.766 1398.03 757.154ZM1586.23 728.214C1583.26 729.04 1571.13 732.386 1570.93 732.678C1570.32 733.771 1585.17 729.417 1586.23 728.214ZM128.387 105.891C127.868 105.317 114.396 100.61 115.694 101.739C118.218 103.381 130.162 106.998 128.387 105.891ZM206.152 348.761C206.983 347.706 209.069 347.078 209.393 346.726C209.666 346.09 228.311 325.581 222.131 334.345C221.64 335.067 214.202 342.691 207.933 349.949C201.47 357.321 197.235 363.701 196.474 364.953C194.15 365.418 201.923 356.298 204.415 353.244C204.788 352.735 203.932 351.609 206.15 348.774C206.151 348.769 206.151 348.765 206.152 348.761ZM1921.09 516.524C1921.12 515.199 1933.78 494.661 1938.94 486.326C1940.31 484.196 1941.22 482.941 1941.4 483.147C1940.75 484.306 1940.1 485.464 1939.44 486.619C1933.61 496.868 1927.47 506.816 1921.09 516.524ZM1909.99 532.139C1904.71 538.224 1915.51 522.861 1918.84 518.393C1919.48 518.763 1910.8 531.282 1909.99 532.139ZM1517.17 739.935C1513.57 740.849 1525.04 740.255 1522.59 741C1521.02 741.49 1512.77 742.417 1510.25 743.313C1509.53 743.594 1518.1 743.514 1520.5 742.995C1523.9 742.278 1520.39 741.815 1524.11 741.105C1536.46 738.728 1547.56 737.157 1559.06 734.432C1560.09 734.185 1551.87 735.317 1560.72 733.244C1562.08 732.917 1570.58 732.103 1581.05 729.148C1589.21 725.621 1596.71 723.127 1604.38 720.869C1617.63 716.947 1631.34 713.782 1649.02 706.793C1647.87 706.893 1626.3 713.159 1625 713.479C1619.02 715.249 1611.85 717.373 1604 719.602C1580.28 726.449 1550.37 733.622 1530.73 737.429C1524.03 738.745 1527.43 738.85 1524.55 739.436C1522.26 739.885 1524.72 738.009 1517.17 739.935ZM152.743 119.705C151.861 117.956 147.87 115.528 143.913 113.415C142.115 112.449 140.345 111.546 138.884 110.736C139.347 111.611 141.191 112.75 143.522 114.09C146.53 115.809 150.29 117.87 152.743 119.705ZM1783 649.293C1779.81 651.434 1768.76 657.287 1768.04 658.086C1767.19 659.316 1782.97 650.591 1783 649.293ZM327.887 275.233C328.159 275.088 335.553 272.652 335.849 272.61C342.784 271.445 320.649 278.746 327.887 275.233ZM479.403 268.878C483.609 271.35 488.426 274.229 489.281 276.245C486.414 273.916 478.425 269.146 479.403 268.878ZM652.695 457.287C653.022 455.347 664.303 470.442 666.517 473.282C665.125 472.668 652.466 458.712 652.695 457.287ZM1886.67 557.15C1894.39 547.614 1890.96 548.255 1896.5 542.735C1897.39 541.82 1903.69 541.454 1894.03 551.041C1892.27 552.742 1897.3 544.647 1886.67 557.15ZM1268.98 754.784C1272.04 753.992 1281.38 754.84 1287.71 755.225C1286.25 755.903 1273.48 755.016 1268.98 754.784ZM103.986 96.8631C100.639 94.3176 81.4704 93.6416 86.1026 95.0169C86.9743 95.0151 101.578 96.0529 103.986 96.8631ZM186.904 429.652C183.948 422.039 187.482 438.557 190.101 441.435C189.286 439.92 187.069 430.413 186.904 429.652ZM611.932 406.61C612.273 406.952 619.054 415.34 619.32 415.749C624.056 423.299 604.871 399.573 611.932 406.61ZM438.284 254.176C440.839 253.608 454.178 255.63 460.594 258.046C461.804 258.523 462.768 259.031 463.296 259.415C462.697 259.489 461.622 259.322 460.327 259.099C452.61 257.269 435.05 254.715 438.284 254.176ZM1850.97 597.013C1858.27 590.355 1864.99 583.759 1870.94 577.703C1870.72 579.512 1852.37 596.947 1850.97 597.013ZM637.228 437.149C637.594 437.602 637.887 438.093 638.233 438.527C637.89 438.06 637.557 437.598 637.228 437.149ZM1679.65 693.913C1672.94 696.114 1674.78 696.903 1675.21 696.791C1680.36 695.36 1687.24 691.398 1679.65 693.913ZM148.484 114.543C148.121 113.782 146.755 112.759 144.929 111.662C141.72 109.718 137.216 107.685 134.36 106.094C135.028 107.215 140.25 109.899 144.545 112.325C146.083 113.181 147.479 113.969 148.484 114.543ZM1107.36 733.536C1098.64 730.432 1135.64 736.197 1142.97 737.971C1143.51 739.086 1108.75 734.268 1107.36 733.536ZM192.314 449.979C191.488 450.853 197.595 458.25 196.913 456.267C196.336 455.044 192.676 449.493 192.314 449.979ZM1160.96 741.258C1164.37 741.446 1172.08 743.463 1169.24 743.681C1165.58 743.96 1160.07 741.22 1160.96 741.258ZM1465.07 746.859C1464.92 746.862 1464.6 746.897 1464.14 746.958C1459.95 747.552 1444.48 750.1 1452.04 750.215C1457.86 750.295 1458.62 748.759 1459.97 748.603C1460.29 748.567 1462.04 748.449 1464.3 748.28C1472.57 747.654 1487.66 746.289 1465.07 746.859ZM915.209 663.578C922.212 666.361 930.313 670.453 937.516 673.556C934.339 672.872 917.778 665.678 915.209 663.578ZM182.475 415.224C182.297 415.614 182.28 420.382 182.829 422.805C184.958 433.168 187.424 440.685 184.946 428.197C184.876 427.806 184.434 425.631 183.846 422.591C183.303 420.366 183.294 412.93 182.475 415.224ZM1886.67 557.15C1885.7 558.337 1884.53 559.699 1883.13 561.245C1884.48 559.673 1885.66 558.321 1886.67 557.15ZM1777.2 649.968C1779.5 647.814 1766.06 655.463 1762.19 657.777C1761.37 659.326 1776.99 650.371 1777.2 649.968ZM938.462 672.874C942.764 674.302 950.113 677.929 955.276 680.045C954.144 680.314 939.975 674.295 938.462 672.874ZM677.874 482.011C679.992 484.761 682.385 487.688 684.541 490.18C687.981 494.159 690.878 497.115 691.318 496.862C691.344 497.088 691.509 497.487 691.887 498.133C692.272 498.796 698.845 505.791 701.43 509.123C708.553 518.279 695.295 503.887 684.156 490.508C671.062 474.784 660.157 460.593 685.381 488.543C682.881 486.38 680.382 484.206 677.874 482.011ZM409.311 251.583C407.928 251.32 405.77 251.341 403.57 251.534C398.98 251.917 395.269 253.073 397.016 253.127C397.805 253.147 400.554 252.941 403.65 252.717C407.839 252.401 411.753 252.066 409.311 251.583ZM541.897 318.875C541.063 317.652 531.802 308.629 531.213 308.806C535.823 314.487 545.614 324.228 541.897 318.875ZM379.288 254.658C376.644 255.153 373.597 257.637 373.943 257.617C376.882 257.404 383.832 254.467 379.288 254.658ZM1866.76 573.994C1863.18 577.526 1851.8 590.712 1849.52 594.001C1848.85 594.325 1847.25 595.437 1844.43 597.46C1844.44 597.453 1844.45 597.446 1844.46 597.439C1843.77 597.935 1839.55 601.491 1833.9 605.908C1819.63 617.297 1794.22 635.022 1785.61 640.737C1782.36 642.958 1781.86 643.469 1785.89 641.166C1789.48 639.086 1796.64 634.773 1808.11 627.026C1810.3 625.525 1806.83 626.907 1815.65 620.678C1816.24 620.264 1816.98 620.682 1818.78 619.396C1820.97 617.826 1828.13 612.672 1834.97 607.256C1841.1 602.458 1847.33 596.963 1849.24 594.798C1849.38 594.87 1849.76 594.708 1850.47 594.232C1857.22 589.964 1869.91 571.142 1866.76 573.994ZM559.279 338.288C557.724 336.052 552.019 329.968 550.901 329.746C553.406 333.063 562.814 343.375 559.279 338.288ZM179.675 416.159C179.305 418.496 180.07 422.257 180.772 423.237C181.309 424.71 181.671 425.215 181.59 423.928C181.578 423.737 181.538 423.452 181.477 423.089C181.382 422.32 180.912 420.156 180.585 418.029C180.251 415.946 179.957 414.324 179.675 416.159ZM503.991 281.411C522.828 298.962 508.632 285.304 512.272 287.153C509.436 285.041 506.663 283.106 503.991 281.411ZM1956.31 444.388C1953.74 449.149 1954.76 442.582 1958.24 437.68C1959.35 436.139 1957.75 441.716 1956.31 444.388ZM2002.71 196.341C2002.3 201.401 1997.08 178.643 2000.69 187.077C2000.88 187.502 2002.71 196.02 2002.71 196.341ZM1983.29 376.209C1983.19 379.566 1982.7 381.772 1980.05 388.433C1979.63 389.496 1979.13 390.716 1978.58 392.035C1979.11 390.546 1979.53 389.313 1979.84 388.354C1982.51 379.946 1978.33 389.113 1983.29 376.209ZM691.353 496.705C691.354 496.78 691.358 496.84 691.318 496.862C691.31 496.785 691.324 496.737 691.353 496.705ZM352.731 262.549C348.813 262.678 338.643 266.044 341.991 266.036C342.321 266.016 351.466 263.709 352.731 262.549ZM1849.52 594.001C1850.1 593.709 1849.95 594.014 1849.24 594.798C1849.12 594.731 1849.23 594.454 1849.52 594.001ZM402.364 250.302C402.316 250.445 402.74 250.536 403.506 250.592C406.943 250.78 416.705 250.693 417.172 250.661C425.013 249.408 410.272 249.555 403.481 250.213C403.07 250.245 402.698 250.275 402.364 250.302ZM218.586 491.467C219.176 492.057 217.276 486.708 214.598 484.617C212.516 482.997 216.382 489.303 218.586 491.467ZM1993.41 341.431C1994.92 335.635 1996.73 327.472 1997.94 326.181C1997.03 330.001 1994.08 341.731 1993.41 341.431ZM2003.77 209.186C2006.02 216.618 2007.28 233.664 2007.01 244.207C2005.84 244.495 2005.54 216.383 2003.77 209.186ZM1877.56 562.282C1877.5 562.337 1877.18 562.692 1876.7 563.231C1874.35 565.916 1867.69 573.305 1869.37 572.579C1871.34 571.731 1875.49 566.56 1877.29 563.727C1878.3 562.155 1878.65 561.268 1877.56 562.282ZM203.572 471.189C199.404 466.964 206.215 478.923 211.287 482.68C213.894 484.66 204.279 471.945 203.572 471.189ZM320.706 271.76C313.743 274.809 331.788 269.495 333.994 267.758C330.637 268.786 323.178 270.666 320.706 271.76ZM529.323 301.505C515.12 282.906 520.285 295.725 523.432 298.201C523.901 298.566 529.651 301.935 529.323 301.505ZM52.8013 88.7523C49.5808 89.305 61.7449 90.1908 63.2415 89.2408C64.205 88.5942 54.8824 88.3547 52.8013 88.7523ZM786.141 586.222C785.222 585.554 784.311 584.888 783.41 584.224C784.11 584.688 785.004 585.337 786.141 586.222ZM257.544 294.481C273.626 290.767 270.892 288.878 272.144 288.235C272.405 288.115 272.702 287.989 273.032 287.856C276.102 286.616 282.146 284.868 286.916 282.68C282.448 284.95 278.065 287.277 273.877 289.642C272.46 290.436 271.071 291.227 269.684 292.027C270.406 291.726 271.956 291.052 274.109 290.133C285.38 284.98 317.251 274.04 317.915 273.353C318.893 271.966 305.237 277.307 304.843 277.411C304.232 277.517 301.16 275.884 299.862 276.284C298.55 276.682 284.041 282.285 272.831 287.431C265.715 290.658 259.643 293.643 257.544 294.481ZM494.806 271.579C497.643 274.016 497.894 275.504 499.467 276.356C499.993 276.643 500.62 275.942 502.329 276.852C502.371 276.872 502.415 276.894 502.459 276.917C502.42 276.889 502.381 276.862 502.342 276.835C499.798 275.032 497.282 273.271 494.806 271.579ZM236.195 311.632C232 312.915 247.742 303.065 248.611 302.963C251.782 301.979 239.195 310.517 236.195 311.632ZM395.692 250.057C395.219 249.849 382.017 251.966 382.044 252.789C386.257 252.002 402.87 250.044 395.692 250.057ZM504.088 278.074C507.568 280.819 514.071 288.114 514.282 286.303C514.276 286.298 514.27 286.293 514.265 286.288C510.763 283.23 507.361 280.459 504.088 278.074ZM190.463 459.089C193.157 467.078 193.101 462.117 190.152 455.993C188.181 454.795 190.05 457.796 190.463 459.089ZM208.929 485.821C210.533 488.819 230.233 510.973 228.155 506.48C227.538 505.316 215.568 493.073 215.095 492.256C214.418 491.225 219.042 494.67 212.885 487.599C212.867 488.33 208.396 484.938 208.929 485.821ZM193.13 465.45C193.236 465.675 193.345 465.894 193.455 466.107C198.568 475.042 202.321 474.7 197.398 468.419C196.45 467.203 195.233 466.121 194.29 465.456C193.447 464.966 192.862 464.876 193.13 465.45ZM178.973 436.422C179.472 439.589 181.524 447.089 184.813 451.058C181.925 444.965 179.874 438.5 178.059 430.402C177.227 429.621 178.497 433.768 178.979 436.442C178.977 436.436 178.975 436.429 178.973 436.422ZM1963.31 131.804C1966.64 135.574 1966.67 136.233 1965.99 135.587C1965.1 134.85 1963.38 132.648 1958.86 129.092C1958.26 128.585 1956.32 127.311 1955.66 126.891C1951.28 124.346 1945.34 122.313 1941.65 121.517C1937.87 120.666 1936.2 120.454 1935.94 120.33C1934.93 119.833 1935.97 119.611 1939.76 120.122C1943.43 120.529 1951.2 122.792 1956.19 125.984C1956.88 126.419 1958.9 127.741 1959.52 128.267C1961.24 129.66 1962.42 130.841 1963.31 131.804ZM-15.2695 68.2489C-17.5388 68.6047 -19.4606 67.8465 -23.8393 70.4323C-18.8512 69.2376 -13.7972 68.5802 -8.63371 68.2153C-5.26706 65.2101 -12.807 67.823 -15.2695 68.2489ZM-36.6566 69.5631C-36.0959 69.1931 -39.9298 68.6322 -34.8233 66.5105C-33.9633 66.1525 -32.8567 65.7655 -31.4345 65.3779C-29.4317 64.8634 -30.9008 65.9881 -33.9236 68.0922C-41.2003 73.1141 -57.6363 83.5088 -62.1046 85.2478C-56.3427 80.7279 -42.1758 73.1592 -36.6566 69.5631ZM-99.1011 93.9979C-99.6127 93.8927 -87.9501 84.4659 -86.4506 83.7786C-78.6976 79.4308 -96.2666 93.0218 -99.1011 93.9979ZM-60.5815 68.1768C-66.6043 71.122 -54.2099 63.0682 -50.239 61.2114C-49.597 61.5081 -59.6798 67.7015 -60.5815 68.1768ZM1950.63 237.454C1948.62 244.01 1953.33 249.914 1952.27 239.748C1952.22 239.261 1950.73 237.169 1950.63 237.454ZM-89.3684 82.4139C-83.3838 78.9209 -95.5769 88.0402 -99.5613 91.018C-100.29 90.7074 -90.2784 82.8453 -89.3684 82.4139ZM1945.5 242.136C1943.97 250.672 1949.22 247.734 1949.46 246.629C1950.46 242.088 1947.67 226.962 1946.72 224.079C1949.12 246.423 1946.02 238.148 1945.5 242.136ZM1946.29 282.351C1945.84 290.557 1949.49 269.878 1948.12 265.791C1947.94 269.84 1946.46 280.027 1946.29 282.351ZM1935.03 330.825C1933.77 335.002 1929.49 347.319 1929.52 349.688C1930.97 345.057 1935.43 332.84 1935.03 330.825ZM1929.9 339.623C1926.81 345.793 1929.44 348.376 1930.86 340.533C1930.91 340.228 1930.03 339.403 1929.9 339.623ZM1915.77 375.894C1912.86 379.664 1913.83 385.74 1916.71 378.854C1917.56 376.791 1916.09 375.501 1915.77 375.894ZM1939.71 252.714C1939.45 254.895 1939.51 257.317 1939.72 258.96C1940 261.111 1940.58 261.92 1941.13 259.032C1941.34 257.89 1941.54 256.166 1941.66 253.726C1941.74 255.501 1941.8 257.282 1941.84 259.069C1941.9 262.006 1941.93 264.945 1941.91 267.889C1942.47 264.235 1942.71 261.382 1942.78 259.117C1942.98 250.577 1940.93 250.536 1941.08 246.613C1941.27 239.711 1943.83 240.194 1944.69 241.583C1943.5 237.475 1942.72 223.802 1940.4 212.15L1940.81 214.09C1939.48 209.171 1938.12 204.536 1936.89 200.744C1937.83 204.608 1938.86 209.277 1939.86 214.333L1939.43 212.318C1940.6 222.258 1940.7 233.937 1940.49 242.13C1940.41 245.552 1941.1 248.909 1940.94 251.869C1940.67 256.613 1939.76 252.363 1939.71 252.689C1939.71 252.697 1939.71 252.705 1939.71 252.714ZM1894.67 423.095C1887.27 434.385 1894.02 428.318 1896.88 421.227C1896.99 420.919 1894.85 422.813 1894.67 423.095ZM-112.497 88.4772C-93.5253 74.4472 -105.442 84.8052 -71.8448 59.5911C-85.4864 70.477 -71.942 61.2578 -74.3794 63.7169C-76.327 65.6383 -85.2124 70.868 -79.5257 68.6101C-83.1706 70.1958 -91.9858 75.6834 -100.26 81.9396C-104.45 85.1164 -108.398 88.3601 -111.982 91.8838C-113.783 93.6741 -115.504 95.4926 -117.346 97.9896C-119.111 100.269 -121.499 104.744 -122.294 108.179C-122.246 107.992 -122.198 107.809 -122.149 107.63C-122.558 109.058 -122.78 110.097 -122.907 110.274C-123.03 110.473 -123.073 109.785 -122.918 108.465C-122.598 105.572 -121.29 101.716 -120.273 99.4513C-117.991 94.4672 -115.85 91.4186 -112.497 88.4772ZM1926.9 328.69C1922.01 331.745 1927.55 335.083 1921.92 342.242C1923.28 354.401 1930.63 312.666 1934.84 308.07C1928.25 336.253 1934.09 318.325 1936.06 307.656C1937.15 301.608 1937.12 298.155 1933.44 307.13C1933.16 307.812 1932.85 308.566 1932.52 309.389C1932.76 308.582 1932.98 307.81 1933.18 307.077C1939.25 284.369 1933.47 300.466 1933.48 296.386C1933.54 291.907 1936.39 277.295 1934.79 277.878C1934.79 277.886 1934.79 277.894 1934.79 277.902C1933.84 286.884 1932.48 295.91 1930.78 305.045C1933.03 301.151 1933.24 303.106 1932.42 306.924C1931.48 311.285 1929.1 317.808 1926.98 320.713C1926.99 323.366 1926.96 326.022 1926.9 328.69ZM1939.6 278.029C1939.59 278.9 1937.01 298.842 1937.73 297.687C1938.91 295.048 1941.88 266.762 1939.6 278.029ZM1933.18 195.295C1935.07 200.994 1937.07 209.895 1938.9 214.579L1938.45 212.488C1938.67 213.177 1938.9 213.771 1939.14 214.236C1939.05 213.655 1938.95 213.045 1938.85 212.419L1939.29 214.479C1937.63 207.457 1935.3 198.216 1933.18 195.295ZM1815.83 533.743C1810.5 541.123 1829.33 520.454 1823.08 525.758C1822.77 526.091 1816.1 533.457 1815.83 533.743ZM1921.4 348.745C1917.2 357.283 1922.27 354.318 1923.56 347.349C1923.64 346.952 1921.59 348.347 1921.4 348.745ZM-98.4024 76.343C-98.3016 74.7376 -73.5574 58.9934 -69.2956 56.6464C-71.3054 58.5662 -98.4142 77.2228 -98.4024 76.343ZM1925.93 185.367C1927.25 195.732 1933.12 209.366 1935.49 215.449L1934.98 213.088C1935.41 214.392 1935.68 215.304 1935.72 215.67C1935.92 217.567 1934.02 214.837 1934.05 215.277C1934.41 216.067 1936.39 236.753 1936.26 237.919C1936.36 238.665 1938.29 234.7 1939.07 239.127C1938.41 234.849 1937.75 223.146 1935.93 212.925L1936.41 215.212C1933.5 203.563 1930.21 193.424 1929.76 192.534C1929.05 191.229 1930.97 202.611 1925.94 185.387C1925.94 185.381 1925.94 185.374 1925.93 185.367ZM1935.94 220.514C1936.19 215.262 1938 229.692 1937.71 233.403C1937.48 241.404 1936.17 221.042 1935.94 220.514ZM1936.34 256.411C1936.29 256.746 1936.22 257.602 1936.13 258.776C1935.82 263.721 1934.88 274.237 1935.49 275.417C1936.78 270.842 1937.15 263.086 1936.95 258.818C1936.84 256.206 1936.57 254.91 1936.34 256.411ZM1884.08 429.416C1882.22 433.325 1875.87 443.26 1876.24 444.232C1878.28 440.498 1884.53 430.424 1884.08 429.416ZM-6.12415 22.4287C-12.6458 23.1617 -3.00367 20.9353 4.00974 19.8624C6.57975 19.4525 8.88941 19.1608 10.3376 19.0409C10.5057 19.2599 7.6062 19.8242 4.11386 20.501C-0.188004 21.3333 -5.68969 22.3738 -6.12415 22.4287ZM1913.31 347.671C1912.97 348.412 1911.11 353.954 1908.35 361.457C1902.74 377.162 1892.71 400.637 1890.78 405.161C1893.32 400.987 1903.96 377.425 1909.6 361.925C1912.26 354.79 1913.99 349.527 1914.13 348.818C1914.26 348.15 1913.45 347.385 1913.31 347.671ZM1930.79 242.734C1929.51 238.41 1930.84 235.596 1930.84 235.044C1930.87 229.672 1929.36 219.163 1930.8 221.339C1931.72 230.183 1933.31 251.446 1930.79 242.734ZM1877.43 430.059C1869.59 445.656 1886.51 416.641 1883.23 419.881C1883.05 420.119 1878.26 428.465 1877.43 430.059ZM1914.75 342.214C1914.98 339.715 1920.73 321.766 1924.02 305.237C1926.28 294.609 1927.74 285.318 1928.14 282.251C1929 289.553 1926.72 295.062 1924.91 304.695C1924.86 304.959 1924.83 305.191 1924.8 305.394C1924.59 307.203 1925.3 306.79 1925.25 307.041C1924.35 311.527 1924.19 308.001 1923.59 310.737C1923.73 312.635 1914.84 347.616 1914.75 342.214ZM1929.9 240.275C1929.45 238.321 1928.33 222.542 1926.68 214.525L1927.32 217.53C1926.4 213.997 1925.73 211.536 1925.69 211.187C1925.26 207.693 1926.58 211.179 1928.28 217.286L1927.65 214.357C1929.57 222.997 1930.11 238.827 1929.9 240.275ZM1911.75 346.079C1911.69 340.237 1919.65 317.339 1916.09 333.639C1915.74 335.203 1912.85 341.427 1911.75 346.079ZM1876.51 427.464C1876.11 428.263 1867.01 443.769 1867.37 444.314C1869.03 442.382 1881.7 419.201 1876.51 427.464ZM1878.78 418.056C1878.59 418.451 1881.7 415.254 1877.68 422.76C1877.32 423.368 1875.48 423.935 1870.89 433.482C1869.96 435.416 1869.18 438.781 1869.35 438.603C1877.02 430.299 1887.87 397.944 1878.78 418.056ZM1928.69 239.767C1928.11 241.347 1926.2 237.617 1926.95 234.245C1927.27 232.792 1928.56 235.388 1928.69 239.767ZM1846.15 475.916C1851.36 466.661 1831.93 493.585 1830.93 494.961C1832.21 494.613 1845.73 476.906 1846.15 475.916ZM12.2216 10.7267C12.2115 10.7281 12.2013 10.7294 12.1912 10.7308C22.963 9.62917 16.4155 11.3957 16.9289 11.3532C39.5756 10.2672 33.3218 9.02968 36.8315 8.42191C44.2843 7.36578 43.1986 9.91672 55.7806 8.30689C35.003 10.8702 53.9427 9.26094 54.5674 10.1782C57.0199 13.6583 26.966 9.90349 16.3397 12.2642C14.9079 12.522 25.8205 12.4889 22.1196 13.2415C17.7395 14.1091 9.82886 14.5668 3.19863 14.8874C-5.95698 15.2634 -11.9101 14.5914 2.73033 12.0151C5.33108 11.5793 8.47393 11.1365 12.2216 10.7267ZM1926.64 231.686C1925.96 229.752 1925.26 221.029 1924.44 214.914L1925.12 218.093C1923.8 211.897 1923 207.591 1924.39 210.986C1924.53 211.333 1925.38 214.097 1926.37 217.772L1925.72 214.692C1927.3 222.296 1928.01 235.428 1926.64 231.686ZM755.518 445.351C760.629 449.986 752.796 439.499 748.917 435.334C748.371 434.752 747.9 434.296 747.556 434.033C747.114 433.696 747.517 434.512 748.334 435.83C750.12 438.688 753.747 443.738 755.518 445.351ZM675.065 342.398C668.758 335.067 659.198 329.722 667.357 338.607C668.225 339.548 675.351 343.6 675.065 342.398ZM1165.25 655.014C1162.97 654.321 1161.24 653.95 1160.09 653.813C1157.4 653.491 1157.48 654.358 1159.88 655.151C1160.69 655.42 1161.77 655.68 1163.12 655.878C1165.59 656.238 1165.54 655.102 1165.25 655.014ZM833.826 518.255C833.134 517.664 824.596 511.318 824.543 512.009C827.401 514.771 838.219 522.313 833.826 518.255ZM1168.33 655.093C1162.61 654.722 1172.05 658.054 1179.25 657.154C1175.72 656.834 1168.89 655.131 1168.33 655.093ZM1899.81 362.049C1899.19 366.76 1893.98 378.864 1891.11 385.867C1889.57 386.089 1898.22 367.196 1899.81 362.049ZM699.869 374.968C693.33 368.577 705.096 384.117 704.963 381.914C704.855 381.673 700.131 375.221 699.869 374.968ZM1475.01 659.115C1468.93 660.862 1488.77 659.015 1483.14 658.386C1482.86 658.377 1475.35 659.029 1475.01 659.115ZM1559.78 642.229C1555.14 643.259 1535.58 648.118 1543.39 647.046C1544.61 646.921 1559.64 643.093 1559.78 642.229ZM37.3749 7.37545C34.2967 6.12436 51.5651 5.33746 54.0691 5.56719C55.0147 5.59717 41.3584 8.88764 37.3749 7.37545ZM1106 643.148C1101.39 642.187 1089.69 638.451 1087.38 638.492C1093.01 640.127 1107.11 645.023 1106 643.148ZM726.217 406.826C722.387 399.791 713.678 389.495 714.237 393.358C723.838 404.743 714.456 390.779 726.217 406.826ZM1200.46 657.638C1196.49 657.049 1193.2 658.604 1193.63 658.751C1197.85 660.156 1204.35 658.858 1200.46 657.638ZM919.071 569.001C919.149 568.657 917.237 567.547 915.108 566.456C911.997 564.866 908.371 563.271 909.1 564.007C909.322 564.232 912.113 565.865 914.72 567.218C916.925 568.366 919.018 569.323 919.071 569.001ZM1820.26 501.258C1816.16 505.182 1826.29 491.282 1830 487.684C1832.56 486.505 1820.82 500.818 1820.26 501.258ZM1311.67 666.645C1311.78 666.438 1311.29 666.268 1310.44 666.133C1306.31 665.494 1293.58 665.561 1300.1 666.697C1301.65 666.968 1307.76 667.048 1310.42 666.855C1311.15 666.803 1311.63 666.733 1311.67 666.645ZM1500.71 652.372C1488.06 656.453 1542.48 646.557 1527.85 647.629C1526.83 647.832 1501.84 652.153 1500.71 652.372ZM1588.57 631.745C1586.33 632.255 1586.19 627.993 1595.7 626.652C1596.95 626.473 1591.73 629.285 1592.78 629.216C1593.39 629.232 1613.26 623.317 1614.13 622.859C1615.07 622.421 1613.5 621.553 1614.44 621.073C1615.49 620.552 1627.98 617.45 1634.31 615.138C1646.24 610.805 1647.12 609.229 1648.1 608.869C1650.93 607.791 1655.98 606.714 1661.71 604.471C1670.08 601.197 1679.69 597.244 1689.51 593.039C1709.52 584.542 1725.79 576.63 1739.12 568.746C1742.54 566.791 1745.76 564.958 1748.67 563.379C1745.5 565.33 1742.4 567.263 1739.38 569.144C1725.87 577.672 1714.17 584.177 1697.84 591.552C1699.91 589.552 1694.97 591.942 1690.07 594.368C1683.73 597.504 1677.75 600.684 1688.84 594.428C1679.96 599.727 1595.93 631.001 1588.59 631.738C1588.58 631.74 1588.58 631.743 1588.57 631.745ZM651.476 312.2C656.452 315.895 636.342 292.508 633.295 291.554C635.843 294.832 650.904 311.74 651.476 312.2ZM743.37 417.684C745.2 419.499 748.665 419.89 755.768 429.496C756.296 430.207 756.839 430.961 757.397 431.761C757.406 431.771 757.414 431.781 757.423 431.791C759.809 435.212 756.222 432.06 756.532 432.792C756.61 433.048 764.076 443.839 756.853 435.782C755.222 433.957 754.084 432.608 753.298 431.601C748.91 425.965 756.575 432.288 751.692 426.5C751.014 425.719 738.974 413.733 739.342 414.671C739.379 414.777 742.909 418.493 743.333 419.209C744.998 421.99 743.331 421.354 743.59 421.726C743.997 422.286 748.282 426.914 752.856 431.978C757.997 437.678 763.477 443.847 764.29 445.807C764.521 446.36 758.618 440.078 752.008 432.7C744.194 423.999 735.376 413.787 734.871 413C734.275 412.074 736.411 410.88 735.874 409.867C735.61 409.379 723.519 396.24 722.219 394.312C721.839 393.753 721.563 393.312 721.366 392.984C722.509 395.537 712.247 383.038 713.203 382.874C713.641 382.887 720.594 391.603 720.798 391.937C720.891 392.088 720.962 392.227 721.035 392.351C720.268 390.041 744.251 418.925 740.1 411.819C747.621 419.647 737.597 411.919 743.37 417.684ZM777.803 455.258C776.91 454.647 775.98 453.991 775.095 453.383C787.743 466.57 800.387 481.637 814.858 494.004C818.578 497.175 815.276 492.358 819.921 496.814C823.652 500.371 827.422 505.17 824.952 503.616C824.296 503.224 816.624 495.776 812.713 492.422C801.083 482.425 803.127 485.839 802.42 485.297C801.645 484.654 795.26 477.192 791.394 473.232C781.679 463.309 776.643 459.053 764.209 443.24C772.51 451.384 769.724 445.392 777.803 455.258ZM1395.64 662.101C1396.28 661.247 1408.24 661.277 1412.55 660.818C1411.93 661.719 1399.97 661.77 1395.64 662.101ZM388.388 459.222C387.841 456.858 386.885 464.7 386.003 471.706C385.19 478.341 384.474 484.185 385.666 479.829C385.902 478.942 386.477 475.645 386.999 471.815C387.662 467.062 388.213 461.586 388.388 459.222ZM282.58 605.807C277.344 607.283 298.77 603.92 298.889 602.431C298.526 602.378 283.034 605.843 282.58 605.807ZM963.224 582.791C963.876 583.047 973.155 587.475 973.429 587.66C979.056 591.769 948.506 577.257 963.224 582.791ZM108.197 491.67C113.327 500.228 108.55 491.397 104.582 482.057C100.578 472.704 97.5588 463.32 99.8031 471.835C99.7439 472.688 107.439 490.94 108.197 491.67ZM88.6378 412.807C88.0541 417.038 90.1427 441.228 91.2975 441.951C91.6722 442.147 90.3994 434.739 89.8835 427.761C89.2826 420.702 89.1989 414.026 88.6378 412.807ZM1203.76 652.813C1202.43 651.126 1220.44 654.319 1226.8 654.715C1228.15 656.42 1210.06 653.386 1203.76 652.813ZM1095.09 631.69C1164.76 647.344 1148.49 647.841 1090.77 631.187C1090.97 630.21 1090.72 630.48 1095.09 631.69ZM1187.36 649.838C1184.47 650.466 1175.89 649.02 1170.14 648.092C1171.27 647.578 1183.12 649.486 1187.36 649.838ZM391.566 420.096C393.103 425.649 390.877 450.922 390.44 446.403C390.583 445.279 391.004 418.003 391.566 420.096ZM969.653 584.198C968.595 582.134 989.578 591.885 991.113 592.842C997.171 596.887 971.451 584.709 969.653 584.198ZM1312.64 659.688C1316.72 658.654 1328.14 659.538 1335.49 659.607C1332.14 660.601 1318.9 659.933 1312.64 659.688ZM1259.17 655.854C1259.65 655.854 1270 656.697 1270.46 656.772C1278.88 658.522 1249.56 656.131 1259.17 655.854ZM-4.57557 1.90045C-4.3638 1.84158 -1.5311 1.36614 0.932823 0.990047C3.26585 0.628372 5.38099 0.344666 5.53316 0.342331C9.56692 0.289425 5.65727 1.04976 1.06486 1.79988C-3.72564 2.57627 -9.69246 3.34763 -4.57557 1.90045Z" fill="#DCEBE5"/>
</svg>
