<?xml version="1.0" standalone="no"?>
<!DOCTYPE svg PUBLIC "-//W3C//DTD SVG 20010904//EN"
 "http://www.w3.org/TR/2001/REC-SVG-20010904/DTD/svg10.dtd">
<svg version="1.0" xmlns="http://www.w3.org/2000/svg"
 width="572.000000pt" height="576.000000pt" viewBox="0 0 572.000000 576.000000"
 preserveAspectRatio="xMidYMid meet">

<g transform="translate(0.000000,576.000000) scale(0.100000,-0.100000)"
fill="#000000" stroke="none">
<path d="M2610 5589 c-1166 -115 -2128 -967 -2384 -2111 -47 -212 -60 -343
-60 -608 1 -201 5 -271 23 -389 184 -1197 1098 -2115 2281 -2291 834 -125
1677 153 2279 750 434 431 702 968 788 1580 26 190 24 567 -6 759 -138 899
-686 1649 -1496 2046 -263 129 -496 202 -788 246 -154 23 -489 33 -637 18z
m-510 -1904 c0 -151 3 -275 8 -275 12 0 164 -28 195 -35 l27 -7 0 296 0 296
110 0 110 0 0 -328 0 -327 75 -28 75 -28 73 50 c261 180 423 400 444 602 l6
59 110 0 110 0 -6 -67 c-21 -241 -180 -499 -425 -692 l-81 -64 86 -53 c47 -30
91 -54 98 -54 23 0 249 230 315 319 119 164 202 369 217 539 l6 72 108 0 109
0 0 -44 c0 -64 -26 -202 -56 -298 -67 -212 -187 -401 -380 -597 l-132 -134
121 -121 c242 -242 387 -503 432 -776 8 -52 15 -114 15 -137 l0 -43 -110 0
-110 0 0 43 c0 113 -63 315 -136 440 -83 143 -221 305 -355 418 l-47 39 -83
-52 c-46 -29 -84 -57 -84 -63 0 -5 31 -35 70 -66 244 -195 402 -452 422 -686
l6 -73 -112 0 -111 0 0 33 c0 82 -50 213 -121 319 -76 113 -307 321 -393 354
-8 3 -47 -6 -86 -21 l-70 -27 0 -329 0 -329 -110 0 -110 0 0 295 c0 162 -3
295 -7 295 -5 -1 -55 -9 -113 -19 l-105 -18 -3 -276 -2 -277 -110 0 -110 0 0
379 0 378 98 7 c140 11 402 63 426 86 21 20 -289 100 -451 115 l-73 7 0 108 0
107 88 6 c130 10 319 54 426 100 29 13 29 13 -50 35 -118 32 -306 62 -390 62
l-74 0 0 380 0 380 110 0 110 0 0 -275z"/>
<path d="M2610 2954 c-52 -24 -108 -48 -125 -54 -29 -10 -27 -12 85 -61 63
-28 124 -53 135 -55 22 -5 195 84 197 101 1 9 -180 116 -192 114 -3 -1 -48
-21 -100 -45z"/>
</g>
</svg>
