<svg width="240" height="240" viewBox="0 0 240 240" fill="none" xmlns="http://www.w3.org/2000/svg">
<path d="M0 120C0 53.7258 53.7258 0 120 0C186.274 0 240 53.7258 240 120C240 186.274 186.274 240 120 240C53.7258 240 0 186.274 0 120Z" fill="#056589"/>
<path d="M96.4976 69C97.8835 69 99.2698 69.0747 100.656 69.2236C102.042 69.3726 103.335 69.5956 104.537 69.8936C105.43 70.0479 106.213 70.2203 106.886 70.4102C107.37 70.5466 107.644 71.0432 107.537 71.5342L105.818 79.3857C105.717 79.8447 105.31 80.1719 104.84 80.1719H98.7153C96.6827 80.1719 95.0196 80.619 93.7261 81.5127C92.525 82.332 91.7392 83.5607 91.3696 85.1992L90.2329 90.7002C90.1047 91.3207 90.5787 91.9023 91.2124 91.9023H101.903C102.543 91.9024 103.018 92.4955 102.878 93.1201L100.831 102.292C100.729 102.749 100.323 103.074 99.855 103.074H88.2935C87.8239 103.074 87.4174 103.402 87.3169 103.86L75.9858 155.583C75.4315 158.115 74.4152 160.573 72.937 162.956C71.4586 165.339 69.2404 167.276 66.2837 168.766C63.327 170.255 59.3077 171 54.2261 171C52.8403 171 51.4546 170.925 50.0688 170.776C48.683 170.627 47.3891 170.404 46.188 170.106C45.2944 169.952 44.5105 169.78 43.8374 169.59C43.3539 169.453 43.0807 168.957 43.188 168.466L44.9067 160.614C45.0072 160.155 45.4136 159.828 45.8833 159.828H52.0083C54.1334 159.828 55.7974 159.381 56.9985 158.487C58.1995 157.668 58.9844 156.439 59.354 154.801L70.3179 104.286C70.4528 103.663 69.9778 103.074 69.3403 103.074H61.2954C60.6552 103.074 60.1793 102.481 60.3188 101.856L62.3677 92.6846C62.4698 92.2276 62.875 91.9024 63.3433 91.9023H72.2729C72.7417 91.9023 73.1478 91.5767 73.2495 91.1191L74.7388 84.417C75.2932 81.8104 76.2631 79.3527 77.6489 77.0439C79.1272 74.6607 81.3447 72.724 84.3013 71.2344C87.2579 69.7448 91.3235 69 96.4976 69ZM125.641 92C126.552 92.0002 126.995 93.1261 126.34 93.7598C123.826 96.1927 121.438 98.7576 119.176 101.453C116.428 104.756 113.974 108.238 111.815 111.896C109.721 115.505 108.085 119.241 106.907 123.104C105.729 126.966 105.14 130.904 105.14 134.919C105.14 137.968 105.434 140.993 106.023 143.991C106.677 146.939 107.594 149.76 108.772 152.453C109.692 154.557 110.713 156.553 111.833 158.44C112.236 159.121 111.754 159.999 110.963 160H107.625C107.354 160 107.094 159.89 106.908 159.693C103.52 156.117 100.968 152.204 99.2505 147.955C97.4837 143.584 96.6001 139.011 96.6001 134.233C96.6001 128.999 97.6145 123.891 99.6431 118.91C101.737 113.879 104.682 109.101 108.477 104.578C112.276 100.077 116.836 95.9445 122.157 92.1816C122.324 92.0631 122.526 92.0001 122.731 92H125.641ZM185.975 92C186.246 92.0002 186.506 92.1098 186.693 92.3066C190.08 95.8831 192.633 99.7961 194.35 104.045C196.117 108.415 197 112.989 197 117.767C197 123.001 195.986 128.135 193.958 133.166C191.929 138.147 188.984 142.924 185.124 147.498C181.324 151.949 176.763 156.056 171.443 159.818C171.275 159.937 171.074 160 170.869 160H167.958C167.047 160 166.605 158.874 167.26 158.24C169.775 155.807 172.163 153.242 174.424 150.547C177.238 147.244 179.692 143.788 181.786 140.18C183.88 136.521 185.516 132.759 186.694 128.896C187.872 125.034 188.46 121.096 188.46 117.081C188.46 113.981 188.133 110.956 187.479 108.009C186.89 105.061 186.006 102.24 184.829 99.5469C183.969 97.4257 182.972 95.4407 181.838 93.5928C181.418 92.9068 181.899 92.0003 182.704 92H185.975ZM149.624 96C152.803 96 155.678 96.3269 158.249 96.9814C160.886 97.5632 163.119 98.4362 164.945 99.5996C166.839 100.763 168.293 102.182 169.308 103.854C170.323 105.454 170.831 107.273 170.831 109.31C170.831 110.473 170.729 111.527 170.526 112.473C170.436 112.893 170.359 113.235 170.295 113.497C170.204 113.875 169.871 114.109 169.482 114.109H158.948C158.479 114.109 158.137 113.673 158.146 113.204C158.147 113.147 158.153 113.099 158.166 113.043C158.221 112.787 158.249 112.56 158.249 112.363C158.248 111.127 157.91 110.073 157.234 109.2C156.558 108.328 155.577 107.673 154.291 107.236C153.006 106.727 151.383 106.473 149.421 106.473C147.595 106.473 146.005 106.655 144.652 107.019C143.367 107.309 142.284 107.745 141.405 108.327C140.526 108.909 139.849 109.601 139.375 110.4C138.97 111.127 138.767 111.891 138.767 112.69C138.767 114.218 139.41 115.418 140.695 116.291C141.98 117.091 143.637 117.782 145.666 118.363C147.696 118.872 149.861 119.527 152.161 120.327C154.122 120.982 156.016 121.673 157.842 122.4C159.736 123.055 161.461 123.928 163.017 125.019C164.573 126.109 165.791 127.527 166.67 129.272C167.617 130.945 168.09 133.054 168.09 135.6C168.09 139.381 167.414 142.582 166.061 145.2C164.708 147.818 162.848 149.927 160.481 151.527C158.181 153.055 155.543 154.182 152.567 154.909C149.591 155.636 146.479 156 143.232 156C139.512 156 136.23 155.636 133.389 154.909C130.548 154.182 128.147 153.163 126.185 151.854C124.291 150.546 122.871 148.982 121.924 147.164C120.977 145.273 120.503 143.236 120.503 141.055C120.503 140.182 120.571 139.346 120.707 138.546C120.817 138.109 120.918 137.727 121.008 137.398C121.125 136.976 121.512 136.69 121.951 136.69H132.178C132.745 136.691 133.172 137.222 133.085 137.782C133.018 138.218 132.984 138.509 132.984 138.654C132.984 140.327 133.457 141.672 134.404 142.69C135.351 143.709 136.603 144.437 138.159 144.873C139.782 145.309 141.507 145.527 143.333 145.527C144.754 145.527 146.141 145.418 147.494 145.2C148.914 144.909 150.199 144.509 151.349 144C152.499 143.491 153.412 142.8 154.088 141.928C154.765 141.055 155.103 139.963 155.103 138.654C155.103 137.345 154.731 136.291 153.987 135.491C153.243 134.619 152.228 133.891 150.943 133.31C149.725 132.728 148.304 132.219 146.681 131.782C145.125 131.273 143.468 130.764 141.709 130.255C139.816 129.673 137.922 129.018 136.028 128.291C134.134 127.564 132.409 126.654 130.853 125.563C129.365 124.473 128.147 123.091 127.2 121.418C126.321 119.745 125.881 117.709 125.881 115.31C125.881 112.182 126.49 109.418 127.708 107.019C128.925 104.619 130.616 102.619 132.781 101.019C134.945 99.3459 137.449 98.1095 140.29 97.3096C143.198 96.437 146.309 96 149.624 96Z" fill="#FCFCFC"/>
</svg>
