<svg version="1.2" xmlns="http://www.w3.org/2000/svg" viewBox="0 0 400 400" width="400" height="400">
	<title>f(s)</title>
	<style>
		.s0 { fill: #247789 } 
		.s1 { fill: #ffffff } 
	</style>
	<path id="Shape 1" class="s0" d="m200 400c-110.6 0-200-89.4-200-200 0-110.6 89.4-200 200-200 110.6 0 200 89.4 200 200 0 110.6-89.4 200-200 200z"/>
	<path id="f(s)" class="s1" aria-label="f(s)"  d="m92.5 283.5c8.8 2.4 17.7-5.6 22.8-11.6 7.3-8.5 14.1-19 16.6-30.1 6.5-26.9 8.6-46.5 13.5-73.1 6.1 0 13.4 1 18.9 2.3 1-2.8 2.6-5.6 5.2-9.1-4.5 0.5-9.3 0.7-13.8 0.7-3.1 0-6.3 0-9.1-0.4 0.9-6.3 1.9-16.6 5.2-26.8 3.2-9.4 6.9-12 14.6-10.6 3.1 0.5 14.3 4.3 20.1 8.7 1.2-7.3 2.6-10.1 5.4-16.1-4.7-0.3-15-4.2-21.2-4.2-8 0-13.4 4.8-18.9 9.8-7.8 7.6-10.8 9.1-13.8 21.7-1.7 7.7-1.9 13.3-3.1 17.5-3.3 1.8-10.7 3.9-14.9 5.1l0.5 2.4c0.7-0.3 8.4-1.2 13.5-0.8-3.5 24.5-7.7 54.2-14.7 80.3-3.1 11.6-6.6 22.9-19.1 21.2-5.4-0.5-12.4-3.5-16.4-5.8-1.3 4-4.1 11-6.9 15 2.5 0 12.6 3 15.6 3.9zm105.4-17.1c-4.2-7.9-6.2-12.5-8.6-20.5-2.3-7.4-4.4-19.5-4.4-33.3 0-8.7 0.9-18.2 3-27.8 4.9-21.2 14.7-37.4 25.2-48.8 4.6-4.9 9.8-9.3 15.4-14l-2.8-3.9c-7.3 5.3-13.3 9.3-20.5 15.6-14.7 13.1-24.6 28-30.1 49.5-1.9 7.9-2.8 16-2.8 23.6 0 13.5 2.7 26.1 6.7 35.6 4.2 9.9 8.7 18.5 14.9 26.7zm24.1-30.4c5.3 1 10.5 3 15.4 3.8 9.3 1.6 17.3-0.8 23.8-11.3 3.3-5.5 4.9-10 4.9-14 0-4.2-1.6-7.9-5.1-12.5-2.9-4-12.7-13.3-16.6-18.9-2.6-3.6-3.8-9.2-1.7-11.7 1.7-1.9 4-2.1 8.9-0.7 5.2 1.4 10.6 4 14.3 6.1 1.1-3.8 4.1-9.9 6.7-14.1-4.6 0.3-8.9-0.7-16.6-1.8-5.6-0.7-11.2 0.2-17.5 6.7-4.9 5.2-7 9.8-7 14.3 0 3.5 1.2 6.8 3.6 10.2 4.8 6.6 12.1 12.6 17.5 19.9 3.5 4.7 6 9.6 4.2 12.8-2.2 4-7 4.5-10.3 4-8.2-1.4-14.9-4.7-18.2-7-0.9 4.4-4.2 10.5-6.3 14.2zm75.8-115c4.2 7.9 6.1 12.4 8.6 20.5 2.2 7.3 4.3 19.4 4.3 33.2 0 8.8-0.8 18.2-2.9 27.9-4.9 21.1-14.7 37.4-25.2 48.8-4.6 4.9-9.9 9.3-15.4 14l2.8 3.8c7.3-5.2 13.2-9.2 20.4-15.5 14.7-13.2 24.7-28 30.1-49.6 2-7.8 2.8-15.9 2.8-23.6 0-13.5-2.6-26.1-6.6-35.5-4.2-10-8.8-18.6-14.9-26.8z"/>
</svg>