<svg xmlns="http://www.w3.org/2000/svg" width="240" height="240" viewBox="0 0 240 240" fill="none">
<path d="M0 120C0 53.7258 53.7258 0 120 0C186.274 0 240 53.7258 240 120C240 186.274 186.274 240 120 240C53.7258 240 0 186.274 0 120Z" fill="#030303"/>
<path d="M96.4982 69C97.884 69 99.2697 69.0747 100.655 69.2236C102.041 69.3726 103.335 69.5957 104.536 69.8936C105.43 70.0479 106.214 70.2203 106.887 70.4102C107.37 70.5468 107.644 71.0433 107.536 71.5342L105.818 79.3857C105.717 79.8446 105.311 80.1717 104.841 80.1719H98.716C96.6833 80.1719 95.0193 80.6189 93.7258 81.5127C92.5248 82.3319 91.7399 83.5609 91.3703 85.1992L90.2326 90.7002C90.1044 91.3207 90.5785 91.9023 91.2121 91.9023H101.903C102.543 91.9023 103.018 92.4955 102.879 93.1201L100.83 102.292C100.728 102.749 100.323 103.074 99.8547 103.074H88.2941C87.8244 103.074 87.4182 103.402 87.3176 103.86L75.9855 155.583C75.4311 158.115 74.415 160.573 72.9367 162.956C71.4584 165.339 69.241 167.276 66.2844 168.766C63.3277 170.255 59.3076 171 54.2258 171C52.84 171 51.4543 170.925 50.0685 170.776C48.6826 170.627 47.3888 170.404 46.1877 170.106C45.2943 169.952 44.5111 169.78 43.8381 169.59C43.3544 169.453 43.0804 168.957 43.1877 168.466L44.9064 160.614C45.0069 160.155 45.4141 159.828 45.884 159.828H52.009C54.134 159.828 55.7971 159.381 56.9982 158.487C58.1993 157.668 58.9851 156.439 59.3547 154.801L70.3176 104.286C70.4525 103.663 69.9776 103.074 69.34 103.074H61.2951C60.655 103.074 60.18 102.481 60.3195 101.856L62.3674 92.6846C62.4694 92.2276 62.8748 91.9025 63.343 91.9023H72.2726C72.7414 91.9023 73.1475 91.5767 73.2492 91.1191L74.7385 84.417C75.2928 81.8104 76.2628 79.3527 77.6486 77.0439C79.127 74.6606 81.3452 72.724 84.3019 71.2344C87.2586 69.7449 91.3242 69 96.4982 69ZM125.641 92C126.552 92 126.995 93.1261 126.34 93.7598C123.825 96.1928 121.437 98.7576 119.176 101.453C116.428 104.756 113.974 108.238 111.815 111.896C109.721 115.505 108.084 119.241 106.906 123.104C105.729 126.966 105.14 130.904 105.14 134.919C105.14 137.968 105.434 140.993 106.023 143.991C106.677 146.939 107.594 149.76 108.772 152.453C109.692 154.558 110.712 156.553 111.832 158.44C112.236 159.121 111.754 160 110.963 160H107.625C107.354 160 107.094 159.89 106.907 159.693C103.52 156.117 100.968 152.204 99.2502 147.955C97.4834 143.584 96.5998 139.011 96.5998 134.233C96.5998 128.999 97.6142 123.891 99.6428 118.91C101.737 113.879 104.681 109.101 108.477 104.578C112.276 100.077 116.836 95.9446 122.156 92.1816C122.324 92.063 122.525 92.0001 122.731 92H125.641ZM185.975 92C186.246 92.0001 186.506 92.1098 186.693 92.3066C190.08 95.8831 192.632 99.7961 194.35 104.045C196.117 108.416 197 112.989 197 117.767C197 123.001 195.986 128.135 193.957 133.166C191.929 138.147 188.984 142.924 185.123 147.498C181.324 151.949 176.763 156.056 171.443 159.818C171.275 159.937 171.074 160 170.868 160H167.958C167.047 160 166.605 158.874 167.26 158.24C169.775 155.807 172.163 153.242 174.424 150.547C177.238 147.244 179.691 143.788 181.785 140.18C183.879 136.521 185.516 132.759 186.694 128.896C187.871 125.034 188.46 121.096 188.46 117.081C188.46 113.981 188.133 110.956 187.479 108.009C186.89 105.061 186.006 102.24 184.828 99.5469C183.968 97.4257 182.972 95.4407 181.838 93.5928C181.418 92.9068 181.899 92.0004 182.703 92H185.975ZM149.623 96C152.802 96 155.678 96.3269 158.248 96.9814C160.886 97.5632 163.118 98.4361 164.945 99.5996C166.839 100.763 168.293 102.182 169.308 103.854C170.322 105.454 170.83 107.273 170.83 109.31C170.83 110.473 170.728 111.527 170.526 112.473C170.435 112.893 170.359 113.235 170.295 113.497C170.203 113.875 169.871 114.109 169.482 114.109H158.947C158.478 114.109 158.136 113.673 158.146 113.204C158.147 113.147 158.153 113.099 158.165 113.043C158.22 112.787 158.248 112.56 158.248 112.363C158.248 111.127 157.91 110.073 157.234 109.2C156.557 108.328 155.576 107.673 154.291 107.236C153.006 106.727 151.383 106.473 149.421 106.473C147.595 106.473 146.004 106.655 144.652 107.019C143.367 107.309 142.284 107.745 141.404 108.327C140.525 108.909 139.849 109.6 139.375 110.4C138.97 111.127 138.767 111.891 138.767 112.69C138.767 114.218 139.409 115.418 140.695 116.291C141.98 117.091 143.637 117.781 145.666 118.363C147.696 118.872 149.86 119.527 152.16 120.327C154.122 120.982 156.016 121.673 157.842 122.4C159.736 123.055 161.461 123.928 163.017 125.019C164.573 126.109 165.791 127.527 166.67 129.272C167.617 130.945 168.09 133.054 168.09 135.6C168.09 139.381 167.414 142.582 166.061 145.2C164.708 147.818 162.848 149.927 160.481 151.527C158.181 153.055 155.543 154.182 152.567 154.909C149.59 155.636 146.478 156 143.232 156C139.511 156 136.23 155.636 133.389 154.909C130.548 154.182 128.146 153.164 126.185 151.854C124.291 150.546 122.871 148.982 121.924 147.164C120.977 145.273 120.503 143.236 120.503 141.055C120.503 140.182 120.571 139.346 120.706 138.546C120.817 138.109 120.917 137.727 121.008 137.398C121.125 136.976 121.512 136.69 121.95 136.69H132.178C132.745 136.69 133.172 137.222 133.085 137.782C133.018 138.218 132.984 138.509 132.984 138.654C132.984 140.327 133.457 141.672 134.404 142.69C135.351 143.709 136.603 144.437 138.158 144.873C139.782 145.309 141.507 145.527 143.333 145.527C144.754 145.527 146.141 145.418 147.493 145.2C148.914 144.909 150.199 144.509 151.349 144C152.499 143.491 153.412 142.8 154.088 141.928C154.765 141.055 155.103 139.963 155.103 138.654C155.103 137.345 154.73 136.291 153.987 135.491C153.242 134.619 152.228 133.891 150.943 133.31C149.725 132.728 148.304 132.219 146.681 131.782C145.125 131.273 143.468 130.764 141.709 130.255C139.815 129.673 137.921 129.018 136.028 128.291C134.134 127.564 132.409 126.654 130.853 125.563C129.365 124.473 128.146 123.091 127.199 121.418C126.32 119.745 125.881 117.709 125.881 115.31C125.881 112.182 126.49 109.418 127.707 107.019C128.925 104.619 130.616 102.619 132.78 101.019C134.945 99.3458 137.448 98.1096 140.289 97.3096C143.198 96.4369 146.309 96 149.623 96Z" fill="#FCFCFC"/>
</svg>
