<svg width="181" height="48" viewBox="0 0 181 48" fill="none" xmlns="http://www.w3.org/2000/svg">
<g clip-path="url(#clip0_8_36)">
<path fill-rule="evenodd" clip-rule="evenodd" d="M24 0C41.7361 0 48 6.29335 48 24C48 41.6397 41.6317 48 24 48C6.42021 48 0 41.5581 0 24C0 6.37463 6.3155 0 24 0ZM22.2257 26.812C21.1263 29.4306 18.5378 31.2696 15.5198 31.2696C11.5048 31.2696 8.25 28.0148 8.25 23.9997C8.25 19.9847 11.5048 16.7299 15.5198 16.7299C18.5378 16.7299 21.1263 18.5689 22.2257 21.1874C23.3736 16.8751 27.0979 13.6134 31.6498 13.1512C32.3882 13.0763 32.7644 13.141 32.7644 14.0037V20.592C32.7644 21.0826 32.6721 21.327 31.6498 21.327C30.1294 21.327 29.1508 22.679 29.1508 23.9997C29.1508 25.5054 30.0298 26.7259 31.6498 26.7259C32.7644 26.7259 32.7644 26.1026 32.7644 25.3344V22.1823C32.7644 21.5765 32.9774 21.2735 33.5454 21.2735H37.017C37.5736 21.2735 37.5996 21.284 37.9192 21.7275C37.9192 21.7275 39.3138 23.6519 39.5569 23.9997C39.8 24.3476 39.8284 24.4541 39.5569 24.8593C39.2854 25.2646 37.9192 27.1725 37.9192 27.1725C37.6006 27.6226 37.578 27.6347 37.017 27.6347H34.4102C33.0512 27.6347 32.7644 28.5751 32.7644 29.4237V33.7686C32.7644 34.7812 32.5852 34.9432 31.6498 34.8482C27.0979 34.3861 23.3736 31.1244 22.2257 26.812ZM17.9431 23.9997C17.9431 25.3381 16.8582 26.423 15.5198 26.423C14.1815 26.423 13.0966 25.3381 13.0966 23.9997C13.0966 22.6614 14.1815 21.5764 15.5198 21.5764C16.8582 21.5764 17.9431 22.6614 17.9431 23.9997ZM85.6228 31.7181C86.7774 29.5818 87.3547 26.9909 87.3547 23.9454C87.3547 20.9 86.7774 18.309 85.6228 16.1727C84.4774 14.0363 82.9137 12.409 80.9319 11.2909C78.9592 10.1636 76.741 9.59996 74.2774 9.59996C71.7956 9.59996 69.5683 10.1636 67.5956 11.2909C65.6228 12.409 64.0638 14.0363 62.9183 16.1727C61.7728 18.309 61.2001 20.9 61.2001 23.9454C61.2001 26.9818 61.7728 29.5681 62.9183 31.7045C64.0638 33.8409 65.6228 35.4727 67.5956 36.6C69.5683 37.7272 71.7956 38.2909 74.2774 38.2909C76.741 38.2909 78.9592 37.7318 80.9319 36.6136C82.9137 35.4863 84.4774 33.8545 85.6228 31.7181ZM80.4819 18.9545C81.0728 20.309 81.3683 21.9727 81.3683 23.9454C81.3683 25.9181 81.0728 27.5818 80.4819 28.9363C79.9001 30.2909 79.0774 31.3181 78.0137 32.0181C76.9501 32.7181 75.7047 33.0681 74.2774 33.0681C72.8501 33.0681 71.6047 32.7181 70.541 32.0181C69.4774 31.3181 68.6501 30.2909 68.0592 28.9363C67.4774 27.5818 67.1865 25.9181 67.1865 23.9454C67.1865 21.9727 67.4774 20.309 68.0592 18.9545C68.6501 17.6 69.4774 16.5727 70.541 15.8727C71.6047 15.1727 72.8501 14.8227 74.2774 14.8227C75.7047 14.8227 76.9501 15.1727 78.0137 15.8727C79.0774 16.5727 79.9001 17.6 80.4819 18.9545ZM93.6856 36.9545C95.231 37.8636 97.0765 38.3181 99.222 38.3181C101.086 38.3181 102.699 37.9772 104.063 37.2954C105.426 36.6136 106.495 35.6681 107.267 34.459C108.049 33.2409 108.486 31.8318 108.576 30.2318H103.095C102.986 30.9681 102.754 31.6 102.399 32.1272C102.054 32.6454 101.613 33.0409 101.076 33.3136C100.549 33.5863 99.9538 33.7227 99.2901 33.7227C98.3901 33.7227 97.6038 33.4772 96.931 32.9863C96.2583 32.4954 95.7356 31.7818 95.3629 30.8454C94.9992 29.909 94.8174 28.7727 94.8174 27.4363C94.8174 26.1181 95.0038 24.9954 95.3765 24.0681C95.7492 23.1409 96.2674 22.4363 96.931 21.9545C97.6038 21.4636 98.3901 21.2181 99.2901 21.2181C100.354 21.2181 101.213 21.5409 101.867 22.1863C102.531 22.8227 102.94 23.6636 103.095 24.709H108.576C108.495 23.0909 108.054 21.6818 107.254 20.4818C106.454 19.2818 105.367 18.35 103.995 17.6863C102.622 17.0227 101.022 16.6909 99.1947 16.6909C97.0765 16.6909 95.2492 17.15 93.7129 18.0681C92.1765 18.9772 90.9901 20.2454 90.1538 21.8727C89.3265 23.4909 88.9129 25.3727 88.9129 27.5181C88.9129 29.6363 89.322 31.5091 90.1401 33.1363C90.9674 34.7636 92.1492 36.0363 93.6856 36.9545ZM122.285 16.9636V21.3272H118.344V31.4727C118.344 32.009 118.426 32.4272 118.589 32.7272C118.753 33.0181 118.98 33.2227 119.271 33.3409C119.571 33.459 119.917 33.5181 120.307 33.5181C120.58 33.5181 120.853 33.4954 121.126 33.45C121.398 33.3954 121.607 33.3545 121.753 33.3272L122.667 37.65C122.376 37.7409 121.967 37.8454 121.439 37.9636C120.912 38.0909 120.271 38.1681 119.517 38.1954C118.117 38.25 116.889 38.0636 115.835 37.6363C114.789 37.209 113.976 36.5454 113.394 35.6454C112.812 34.7454 112.526 33.6091 112.535 32.2363V21.3272H109.671V16.9636H112.535V11.9454H118.344V16.9636H122.285ZM127.317 37.609C128.362 38.0727 129.553 38.3045 130.89 38.3045C131.926 38.3045 132.84 38.1681 133.63 37.8954C134.421 37.6136 135.099 37.2272 135.662 36.7363C136.226 36.2363 136.676 35.659 137.012 35.0045H137.176V37.909H142.685V23.7818C142.685 22.5363 142.444 21.4681 141.962 20.5772C141.48 19.6772 140.821 18.9409 139.985 18.3681C139.158 17.7954 138.208 17.3727 137.135 17.1C136.071 16.8272 134.958 16.6909 133.794 16.6909C132.121 16.6909 130.649 16.9454 129.376 17.4545C128.112 17.9545 127.08 18.6727 126.28 19.6091C125.48 20.5363 124.944 21.6363 124.671 22.909L130.044 23.3454C130.244 22.6545 130.653 22.0818 131.271 21.6272C131.89 21.1636 132.721 20.9318 133.767 20.9318C134.758 20.9318 135.521 21.1681 136.058 21.6409C136.603 22.1136 136.876 22.7818 136.876 23.6454V23.7272C136.876 24.1727 136.708 24.5091 136.371 24.7363C136.035 24.9636 135.494 25.1363 134.749 25.2545C134.003 25.3636 133.021 25.4818 131.803 25.609C130.767 25.709 129.776 25.8818 128.83 26.1272C127.894 26.3727 127.058 26.7363 126.321 27.2181C125.585 27.7 125.003 28.3363 124.576 29.1272C124.149 29.9181 123.935 30.8954 123.935 32.0591C123.935 33.4409 124.235 34.5954 124.835 35.5227C125.444 36.4409 126.271 37.1363 127.317 37.609ZM134.817 33.7909C134.162 34.1272 133.408 34.2954 132.553 34.2954C131.662 34.2954 130.926 34.0909 130.344 33.6818C129.771 33.2636 129.485 32.659 129.485 31.8681C129.485 31.3227 129.626 30.8681 129.908 30.5045C130.19 30.1318 130.585 29.8363 131.094 29.6181C131.603 29.4 132.199 29.2409 132.88 29.1409C133.199 29.0954 133.553 29.0454 133.944 28.9909C134.335 28.9272 134.726 28.8591 135.117 28.7863C135.508 28.7045 135.858 28.6181 136.167 28.5272C136.485 28.4272 136.735 28.3181 136.917 28.2V30.4227C136.917 31.159 136.73 31.8181 136.358 32.4C135.985 32.9818 135.471 33.4454 134.817 33.7909ZM151.849 25.8V37.909H146.04V16.9636H151.576V20.659H151.822C152.285 19.4409 153.063 18.4772 154.153 17.7681C155.244 17.05 156.567 16.6909 158.122 16.6909C159.576 16.6909 160.844 17.0091 161.926 17.6454C163.008 18.2818 163.849 19.1909 164.449 20.3727C165.049 21.5454 165.349 22.9454 165.349 24.5727V37.909H159.54V25.609C159.549 24.3272 159.222 23.3272 158.558 22.6091C157.894 21.8818 156.981 21.5181 155.817 21.5181C155.035 21.5181 154.344 21.6863 153.744 22.0227C153.153 22.3591 152.69 22.85 152.353 23.4954C152.026 24.1318 151.858 24.9 151.849 25.8ZM179.916 21.3272V16.9636H175.975V11.9454H170.166V16.9636H167.303V21.3272H170.166V32.2363C170.157 33.6091 170.443 34.7454 171.025 35.6454C171.607 36.5454 172.421 37.209 173.466 37.6363C174.521 38.0636 175.748 38.25 177.148 38.1954C177.903 38.1681 178.543 38.0909 179.071 37.9636C179.598 37.8454 180.007 37.7409 180.298 37.65L179.384 33.3272C179.239 33.3545 179.03 33.3954 178.757 33.45C178.484 33.4954 178.212 33.5181 177.939 33.5181C177.548 33.5181 177.203 33.459 176.903 33.3409C176.612 33.2227 176.384 33.0181 176.221 32.7272C176.057 32.4272 175.975 32.009 175.975 31.4727V21.3272H179.916Z" fill="black"/>
</g>
<defs>
<clipPath id="clip0_8_36">
<rect width="181" height="48" fill="white"/>
</clipPath>
</defs>
</svg>

