<svg width="40" height="40" viewBox="0 0 40 40" fill="none" xmlns="http://www.w3.org/2000/svg">
<g clip-path="url(#clip0_522_1302)">
<path d="M19.9997 33.3335C23.5359 33.3335 26.9273 31.9287 29.4278 29.4283C31.9283 26.9278 33.333 23.5364 33.333 20.0002C33.333 16.4639 31.9283 13.0726 29.4278 10.5721C26.9273 8.07159 23.5359 6.66683 19.9997 6.66683C16.4635 6.66683 13.0721 8.07159 10.5716 10.5721C8.0711 13.0726 6.66634 16.4639 6.66634 20.0002C6.66634 23.5364 8.0711 26.9278 10.5716 29.4283C13.0721 31.9287 16.4635 33.3335 19.9997 33.3335ZM19.9997 36.6668C10.7947 36.6668 3.33301 29.2052 3.33301 20.0002C3.33301 10.7952 10.7947 3.3335 19.9997 3.3335C29.2047 3.3335 36.6663 10.7952 36.6663 20.0002C36.6663 29.2052 29.2047 36.6668 19.9997 36.6668ZM14.8163 21.9502L10.653 20.6518C9.75301 20.3768 9.74801 19.7568 10.8547 19.3118L27.0763 13.0452C28.018 12.6618 28.5513 13.1468 28.2463 14.3618L25.4847 27.3952C25.2913 28.3235 24.733 28.5452 23.958 28.1168L19.7063 24.9702L17.7247 26.8835C17.5213 27.0802 17.3563 27.2485 17.043 27.2902C16.7313 27.3335 16.4747 27.2402 16.2863 26.7235L14.8363 21.9385L14.8163 21.9518V21.9502Z" fill="#030303"/>
</g>
<defs>
<clipPath id="clip0_522_1302">
<rect width="40" height="40" fill="white"/>
</clipPath>
</defs>
</svg>
