<svg width="167" height="24" viewBox="0 0 167 24" fill="none" xmlns="http://www.w3.org/2000/svg">
<path d="M37.2476 6.45605C39.087 6.45605 40.6916 6.76815 42.061 7.39258C43.4303 7.99683 44.4933 8.91304 45.2495 10.1416C46.0057 11.3703 46.3833 12.9217 46.3833 14.7949C46.3833 16.648 46.0057 18.1994 45.2495 19.4482C44.4933 20.6768 43.4303 21.6031 42.061 22.2275C40.6916 22.8318 39.087 23.1338 37.2476 23.1338C35.4081 23.1338 33.8035 22.8318 32.4341 22.2275C31.0854 21.6032 30.033 20.6767 29.2769 19.4482C28.5206 18.1994 28.1421 16.648 28.1421 14.7949C28.1421 12.9217 28.5206 11.3703 29.2769 10.1416C30.033 8.91317 31.0854 7.99679 32.4341 7.39258C33.8035 6.76816 35.4081 6.45606 37.2476 6.45605ZM91.2368 1.62109C92.504 1.6211 93.6898 1.7528 94.7935 2.01465C95.9174 2.25637 96.9088 2.63847 97.7671 3.16211C98.6255 3.68579 99.3 4.3506 99.7905 5.15625C100.281 5.96196 100.537 6.9195 100.557 8.02734V8.38965H94.2104V8.26855C94.2104 7.90604 94.119 7.56345 93.9351 7.24121C93.7511 6.91893 93.4542 6.65748 93.0454 6.45605C92.6571 6.25463 92.136 6.15332 91.4819 6.15332C90.8688 6.15332 90.3477 6.21411 89.9185 6.33496C89.5097 6.45582 89.2029 6.62706 88.9985 6.84863C88.7942 7.05003 88.6919 7.27201 88.6919 7.51367C88.692 7.8962 88.866 8.20857 89.2134 8.4502C89.5608 8.69183 90.031 8.89261 90.6235 9.05371C91.2163 9.21485 91.8809 9.36681 92.6167 9.50781C93.3523 9.64879 94.1186 9.80997 94.9155 9.99121C95.7126 10.1524 96.4795 10.3733 97.2153 10.6553C97.951 10.9372 98.6149 11.3103 99.2075 11.7734C99.8002 12.2166 100.27 12.7708 100.618 13.4355C100.965 14.1002 101.139 14.916 101.139 15.8828C101.139 17.5948 100.73 18.9843 99.9126 20.0518C99.1155 21.1193 98.0123 21.9056 96.6021 22.4092C95.2123 22.8926 93.6282 23.1338 91.8501 23.1338C90.399 23.1338 89.0392 23.0233 87.772 22.8018C86.5254 22.6003 85.4219 22.2476 84.4614 21.7441C83.5212 21.2204 82.775 20.5051 82.2231 19.5986C81.6918 18.6721 81.4263 17.5137 81.4263 16.124V15.9736C81.4263 15.8931 81.4361 15.812 81.4565 15.7314H87.8647C87.8443 15.812 87.8335 15.8931 87.8335 15.9736V16.1543C87.8335 16.7585 87.9771 17.2217 88.2632 17.5439C88.5493 17.8662 88.9476 18.0881 89.4585 18.209C89.9899 18.3097 90.5828 18.3604 91.2368 18.3604H92.0034C92.2895 18.3402 92.5551 18.3098 92.8003 18.2695C93.066 18.2091 93.301 18.1281 93.5054 18.0273C93.7301 17.9266 93.9042 17.7959 94.0269 17.6348C94.1493 17.4536 94.2104 17.2322 94.2104 16.9707C94.2104 16.588 94.0364 16.285 93.689 16.0635C93.3416 15.842 92.8713 15.6513 92.2788 15.4902C91.6862 15.3291 91.0223 15.1771 90.2866 15.0361C89.5508 14.8951 88.7839 14.734 87.9868 14.5527C87.1899 14.3513 86.4236 14.0999 85.688 13.7979C84.9522 13.4957 84.2875 13.1127 83.6948 12.6494C83.1022 12.166 82.6321 11.5721 82.2847 10.8672C81.9372 10.1421 81.7632 9.27569 81.7632 8.26855C81.7632 7.06002 82.0188 6.0325 82.5298 5.18652C83.0407 4.3406 83.7359 3.65552 84.6147 3.13184C85.514 2.60821 86.5259 2.22606 87.6499 1.98438C88.7944 1.74267 89.9901 1.62109 91.2368 1.62109ZM110.817 6.81836H114.251V10.8975H110.817V16.9707C110.817 17.6552 110.93 18.1785 111.155 18.541C111.38 18.8834 111.839 19.0546 112.534 19.0547H114.251V22.5898C113.924 22.6905 113.515 22.7817 113.025 22.8623C112.555 22.963 112.074 23.033 111.583 23.0732C111.113 23.1135 110.694 23.1338 110.327 23.1338C109.223 23.1338 108.242 23.0132 107.383 22.7715C106.546 22.5096 105.891 22.0666 105.421 21.4424C104.951 20.818 104.716 19.9616 104.716 18.874V10.8975H102.448V6.81836H104.961L106.28 1.98438H110.817V6.81836ZM124.47 6.45605C125.962 6.45605 127.342 6.61722 128.609 6.93945C129.876 7.26174 130.899 7.80587 131.675 8.57129C132.452 9.31648 132.84 10.3434 132.84 11.6523V17.877C132.84 18.1992 132.922 18.481 133.085 18.7227C133.249 18.9442 133.494 19.0546 133.821 19.0547H134.925V22.5293C134.68 22.6703 134.271 22.802 133.699 22.9229C133.147 23.0638 132.493 23.1338 131.737 23.1338C130.919 23.1338 130.203 23.0537 129.59 22.8926C128.977 22.7315 128.477 22.4994 128.088 22.1973C127.72 21.8951 127.465 21.5425 127.322 21.1396H127.107C126.678 21.5223 126.177 21.8649 125.605 22.167C125.053 22.4691 124.419 22.7012 123.704 22.8623C122.988 23.0435 122.171 23.1338 121.251 23.1338C120.413 23.1338 119.647 23.0537 118.952 22.8926C118.257 22.7516 117.654 22.5094 117.143 22.167C116.632 21.8045 116.234 21.3412 115.948 20.7773C115.682 20.1932 115.549 19.488 115.549 18.6621C115.549 17.4738 115.794 16.5069 116.285 15.7617C116.796 15.0166 117.531 14.4429 118.492 14.04C119.452 13.6372 120.618 13.3646 121.987 13.2236C123.377 13.0625 124.961 12.9824 126.739 12.9824V12.1963C126.739 11.7533 126.627 11.4005 126.402 11.1387C126.197 10.8568 125.921 10.6458 125.574 10.5049C125.226 10.3639 124.828 10.293 124.378 10.293C124.031 10.293 123.673 10.3335 123.305 10.4141C122.937 10.4946 122.63 10.6355 122.385 10.8369C122.161 11.0383 122.048 11.3203 122.048 11.6826V11.8037H116.04C116.019 11.7232 116.009 11.6522 116.009 11.5918V11.3809C116.009 10.3939 116.326 9.53764 116.959 8.8125C117.613 8.06739 118.564 7.49364 119.81 7.09082C121.077 6.66784 122.631 6.45607 124.47 6.45605ZM143.662 6.81836H147.096V10.8975H143.662V16.9707C143.662 17.6552 143.775 18.1785 144 18.541C144.224 18.8834 144.684 19.0546 145.378 19.0547H147.096V22.5898C146.769 22.6905 146.36 22.7817 145.87 22.8623C145.4 22.963 144.919 23.033 144.428 23.0732C143.958 23.1135 143.539 23.1338 143.171 23.1338C142.068 23.1338 141.086 23.0132 140.228 22.7715C139.39 22.5096 138.736 22.0666 138.266 21.4424C137.796 20.818 137.561 19.9616 137.561 18.874V10.8975H135.292V6.81836H137.806L139.125 1.98438H143.662V6.81836ZM157.683 6.45605C159.625 6.45608 161.27 6.75808 162.619 7.3623C163.988 7.94644 165.03 8.85333 165.746 10.082C166.461 11.3107 166.819 12.8815 166.819 14.7949V15.8223H154.678C154.678 16.5473 154.781 17.1716 154.985 17.6953C155.21 18.2189 155.557 18.6223 156.027 18.9043C156.517 19.1662 157.152 19.2969 157.928 19.2969C158.48 19.2969 158.94 19.2361 159.308 19.1152C159.696 18.9944 160.002 18.8332 160.227 18.6318C160.472 18.4103 160.646 18.1589 160.749 17.877C160.851 17.5951 160.902 17.2929 160.902 16.9707H166.819C166.819 17.9171 166.635 18.7729 166.267 19.5381C165.899 20.3035 165.348 20.9591 164.612 21.5029C163.876 22.0266 162.956 22.4289 161.852 22.7109C160.769 22.9929 159.501 23.1338 158.05 23.1338C156.109 23.1337 154.422 22.8419 152.992 22.2578C151.582 21.6536 150.488 20.7373 149.711 19.5088C148.955 18.2801 148.578 16.7085 148.578 14.7949C148.578 12.9217 148.955 11.3703 149.711 10.1416C150.468 8.91296 151.521 7.99684 152.87 7.39258C154.239 6.76817 155.844 6.45605 157.683 6.45605ZM17.3403 6.96973H7.06982V10.5352H15.8989V15.3086H7.06982V22.7715H0.294434V1.98438H17.3403V6.96973ZM25.8013 22.7715H19.7007V0.866211H25.8013V22.7715ZM54.7222 11.6826C54.8039 11.9445 54.9062 12.3477 55.0288 12.8916C55.1718 13.4152 55.3155 13.9789 55.4585 14.583C55.622 15.1873 55.7646 15.7416 55.8872 16.2451H56.1021C56.2451 15.7416 56.3779 15.2379 56.5005 14.7344C56.6436 14.2308 56.7871 13.7272 56.9302 13.2236C57.0732 12.7202 57.206 12.2164 57.3286 11.7129L58.647 6.81836H64.7173L66.0044 11.7432C66.0862 12.0252 66.1884 12.4386 66.311 12.9824C66.4541 13.506 66.5977 14.0596 66.7407 14.6436C66.9042 15.2277 67.0468 15.7617 67.1694 16.2451H67.3843C67.4865 15.8423 67.6094 15.369 67.7524 14.8252C67.8955 14.2814 68.0381 13.7372 68.1812 13.1934C68.3242 12.6294 68.4471 12.146 68.5493 11.7432L69.8677 6.81836H75.8149L69.8677 22.7715H63.9194L62.3872 17.3936C62.285 17.0511 62.1719 16.6681 62.0493 16.2451C61.9267 15.8022 61.8047 15.3792 61.6821 14.9766C61.58 14.5536 61.4875 14.1908 61.4058 13.8887H61.2827C61.2214 14.1706 61.1299 14.5133 61.0073 14.916C60.9052 15.3187 60.793 15.7315 60.6704 16.1543C60.5478 16.5773 60.4249 16.9806 60.3022 17.3633L58.7388 22.7715H52.7905L46.8735 6.81836H53.4653L54.7222 11.6826ZM126.739 15.8223C125.533 15.8223 124.552 15.9126 123.796 16.0938C123.061 16.275 122.519 16.5173 122.171 16.8193C121.824 17.1215 121.65 17.4741 121.65 17.877C121.65 18.2797 121.752 18.5919 121.957 18.8135C122.161 19.035 122.417 19.186 122.723 19.2666C123.05 19.3471 123.387 19.3877 123.735 19.3877C124.123 19.3877 124.491 19.337 124.838 19.2363C125.206 19.1155 125.534 18.9645 125.82 18.7832C126.106 18.5818 126.33 18.3497 126.494 18.0879C126.657 17.806 126.739 17.5038 126.739 17.1816V15.8223ZM37.2476 10.5352C36.5323 10.5352 35.9501 10.6761 35.5005 10.958C35.0713 11.2198 34.7537 11.6121 34.5493 12.1357C34.3449 12.6393 34.2427 13.2442 34.2427 13.9492V15.6709C34.2427 16.3759 34.3449 16.9808 34.5493 17.4844C34.7537 17.9878 35.0713 18.3801 35.5005 18.6621C35.9501 18.9239 36.5323 19.0547 37.2476 19.0547C37.9628 19.0547 38.545 18.9239 38.9946 18.6621C39.4442 18.3802 39.7717 17.9878 39.9761 17.4844C40.1805 16.9808 40.2827 16.3759 40.2827 15.6709V13.9492C40.2827 13.2442 40.1805 12.6393 39.9761 12.1357C39.7717 11.6122 39.4442 11.2198 38.9946 10.958C38.545 10.6761 37.9628 10.5352 37.2476 10.5352ZM157.928 10.293C157.254 10.293 156.691 10.4034 156.242 10.625C155.792 10.8466 155.445 11.1597 155.2 11.5625C154.955 11.9452 154.791 12.4185 154.709 12.9824H160.657C160.657 12.5595 160.596 12.1865 160.473 11.8643C160.351 11.5218 160.166 11.2401 159.92 11.0186C159.696 10.7769 159.409 10.5955 159.062 10.4746C158.735 10.3538 158.357 10.293 157.928 10.293Z" fill="#030303"/>
</svg>
